<svg xmlns="http://www.w3.org/2000/svg" xmlns:xlink="http://www.w3.org/1999/xlink" width="600" height="400" viewBox="0 0 2400 1600">
<defs>
  <clipPath id="clip490">
    <rect x="0" y="0" width="2400" height="1600"></rect>
  </clipPath>
</defs>
<path clip-path="url(#clip490)" d="M0 1600 L2400 1600 L2400 0 L0 0  Z" fill="#ffffff" fill-rule="evenodd" fill-opacity="1"></path>
<defs>
  <clipPath id="clip491">
    <rect x="480" y="0" width="1681" height="1600"></rect>
  </clipPath>
</defs>
<path clip-path="url(#clip490)" d="M249.542 1423.18 L2352.76 1423.18 L2352.76 123.472 L249.542 123.472  Z" fill="#ffffff" fill-rule="evenodd" fill-opacity="1"></path>
<defs>
  <clipPath id="clip492">
    <rect x="249" y="123" width="2104" height="1301"></rect>
  </clipPath>
</defs>
<polyline clip-path="url(#clip492)" style="stroke:#000000; stroke-linecap:round; stroke-linejoin:round; stroke-width:2; stroke-opacity:0.1; fill:none" points="483.232,1423.18 483.232,123.472 "></polyline>
<polyline clip-path="url(#clip492)" style="stroke:#000000; stroke-linecap:round; stroke-linejoin:round; stroke-width:2; stroke-opacity:0.1; fill:none" points="950.613,1423.18 950.613,123.472 "></polyline>
<polyline clip-path="url(#clip492)" style="stroke:#000000; stroke-linecap:round; stroke-linejoin:round; stroke-width:2; stroke-opacity:0.1; fill:none" points="1417.99,1423.18 1417.99,123.472 "></polyline>
<polyline clip-path="url(#clip492)" style="stroke:#000000; stroke-linecap:round; stroke-linejoin:round; stroke-width:2; stroke-opacity:0.1; fill:none" points="1885.38,1423.18 1885.38,123.472 "></polyline>
<polyline clip-path="url(#clip490)" style="stroke:#000000; stroke-linecap:round; stroke-linejoin:round; stroke-width:4; stroke-opacity:1; fill:none" points="249.542,1423.18 2352.76,1423.18 "></polyline>
<polyline clip-path="url(#clip490)" style="stroke:#000000; stroke-linecap:round; stroke-linejoin:round; stroke-width:4; stroke-opacity:1; fill:none" points="483.232,1423.18 483.232,1404.28 "></polyline>
<polyline clip-path="url(#clip490)" style="stroke:#000000; stroke-linecap:round; stroke-linejoin:round; stroke-width:4; stroke-opacity:1; fill:none" points="950.613,1423.18 950.613,1404.28 "></polyline>
<polyline clip-path="url(#clip490)" style="stroke:#000000; stroke-linecap:round; stroke-linejoin:round; stroke-width:4; stroke-opacity:1; fill:none" points="1417.99,1423.18 1417.99,1404.28 "></polyline>
<polyline clip-path="url(#clip490)" style="stroke:#000000; stroke-linecap:round; stroke-linejoin:round; stroke-width:4; stroke-opacity:1; fill:none" points="1885.38,1423.18 1885.38,1404.28 "></polyline>
<path clip-path="url(#clip490)" d="M446.149 1454.1 Q442.538 1454.1 440.71 1457.66 Q438.904 1461.2 438.904 1468.33 Q438.904 1475.44 440.71 1479.01 Q442.538 1482.55 446.149 1482.55 Q449.784 1482.55 451.589 1479.01 Q453.418 1475.44 453.418 1468.33 Q453.418 1461.2 451.589 1457.66 Q449.784 1454.1 446.149 1454.1 M446.149 1450.39 Q451.959 1450.39 455.015 1455 Q458.094 1459.58 458.094 1468.33 Q458.094 1477.06 455.015 1481.67 Q451.959 1486.25 446.149 1486.25 Q440.339 1486.25 437.26 1481.67 Q434.205 1477.06 434.205 1468.33 Q434.205 1459.58 437.26 1455 Q440.339 1450.39 446.149 1450.39 Z" fill="#000000" fill-rule="nonzero" fill-opacity="1"></path><path clip-path="url(#clip490)" d="M466.311 1479.7 L471.195 1479.7 L471.195 1485.58 L466.311 1485.58 L466.311 1479.7 Z" fill="#000000" fill-rule="nonzero" fill-opacity="1"></path><path clip-path="url(#clip490)" d="M491.381 1454.1 Q487.769 1454.1 485.941 1457.66 Q484.135 1461.2 484.135 1468.33 Q484.135 1475.44 485.941 1479.01 Q487.769 1482.55 491.381 1482.55 Q495.015 1482.55 496.82 1479.01 Q498.649 1475.44 498.649 1468.33 Q498.649 1461.2 496.82 1457.66 Q495.015 1454.1 491.381 1454.1 M491.381 1450.39 Q497.191 1450.39 500.246 1455 Q503.325 1459.58 503.325 1468.33 Q503.325 1477.06 500.246 1481.67 Q497.191 1486.25 491.381 1486.25 Q485.57 1486.25 482.492 1481.67 Q479.436 1477.06 479.436 1468.33 Q479.436 1459.58 482.492 1455 Q485.57 1450.39 491.381 1450.39 Z" fill="#000000" fill-rule="nonzero" fill-opacity="1"></path><path clip-path="url(#clip490)" d="M512.353 1481.64 L519.992 1481.64 L519.992 1455.28 L511.681 1456.95 L511.681 1452.69 L519.945 1451.02 L524.621 1451.02 L524.621 1481.64 L532.26 1481.64 L532.26 1485.58 L512.353 1485.58 L512.353 1481.64 Z" fill="#000000" fill-rule="nonzero" fill-opacity="1"></path><path clip-path="url(#clip490)" d="M913.715 1454.1 Q910.104 1454.1 908.276 1457.66 Q906.47 1461.2 906.47 1468.33 Q906.47 1475.44 908.276 1479.01 Q910.104 1482.55 913.715 1482.55 Q917.35 1482.55 919.155 1479.01 Q920.984 1475.44 920.984 1468.33 Q920.984 1461.2 919.155 1457.66 Q917.35 1454.1 913.715 1454.1 M913.715 1450.39 Q919.526 1450.39 922.581 1455 Q925.66 1459.58 925.66 1468.33 Q925.66 1477.06 922.581 1481.67 Q919.526 1486.25 913.715 1486.25 Q907.905 1486.25 904.827 1481.67 Q901.771 1477.06 901.771 1468.33 Q901.771 1459.58 904.827 1455 Q907.905 1450.39 913.715 1450.39 Z" fill="#000000" fill-rule="nonzero" fill-opacity="1"></path><path clip-path="url(#clip490)" d="M933.877 1479.7 L938.762 1479.7 L938.762 1485.58 L933.877 1485.58 L933.877 1479.7 Z" fill="#000000" fill-rule="nonzero" fill-opacity="1"></path><path clip-path="url(#clip490)" d="M958.947 1454.1 Q955.336 1454.1 953.507 1457.66 Q951.701 1461.2 951.701 1468.33 Q951.701 1475.44 953.507 1479.01 Q955.336 1482.55 958.947 1482.55 Q962.581 1482.55 964.386 1479.01 Q966.215 1475.44 966.215 1468.33 Q966.215 1461.2 964.386 1457.66 Q962.581 1454.1 958.947 1454.1 M958.947 1450.39 Q964.757 1450.39 967.812 1455 Q970.891 1459.58 970.891 1468.33 Q970.891 1477.06 967.812 1481.67 Q964.757 1486.25 958.947 1486.25 Q953.136 1486.25 950.058 1481.67 Q947.002 1477.06 947.002 1468.33 Q947.002 1459.58 950.058 1455 Q953.136 1450.39 958.947 1450.39 Z" fill="#000000" fill-rule="nonzero" fill-opacity="1"></path><path clip-path="url(#clip490)" d="M983.136 1481.64 L999.456 1481.64 L999.456 1485.58 L977.511 1485.58 L977.511 1481.64 Q980.173 1478.89 984.757 1474.26 Q989.363 1469.61 990.544 1468.27 Q992.789 1465.74 993.669 1464.01 Q994.571 1462.25 994.571 1460.56 Q994.571 1457.8 992.627 1456.07 Q990.706 1454.33 987.604 1454.33 Q985.405 1454.33 982.951 1455.09 Q980.521 1455.86 977.743 1457.41 L977.743 1452.69 Q980.567 1451.55 983.021 1450.97 Q985.474 1450.39 987.511 1450.39 Q992.882 1450.39 996.076 1453.08 Q999.27 1455.77 999.27 1460.26 Q999.27 1462.39 998.46 1464.31 Q997.673 1466.2 995.567 1468.8 Q994.988 1469.47 991.886 1472.69 Q988.784 1475.88 983.136 1481.64 Z" fill="#000000" fill-rule="nonzero" fill-opacity="1"></path><path clip-path="url(#clip490)" d="M1380.62 1454.1 Q1377.01 1454.1 1375.18 1457.66 Q1373.38 1461.2 1373.38 1468.33 Q1373.38 1475.44 1375.18 1479.01 Q1377.01 1482.55 1380.62 1482.55 Q1384.26 1482.55 1386.06 1479.01 Q1387.89 1475.44 1387.89 1468.33 Q1387.89 1461.2 1386.06 1457.66 Q1384.26 1454.1 1380.62 1454.1 M1380.62 1450.39 Q1386.43 1450.39 1389.49 1455 Q1392.57 1459.58 1392.57 1468.33 Q1392.57 1477.06 1389.49 1481.67 Q1386.43 1486.25 1380.62 1486.25 Q1374.81 1486.25 1371.73 1481.67 Q1368.68 1477.06 1368.68 1468.33 Q1368.68 1459.58 1371.73 1455 Q1374.81 1450.39 1380.62 1450.39 Z" fill="#000000" fill-rule="nonzero" fill-opacity="1"></path><path clip-path="url(#clip490)" d="M1400.78 1479.7 L1405.67 1479.7 L1405.67 1485.58 L1400.78 1485.58 L1400.78 1479.7 Z" fill="#000000" fill-rule="nonzero" fill-opacity="1"></path><path clip-path="url(#clip490)" d="M1425.85 1454.1 Q1422.24 1454.1 1420.41 1457.66 Q1418.61 1461.2 1418.61 1468.33 Q1418.61 1475.44 1420.41 1479.01 Q1422.24 1482.55 1425.85 1482.55 Q1429.49 1482.55 1431.29 1479.01 Q1433.12 1475.44 1433.12 1468.33 Q1433.12 1461.2 1431.29 1457.66 Q1429.49 1454.1 1425.85 1454.1 M1425.85 1450.39 Q1431.66 1450.39 1434.72 1455 Q1437.8 1459.58 1437.8 1468.33 Q1437.8 1477.06 1434.72 1481.67 Q1431.66 1486.25 1425.85 1486.25 Q1420.04 1486.25 1416.96 1481.67 Q1413.91 1477.06 1413.91 1468.33 Q1413.91 1459.58 1416.96 1455 Q1420.04 1450.39 1425.85 1450.39 Z" fill="#000000" fill-rule="nonzero" fill-opacity="1"></path><path clip-path="url(#clip490)" d="M1460.18 1466.95 Q1463.54 1467.66 1465.41 1469.93 Q1467.31 1472.2 1467.31 1475.53 Q1467.31 1480.65 1463.79 1483.45 Q1460.27 1486.25 1453.79 1486.25 Q1451.62 1486.25 1449.3 1485.81 Q1447.01 1485.39 1444.56 1484.54 L1444.56 1480.02 Q1446.5 1481.16 1448.82 1481.74 Q1451.13 1482.32 1453.65 1482.32 Q1458.05 1482.32 1460.34 1480.58 Q1462.66 1478.84 1462.66 1475.53 Q1462.66 1472.48 1460.51 1470.77 Q1458.38 1469.03 1454.56 1469.03 L1450.53 1469.03 L1450.53 1465.19 L1454.74 1465.19 Q1458.19 1465.19 1460.02 1463.82 Q1461.85 1462.43 1461.85 1459.84 Q1461.85 1457.18 1459.95 1455.77 Q1458.07 1454.33 1454.56 1454.33 Q1452.64 1454.33 1450.44 1454.75 Q1448.24 1455.16 1445.6 1456.04 L1445.6 1451.88 Q1448.26 1451.14 1450.58 1450.77 Q1452.91 1450.39 1454.97 1450.39 Q1460.3 1450.39 1463.4 1452.83 Q1466.5 1455.23 1466.5 1459.35 Q1466.5 1462.22 1464.86 1464.21 Q1463.21 1466.18 1460.18 1466.95 Z" fill="#000000" fill-rule="nonzero" fill-opacity="1"></path><path clip-path="url(#clip490)" d="M1847.44 1454.1 Q1843.82 1454.1 1842 1457.66 Q1840.19 1461.2 1840.19 1468.33 Q1840.19 1475.44 1842 1479.01 Q1843.82 1482.55 1847.44 1482.55 Q1851.07 1482.55 1852.88 1479.01 Q1854.7 1475.44 1854.7 1468.33 Q1854.7 1461.2 1852.88 1457.66 Q1851.07 1454.1 1847.44 1454.1 M1847.44 1450.39 Q1853.25 1450.39 1856.3 1455 Q1859.38 1459.58 1859.38 1468.33 Q1859.38 1477.06 1856.3 1481.67 Q1853.25 1486.25 1847.44 1486.25 Q1841.63 1486.25 1838.55 1481.67 Q1835.49 1477.06 1835.49 1468.33 Q1835.49 1459.58 1838.55 1455 Q1841.63 1450.39 1847.44 1450.39 Z" fill="#000000" fill-rule="nonzero" fill-opacity="1"></path><path clip-path="url(#clip490)" d="M1867.6 1479.7 L1872.48 1479.7 L1872.48 1485.58 L1867.6 1485.58 L1867.6 1479.7 Z" fill="#000000" fill-rule="nonzero" fill-opacity="1"></path><path clip-path="url(#clip490)" d="M1892.67 1454.1 Q1889.06 1454.1 1887.23 1457.66 Q1885.42 1461.2 1885.42 1468.33 Q1885.42 1475.44 1887.23 1479.01 Q1889.06 1482.55 1892.67 1482.55 Q1896.3 1482.55 1898.11 1479.01 Q1899.94 1475.44 1899.94 1468.33 Q1899.94 1461.2 1898.11 1457.66 Q1896.3 1454.1 1892.67 1454.1 M1892.67 1450.39 Q1898.48 1450.39 1901.53 1455 Q1904.61 1459.58 1904.61 1468.33 Q1904.61 1477.06 1901.53 1481.67 Q1898.48 1486.25 1892.67 1486.25 Q1886.86 1486.25 1883.78 1481.67 Q1880.72 1477.06 1880.72 1468.33 Q1880.72 1459.58 1883.78 1455 Q1886.86 1450.39 1892.67 1450.39 Z" fill="#000000" fill-rule="nonzero" fill-opacity="1"></path><path clip-path="url(#clip490)" d="M1925.68 1455.09 L1913.87 1473.54 L1925.68 1473.54 L1925.68 1455.09 M1924.45 1451.02 L1930.33 1451.02 L1930.33 1473.54 L1935.26 1473.54 L1935.26 1477.43 L1930.33 1477.43 L1930.33 1485.58 L1925.68 1485.58 L1925.68 1477.43 L1910.07 1477.43 L1910.07 1472.92 L1924.45 1451.02 Z" fill="#000000" fill-rule="nonzero" fill-opacity="1"></path><path clip-path="url(#clip490)" d="M994.592 1525.81 L994.592 1562.76 L1002.36 1562.76 Q1012.19 1562.76 1016.75 1558.3 Q1021.33 1553.85 1021.33 1544.24 Q1021.33 1534.69 1016.75 1530.26 Q1012.19 1525.81 1002.36 1525.81 L994.592 1525.81 M988.163 1520.52 L1001.37 1520.52 Q1015.19 1520.52 1021.65 1526.28 Q1028.11 1532.01 1028.11 1544.24 Q1028.11 1556.52 1021.61 1562.28 Q1015.12 1568.04 1001.37 1568.04 L988.163 1568.04 L988.163 1520.52 Z" fill="#000000" fill-rule="nonzero" fill-opacity="1"></path><path clip-path="url(#clip490)" d="M1058.76 1537.87 Q1057.77 1537.3 1056.59 1537.04 Q1055.45 1536.76 1054.05 1536.76 Q1049.08 1536.76 1046.41 1540 Q1043.77 1543.22 1043.77 1549.27 L1043.77 1568.04 L1037.88 1568.04 L1037.88 1532.4 L1043.77 1532.4 L1043.77 1537.93 Q1045.61 1534.69 1048.57 1533.13 Q1051.53 1531.54 1055.77 1531.54 Q1056.37 1531.54 1057.1 1531.63 Q1057.84 1531.7 1058.73 1531.85 L1058.76 1537.87 Z" fill="#000000" fill-rule="nonzero" fill-opacity="1"></path><path clip-path="url(#clip490)" d="M1081.1 1550.12 Q1074 1550.12 1071.27 1551.75 Q1068.53 1553.37 1068.53 1557.29 Q1068.53 1560.4 1070.57 1562.25 Q1072.64 1564.07 1076.17 1564.07 Q1081.04 1564.07 1083.97 1560.63 Q1086.93 1557.16 1086.93 1551.43 L1086.93 1550.12 L1081.1 1550.12 M1092.78 1547.71 L1092.78 1568.04 L1086.93 1568.04 L1086.93 1562.63 Q1084.92 1565.88 1081.93 1567.44 Q1078.94 1568.97 1074.61 1568.97 Q1069.13 1568.97 1065.89 1565.91 Q1062.67 1562.82 1062.67 1557.67 Q1062.67 1551.65 1066.68 1548.6 Q1070.73 1545.54 1078.72 1545.54 L1086.93 1545.54 L1086.93 1544.97 Q1086.93 1540.93 1084.25 1538.73 Q1081.61 1536.5 1076.81 1536.5 Q1073.75 1536.5 1070.85 1537.23 Q1067.96 1537.97 1065.28 1539.43 L1065.28 1534.02 Q1068.5 1532.78 1071.52 1532.17 Q1074.55 1531.54 1077.41 1531.54 Q1085.14 1531.54 1088.96 1535.55 Q1092.78 1539.56 1092.78 1547.71 Z" fill="#000000" fill-rule="nonzero" fill-opacity="1"></path><path clip-path="url(#clip490)" d="M1128.3 1549.81 Q1128.3 1543.44 1125.66 1539.94 Q1123.05 1536.44 1118.31 1536.44 Q1113.6 1536.44 1110.96 1539.94 Q1108.35 1543.44 1108.35 1549.81 Q1108.35 1556.14 1110.96 1559.64 Q1113.6 1563.14 1118.31 1563.14 Q1123.05 1563.14 1125.66 1559.64 Q1128.3 1556.14 1128.3 1549.81 M1134.16 1563.62 Q1134.16 1572.72 1130.12 1577.15 Q1126.08 1581.6 1117.74 1581.6 Q1114.65 1581.6 1111.91 1581.13 Q1109.18 1580.68 1106.6 1579.72 L1106.6 1574.03 Q1109.18 1575.43 1111.69 1576.1 Q1114.2 1576.76 1116.81 1576.76 Q1122.57 1576.76 1125.44 1573.74 Q1128.3 1570.75 1128.3 1564.67 L1128.3 1561.77 Q1126.49 1564.92 1123.66 1566.48 Q1120.82 1568.04 1116.88 1568.04 Q1110.32 1568.04 1106.31 1563.05 Q1102.3 1558.05 1102.3 1549.81 Q1102.3 1541.53 1106.31 1536.53 Q1110.32 1531.54 1116.88 1531.54 Q1120.82 1531.54 1123.66 1533.1 Q1126.49 1534.66 1128.3 1537.81 L1128.3 1532.4 L1134.16 1532.4 L1134.16 1563.62 Z" fill="#000000" fill-rule="nonzero" fill-opacity="1"></path><path clip-path="url(#clip490)" d="M1192.6 1533.76 L1192.6 1539.24 Q1190.12 1537.87 1187.6 1537.2 Q1185.12 1536.5 1182.57 1536.5 Q1176.87 1536.5 1173.72 1540.13 Q1170.57 1543.73 1170.57 1550.25 Q1170.57 1556.78 1173.72 1560.4 Q1176.87 1564 1182.57 1564 Q1185.12 1564 1187.6 1563.33 Q1190.12 1562.63 1192.6 1561.26 L1192.6 1566.68 Q1190.15 1567.82 1187.51 1568.39 Q1184.9 1568.97 1181.94 1568.97 Q1173.88 1568.97 1169.14 1563.91 Q1164.4 1558.85 1164.4 1550.25 Q1164.4 1541.53 1169.17 1536.53 Q1173.98 1531.54 1182.32 1531.54 Q1185.02 1531.54 1187.6 1532.11 Q1190.18 1532.65 1192.6 1533.76 Z" fill="#000000" fill-rule="nonzero" fill-opacity="1"></path><path clip-path="url(#clip490)" d="M1216.6 1536.5 Q1211.89 1536.5 1209.15 1540.19 Q1206.41 1543.85 1206.41 1550.25 Q1206.41 1556.65 1209.12 1560.34 Q1211.85 1564 1216.6 1564 Q1221.28 1564 1224.01 1560.31 Q1226.75 1556.62 1226.75 1550.25 Q1226.75 1543.92 1224.01 1540.23 Q1221.28 1536.5 1216.6 1536.5 M1216.6 1531.54 Q1224.24 1531.54 1228.6 1536.5 Q1232.96 1541.47 1232.96 1550.25 Q1232.96 1559 1228.6 1564 Q1224.24 1568.97 1216.6 1568.97 Q1208.93 1568.97 1204.57 1564 Q1200.24 1559 1200.24 1550.25 Q1200.24 1541.47 1204.57 1536.5 Q1208.93 1531.54 1216.6 1531.54 Z" fill="#000000" fill-rule="nonzero" fill-opacity="1"></path><path clip-path="url(#clip490)" d="M1273.16 1548.76 L1273.16 1551.62 L1246.23 1551.62 Q1246.61 1557.67 1249.86 1560.85 Q1253.14 1564 1258.96 1564 Q1262.33 1564 1265.49 1563.17 Q1268.67 1562.35 1271.79 1560.69 L1271.79 1566.23 Q1268.64 1567.57 1265.33 1568.27 Q1262.02 1568.97 1258.61 1568.97 Q1250.08 1568.97 1245.08 1564 Q1240.12 1559.04 1240.12 1550.57 Q1240.12 1541.82 1244.83 1536.69 Q1249.57 1531.54 1257.59 1531.54 Q1264.78 1531.54 1268.95 1536.18 Q1273.16 1540.8 1273.16 1548.76 M1267.3 1547.04 Q1267.24 1542.23 1264.59 1539.37 Q1261.98 1536.5 1257.66 1536.5 Q1252.75 1536.5 1249.79 1539.27 Q1246.87 1542.04 1246.42 1547.07 L1267.3 1547.04 Z" fill="#000000" fill-rule="nonzero" fill-opacity="1"></path><path clip-path="url(#clip490)" d="M1300.81 1518.52 L1300.81 1523.39 L1295.21 1523.39 Q1292.06 1523.39 1290.82 1524.66 Q1289.61 1525.93 1289.61 1529.24 L1289.61 1532.4 L1299.26 1532.4 L1299.26 1536.95 L1289.61 1536.95 L1289.61 1568.04 L1283.72 1568.04 L1283.72 1536.95 L1278.12 1536.95 L1278.12 1532.4 L1283.72 1532.4 L1283.72 1529.91 Q1283.72 1523.96 1286.49 1521.26 Q1289.26 1518.52 1295.28 1518.52 L1300.81 1518.52 Z" fill="#000000" fill-rule="nonzero" fill-opacity="1"></path><path clip-path="url(#clip490)" d="M1323.76 1518.52 L1323.76 1523.39 L1318.16 1523.39 Q1315.01 1523.39 1313.77 1524.66 Q1312.56 1525.93 1312.56 1529.24 L1312.56 1532.4 L1322.2 1532.4 L1322.2 1536.95 L1312.56 1536.95 L1312.56 1568.04 L1306.67 1568.04 L1306.67 1536.95 L1301.07 1536.95 L1301.07 1532.4 L1306.67 1532.4 L1306.67 1529.91 Q1306.67 1523.96 1309.44 1521.26 Q1312.21 1518.52 1318.22 1518.52 L1323.76 1518.52 Z" fill="#000000" fill-rule="nonzero" fill-opacity="1"></path><path clip-path="url(#clip490)" d="M1328.66 1532.4 L1334.52 1532.4 L1334.52 1568.04 L1328.66 1568.04 L1328.66 1532.4 M1328.66 1518.52 L1334.52 1518.52 L1334.52 1525.93 L1328.66 1525.93 L1328.66 1518.52 Z" fill="#000000" fill-rule="nonzero" fill-opacity="1"></path><path clip-path="url(#clip490)" d="M1372.43 1533.76 L1372.43 1539.24 Q1369.95 1537.87 1367.43 1537.2 Q1364.95 1536.5 1362.4 1536.5 Q1356.71 1536.5 1353.55 1540.13 Q1350.4 1543.73 1350.4 1550.25 Q1350.4 1556.78 1353.55 1560.4 Q1356.71 1564 1362.4 1564 Q1364.95 1564 1367.43 1563.33 Q1369.95 1562.63 1372.43 1561.26 L1372.43 1566.68 Q1369.98 1567.82 1367.34 1568.39 Q1364.73 1568.97 1361.77 1568.97 Q1353.71 1568.97 1348.97 1563.91 Q1344.23 1558.85 1344.23 1550.25 Q1344.23 1541.53 1349 1536.53 Q1353.81 1531.54 1362.15 1531.54 Q1364.85 1531.54 1367.43 1532.11 Q1370.01 1532.65 1372.43 1533.76 Z" fill="#000000" fill-rule="nonzero" fill-opacity="1"></path><path clip-path="url(#clip490)" d="M1382.61 1532.4 L1388.47 1532.4 L1388.47 1568.04 L1382.61 1568.04 L1382.61 1532.4 M1382.61 1518.52 L1388.47 1518.52 L1388.47 1525.93 L1382.61 1525.93 L1382.61 1518.52 Z" fill="#000000" fill-rule="nonzero" fill-opacity="1"></path><path clip-path="url(#clip490)" d="M1431.22 1548.76 L1431.22 1551.62 L1404.29 1551.62 Q1404.67 1557.67 1407.92 1560.85 Q1411.2 1564 1417.02 1564 Q1420.39 1564 1423.55 1563.17 Q1426.73 1562.35 1429.85 1560.69 L1429.85 1566.23 Q1426.7 1567.57 1423.39 1568.27 Q1420.08 1568.97 1416.67 1568.97 Q1408.14 1568.97 1403.14 1564 Q1398.18 1559.04 1398.18 1550.57 Q1398.18 1541.82 1402.89 1536.69 Q1407.63 1531.54 1415.65 1531.54 Q1422.85 1531.54 1427.01 1536.18 Q1431.22 1540.8 1431.22 1548.76 M1425.36 1547.04 Q1425.3 1542.23 1422.65 1539.37 Q1420.04 1536.5 1415.72 1536.5 Q1410.81 1536.5 1407.85 1539.27 Q1404.93 1542.04 1404.48 1547.07 L1425.36 1547.04 Z" fill="#000000" fill-rule="nonzero" fill-opacity="1"></path><path clip-path="url(#clip490)" d="M1470.46 1546.53 L1470.46 1568.04 L1464.6 1568.04 L1464.6 1546.72 Q1464.6 1541.66 1462.63 1539.14 Q1460.66 1536.63 1456.71 1536.63 Q1451.97 1536.63 1449.23 1539.65 Q1446.49 1542.68 1446.49 1547.9 L1446.49 1568.04 L1440.61 1568.04 L1440.61 1532.4 L1446.49 1532.4 L1446.49 1537.93 Q1448.59 1534.72 1451.43 1533.13 Q1454.29 1531.54 1458.02 1531.54 Q1464.16 1531.54 1467.31 1535.36 Q1470.46 1539.14 1470.46 1546.53 Z" fill="#000000" fill-rule="nonzero" fill-opacity="1"></path><path clip-path="url(#clip490)" d="M1487.93 1522.27 L1487.93 1532.4 L1500 1532.4 L1500 1536.95 L1487.93 1536.95 L1487.93 1556.3 Q1487.93 1560.66 1489.11 1561.9 Q1490.32 1563.14 1493.98 1563.14 L1500 1563.14 L1500 1568.04 L1493.98 1568.04 Q1487.2 1568.04 1484.62 1565.53 Q1482.05 1562.98 1482.05 1556.3 L1482.05 1536.95 L1477.75 1536.95 L1477.75 1532.4 L1482.05 1532.4 L1482.05 1522.27 L1487.93 1522.27 Z" fill="#000000" fill-rule="nonzero" fill-opacity="1"></path><path clip-path="url(#clip490)" d="M1564.26 1524.18 L1564.26 1530.96 Q1561.01 1527.94 1557.32 1526.44 Q1553.66 1524.95 1549.52 1524.95 Q1541.37 1524.95 1537.05 1529.95 Q1532.72 1534.91 1532.72 1544.33 Q1532.72 1553.72 1537.05 1558.72 Q1541.37 1563.68 1549.52 1563.68 Q1553.66 1563.68 1557.32 1562.19 Q1561.01 1560.69 1564.26 1557.67 L1564.26 1564.38 Q1560.89 1566.68 1557.1 1567.82 Q1553.34 1568.97 1549.14 1568.97 Q1538.35 1568.97 1532.14 1562.38 Q1525.94 1555.76 1525.94 1544.33 Q1525.94 1532.87 1532.14 1526.28 Q1538.35 1519.66 1549.14 1519.66 Q1553.41 1519.66 1557.16 1520.81 Q1560.95 1521.92 1564.26 1524.18 Z" fill="#000000" fill-rule="nonzero" fill-opacity="1"></path><path clip-path="url(#clip490)" d="M1580.62 1525.81 L1580.62 1562.76 L1588.39 1562.76 Q1598.22 1562.76 1602.77 1558.3 Q1607.36 1553.85 1607.36 1544.24 Q1607.36 1534.69 1602.77 1530.26 Q1598.22 1525.81 1588.39 1525.81 L1580.62 1525.81 M1574.19 1520.52 L1587.4 1520.52 Q1601.21 1520.52 1607.67 1526.28 Q1614.13 1532.01 1614.13 1544.24 Q1614.13 1556.52 1607.64 1562.28 Q1601.15 1568.04 1587.4 1568.04 L1574.19 1568.04 L1574.19 1520.52 Z" fill="#000000" fill-rule="nonzero" fill-opacity="1"></path><polyline clip-path="url(#clip492)" style="stroke:#000000; stroke-linecap:round; stroke-linejoin:round; stroke-width:2; stroke-opacity:0.1; fill:none" points="249.542,1323.72 2352.76,1323.72 "></polyline>
<polyline clip-path="url(#clip492)" style="stroke:#000000; stroke-linecap:round; stroke-linejoin:round; stroke-width:2; stroke-opacity:0.1; fill:none" points="249.542,1050.58 2352.76,1050.58 "></polyline>
<polyline clip-path="url(#clip492)" style="stroke:#000000; stroke-linecap:round; stroke-linejoin:round; stroke-width:2; stroke-opacity:0.1; fill:none" points="249.542,777.444 2352.76,777.444 "></polyline>
<polyline clip-path="url(#clip492)" style="stroke:#000000; stroke-linecap:round; stroke-linejoin:round; stroke-width:2; stroke-opacity:0.1; fill:none" points="249.542,504.303 2352.76,504.303 "></polyline>
<polyline clip-path="url(#clip492)" style="stroke:#000000; stroke-linecap:round; stroke-linejoin:round; stroke-width:2; stroke-opacity:0.1; fill:none" points="249.542,231.163 2352.76,231.163 "></polyline>
<polyline clip-path="url(#clip490)" style="stroke:#000000; stroke-linecap:round; stroke-linejoin:round; stroke-width:4; stroke-opacity:1; fill:none" points="249.542,1423.18 249.542,123.472 "></polyline>
<polyline clip-path="url(#clip490)" style="stroke:#000000; stroke-linecap:round; stroke-linejoin:round; stroke-width:4; stroke-opacity:1; fill:none" points="249.542,1323.72 268.44,1323.72 "></polyline>
<polyline clip-path="url(#clip490)" style="stroke:#000000; stroke-linecap:round; stroke-linejoin:round; stroke-width:4; stroke-opacity:1; fill:none" points="249.542,1050.58 268.44,1050.58 "></polyline>
<polyline clip-path="url(#clip490)" style="stroke:#000000; stroke-linecap:round; stroke-linejoin:round; stroke-width:4; stroke-opacity:1; fill:none" points="249.542,777.444 268.44,777.444 "></polyline>
<polyline clip-path="url(#clip490)" style="stroke:#000000; stroke-linecap:round; stroke-linejoin:round; stroke-width:4; stroke-opacity:1; fill:none" points="249.542,504.303 268.44,504.303 "></polyline>
<polyline clip-path="url(#clip490)" style="stroke:#000000; stroke-linecap:round; stroke-linejoin:round; stroke-width:4; stroke-opacity:1; fill:none" points="249.542,231.163 268.44,231.163 "></polyline>
<path clip-path="url(#clip490)" d="M127.2 1309.52 Q123.589 1309.52 121.76 1313.09 Q119.955 1316.63 119.955 1323.76 Q119.955 1330.87 121.76 1334.43 Q123.589 1337.97 127.2 1337.97 Q130.834 1337.97 132.64 1334.43 Q134.468 1330.87 134.468 1323.76 Q134.468 1316.63 132.64 1313.09 Q130.834 1309.52 127.2 1309.52 M127.2 1305.82 Q133.01 1305.82 136.066 1310.43 Q139.144 1315.01 139.144 1323.76 Q139.144 1332.49 136.066 1337.09 Q133.01 1341.68 127.2 1341.68 Q121.39 1341.68 118.311 1337.09 Q115.256 1332.49 115.256 1323.76 Q115.256 1315.01 118.311 1310.43 Q121.39 1305.82 127.2 1305.82 Z" fill="#000000" fill-rule="nonzero" fill-opacity="1"></path><path clip-path="url(#clip490)" d="M147.362 1335.13 L152.246 1335.13 L152.246 1341 L147.362 1341 L147.362 1335.13 Z" fill="#000000" fill-rule="nonzero" fill-opacity="1"></path><path clip-path="url(#clip490)" d="M166.459 1337.07 L182.778 1337.07 L182.778 1341 L160.834 1341 L160.834 1337.07 Q163.496 1334.31 168.079 1329.69 Q172.686 1325.03 173.866 1323.69 Q176.112 1321.17 176.991 1319.43 Q177.894 1317.67 177.894 1315.98 Q177.894 1313.23 175.95 1311.49 Q174.028 1309.75 170.927 1309.75 Q168.727 1309.75 166.274 1310.52 Q163.843 1311.28 161.065 1312.83 L161.065 1308.11 Q163.89 1306.98 166.343 1306.4 Q168.797 1305.82 170.834 1305.82 Q176.204 1305.82 179.399 1308.5 Q182.593 1311.19 182.593 1315.68 Q182.593 1317.81 181.783 1319.73 Q180.996 1321.63 178.889 1324.22 Q178.311 1324.89 175.209 1328.11 Q172.107 1331.31 166.459 1337.07 Z" fill="#000000" fill-rule="nonzero" fill-opacity="1"></path><path clip-path="url(#clip490)" d="M192.639 1306.44 L210.996 1306.44 L210.996 1310.38 L196.922 1310.38 L196.922 1318.85 Q197.94 1318.5 198.959 1318.34 Q199.977 1318.16 200.996 1318.16 Q206.783 1318.16 210.162 1321.33 Q213.542 1324.5 213.542 1329.92 Q213.542 1335.5 210.07 1338.6 Q206.598 1341.68 200.278 1341.68 Q198.102 1341.68 195.834 1341.31 Q193.588 1340.94 191.181 1340.19 L191.181 1335.5 Q193.264 1336.63 195.487 1337.19 Q197.709 1337.74 200.186 1337.74 Q204.19 1337.74 206.528 1335.63 Q208.866 1333.53 208.866 1329.92 Q208.866 1326.31 206.528 1324.2 Q204.19 1322.09 200.186 1322.09 Q198.311 1322.09 196.436 1322.51 Q194.584 1322.93 192.639 1323.81 L192.639 1306.44 Z" fill="#000000" fill-rule="nonzero" fill-opacity="1"></path><path clip-path="url(#clip490)" d="M126.205 1036.38 Q122.593 1036.38 120.765 1039.95 Q118.959 1043.49 118.959 1050.62 Q118.959 1057.73 120.765 1061.29 Q122.593 1064.83 126.205 1064.83 Q129.839 1064.83 131.644 1061.29 Q133.473 1057.73 133.473 1050.62 Q133.473 1043.49 131.644 1039.95 Q129.839 1036.38 126.205 1036.38 M126.205 1032.68 Q132.015 1032.68 135.07 1037.29 Q138.149 1041.87 138.149 1050.62 Q138.149 1059.35 135.07 1063.95 Q132.015 1068.54 126.205 1068.54 Q120.394 1068.54 117.316 1063.95 Q114.26 1059.35 114.26 1050.62 Q114.26 1041.87 117.316 1037.29 Q120.394 1032.68 126.205 1032.68 Z" fill="#000000" fill-rule="nonzero" fill-opacity="1"></path><path clip-path="url(#clip490)" d="M146.366 1061.98 L151.251 1061.98 L151.251 1067.86 L146.366 1067.86 L146.366 1061.98 Z" fill="#000000" fill-rule="nonzero" fill-opacity="1"></path><path clip-path="url(#clip490)" d="M161.482 1033.3 L179.839 1033.3 L179.839 1037.24 L165.765 1037.24 L165.765 1045.71 Q166.783 1045.36 167.802 1045.2 Q168.82 1045.02 169.839 1045.02 Q175.626 1045.02 179.005 1048.19 Q182.385 1051.36 182.385 1056.78 Q182.385 1062.35 178.913 1065.46 Q175.44 1068.54 169.121 1068.54 Q166.945 1068.54 164.677 1068.17 Q162.431 1067.79 160.024 1067.05 L160.024 1062.35 Q162.107 1063.49 164.329 1064.04 Q166.552 1064.6 169.028 1064.6 Q173.033 1064.6 175.371 1062.49 Q177.709 1060.39 177.709 1056.78 Q177.709 1053.17 175.371 1051.06 Q173.033 1048.95 169.028 1048.95 Q167.153 1048.95 165.278 1049.37 Q163.427 1049.79 161.482 1050.67 L161.482 1033.3 Z" fill="#000000" fill-rule="nonzero" fill-opacity="1"></path><path clip-path="url(#clip490)" d="M201.598 1036.38 Q197.987 1036.38 196.158 1039.95 Q194.352 1043.49 194.352 1050.62 Q194.352 1057.73 196.158 1061.29 Q197.987 1064.83 201.598 1064.83 Q205.232 1064.83 207.037 1061.29 Q208.866 1057.73 208.866 1050.62 Q208.866 1043.49 207.037 1039.95 Q205.232 1036.38 201.598 1036.38 M201.598 1032.68 Q207.408 1032.68 210.463 1037.29 Q213.542 1041.87 213.542 1050.62 Q213.542 1059.35 210.463 1063.95 Q207.408 1068.54 201.598 1068.54 Q195.787 1068.54 192.709 1063.95 Q189.653 1059.35 189.653 1050.62 Q189.653 1041.87 192.709 1037.29 Q195.787 1032.68 201.598 1032.68 Z" fill="#000000" fill-rule="nonzero" fill-opacity="1"></path><path clip-path="url(#clip490)" d="M127.2 763.242 Q123.589 763.242 121.76 766.807 Q119.955 770.349 119.955 777.479 Q119.955 784.585 121.76 788.15 Q123.589 791.691 127.2 791.691 Q130.834 791.691 132.64 788.15 Q134.468 784.585 134.468 777.479 Q134.468 770.349 132.64 766.807 Q130.834 763.242 127.2 763.242 M127.2 759.539 Q133.01 759.539 136.066 764.145 Q139.144 768.729 139.144 777.479 Q139.144 786.205 136.066 790.812 Q133.01 795.395 127.2 795.395 Q121.39 795.395 118.311 790.812 Q115.256 786.205 115.256 777.479 Q115.256 768.729 118.311 764.145 Q121.39 759.539 127.2 759.539 Z" fill="#000000" fill-rule="nonzero" fill-opacity="1"></path><path clip-path="url(#clip490)" d="M147.362 788.844 L152.246 788.844 L152.246 794.724 L147.362 794.724 L147.362 788.844 Z" fill="#000000" fill-rule="nonzero" fill-opacity="1"></path><path clip-path="url(#clip490)" d="M161.251 760.164 L183.473 760.164 L183.473 762.155 L170.927 794.724 L166.042 794.724 L177.848 764.099 L161.251 764.099 L161.251 760.164 Z" fill="#000000" fill-rule="nonzero" fill-opacity="1"></path><path clip-path="url(#clip490)" d="M192.639 760.164 L210.996 760.164 L210.996 764.099 L196.922 764.099 L196.922 772.571 Q197.94 772.224 198.959 772.062 Q199.977 771.877 200.996 771.877 Q206.783 771.877 210.162 775.048 Q213.542 778.219 213.542 783.636 Q213.542 789.215 210.07 792.316 Q206.598 795.395 200.278 795.395 Q198.102 795.395 195.834 795.025 Q193.588 794.654 191.181 793.914 L191.181 789.215 Q193.264 790.349 195.487 790.904 Q197.709 791.46 200.186 791.46 Q204.19 791.46 206.528 789.353 Q208.866 787.247 208.866 783.636 Q208.866 780.025 206.528 777.918 Q204.19 775.812 200.186 775.812 Q198.311 775.812 196.436 776.229 Q194.584 776.645 192.639 777.525 L192.639 760.164 Z" fill="#000000" fill-rule="nonzero" fill-opacity="1"></path><path clip-path="url(#clip490)" d="M117.015 517.648 L124.654 517.648 L124.654 491.283 L116.343 492.949 L116.343 488.69 L124.607 487.023 L129.283 487.023 L129.283 517.648 L136.922 517.648 L136.922 521.583 L117.015 521.583 L117.015 517.648 Z" fill="#000000" fill-rule="nonzero" fill-opacity="1"></path><path clip-path="url(#clip490)" d="M146.366 515.704 L151.251 515.704 L151.251 521.583 L146.366 521.583 L146.366 515.704 Z" fill="#000000" fill-rule="nonzero" fill-opacity="1"></path><path clip-path="url(#clip490)" d="M171.436 490.102 Q167.825 490.102 165.996 493.667 Q164.19 497.209 164.19 504.338 Q164.19 511.445 165.996 515.009 Q167.825 518.551 171.436 518.551 Q175.07 518.551 176.876 515.009 Q178.704 511.445 178.704 504.338 Q178.704 497.209 176.876 493.667 Q175.07 490.102 171.436 490.102 M171.436 486.398 Q177.246 486.398 180.301 491.005 Q183.38 495.588 183.38 504.338 Q183.38 513.065 180.301 517.671 Q177.246 522.255 171.436 522.255 Q165.626 522.255 162.547 517.671 Q159.491 513.065 159.491 504.338 Q159.491 495.588 162.547 491.005 Q165.626 486.398 171.436 486.398 Z" fill="#000000" fill-rule="nonzero" fill-opacity="1"></path><path clip-path="url(#clip490)" d="M201.598 490.102 Q197.987 490.102 196.158 493.667 Q194.352 497.209 194.352 504.338 Q194.352 511.445 196.158 515.009 Q197.987 518.551 201.598 518.551 Q205.232 518.551 207.037 515.009 Q208.866 511.445 208.866 504.338 Q208.866 497.209 207.037 493.667 Q205.232 490.102 201.598 490.102 M201.598 486.398 Q207.408 486.398 210.463 491.005 Q213.542 495.588 213.542 504.338 Q213.542 513.065 210.463 517.671 Q207.408 522.255 201.598 522.255 Q195.787 522.255 192.709 517.671 Q189.653 513.065 189.653 504.338 Q189.653 495.588 192.709 491.005 Q195.787 486.398 201.598 486.398 Z" fill="#000000" fill-rule="nonzero" fill-opacity="1"></path><path clip-path="url(#clip490)" d="M118.01 244.508 L125.649 244.508 L125.649 218.142 L117.339 219.809 L117.339 215.55 L125.603 213.883 L130.279 213.883 L130.279 244.508 L137.917 244.508 L137.917 248.443 L118.01 248.443 L118.01 244.508 Z" fill="#000000" fill-rule="nonzero" fill-opacity="1"></path><path clip-path="url(#clip490)" d="M147.362 242.563 L152.246 242.563 L152.246 248.443 L147.362 248.443 L147.362 242.563 Z" fill="#000000" fill-rule="nonzero" fill-opacity="1"></path><path clip-path="url(#clip490)" d="M166.459 244.508 L182.778 244.508 L182.778 248.443 L160.834 248.443 L160.834 244.508 Q163.496 241.753 168.079 237.124 Q172.686 232.471 173.866 231.128 Q176.112 228.605 176.991 226.869 Q177.894 225.11 177.894 223.42 Q177.894 220.665 175.95 218.929 Q174.028 217.193 170.927 217.193 Q168.727 217.193 166.274 217.957 Q163.843 218.721 161.065 220.272 L161.065 215.55 Q163.89 214.415 166.343 213.837 Q168.797 213.258 170.834 213.258 Q176.204 213.258 179.399 215.943 Q182.593 218.628 182.593 223.119 Q182.593 225.249 181.783 227.17 Q180.996 229.068 178.889 231.661 Q178.311 232.332 175.209 235.55 Q172.107 238.744 166.459 244.508 Z" fill="#000000" fill-rule="nonzero" fill-opacity="1"></path><path clip-path="url(#clip490)" d="M192.639 213.883 L210.996 213.883 L210.996 217.818 L196.922 217.818 L196.922 226.29 Q197.94 225.943 198.959 225.781 Q199.977 225.596 200.996 225.596 Q206.783 225.596 210.162 228.767 Q213.542 231.938 213.542 237.355 Q213.542 242.934 210.07 246.036 Q206.598 249.114 200.278 249.114 Q198.102 249.114 195.834 248.744 Q193.588 248.374 191.181 247.633 L191.181 242.934 Q193.264 244.068 195.487 244.624 Q197.709 245.179 200.186 245.179 Q204.19 245.179 206.528 243.073 Q208.866 240.966 208.866 237.355 Q208.866 233.744 206.528 231.637 Q204.19 229.531 200.186 229.531 Q198.311 229.531 196.436 229.948 Q194.584 230.364 192.639 231.244 L192.639 213.883 Z" fill="#000000" fill-rule="nonzero" fill-opacity="1"></path><path clip-path="url(#clip490)" d="M16.4842 1052.86 L16.4842 1046.43 L58.5933 1046.43 L58.5933 1023.29 L64.0042 1023.29 L64.0042 1052.86 L16.4842 1052.86 Z" fill="#000000" fill-rule="nonzero" fill-opacity="1"></path><path clip-path="url(#clip490)" d="M28.3562 1016.8 L28.3562 1010.94 L64.0042 1010.94 L64.0042 1016.8 L28.3562 1016.8 M14.479 1016.8 L14.479 1010.94 L21.895 1010.94 L21.895 1016.8 L14.479 1016.8 Z" fill="#000000" fill-rule="nonzero" fill-opacity="1"></path><path clip-path="url(#clip490)" d="M14.479 980.641 L19.3487 980.641 L19.3487 986.243 Q19.3487 989.394 20.6219 990.635 Q21.895 991.845 25.2052 991.845 L28.3562 991.845 L28.3562 982.201 L32.9077 982.201 L32.9077 991.845 L64.0042 991.845 L64.0042 997.733 L32.9077 997.733 L32.9077 1003.33 L28.3562 1003.33 L28.3562 997.733 L25.8736 997.733 Q19.9216 997.733 17.2162 994.964 Q14.479 992.195 14.479 986.179 L14.479 980.641 Z" fill="#000000" fill-rule="nonzero" fill-opacity="1"></path><path clip-path="url(#clip490)" d="M18.2347 971.093 L28.3562 971.093 L28.3562 959.03 L32.9077 959.03 L32.9077 971.093 L52.2594 971.093 Q56.6199 971.093 57.8613 969.915 Q59.1026 968.705 59.1026 965.045 L59.1026 959.03 L64.0042 959.03 L64.0042 965.045 Q64.0042 971.825 61.4897 974.403 Q58.9434 976.981 52.2594 976.981 L32.9077 976.981 L32.9077 981.278 L28.3562 981.278 L28.3562 976.981 L18.2347 976.981 L18.2347 971.093 Z" fill="#000000" fill-rule="nonzero" fill-opacity="1"></path><path clip-path="url(#clip490)" d="M29.7248 904.953 L35.1993 904.953 Q33.8307 907.436 33.1623 909.95 Q32.4621 912.433 32.4621 914.979 Q32.4621 920.676 36.0905 923.827 Q39.6872 926.978 46.212 926.978 Q52.7369 926.978 56.3653 923.827 Q59.9619 920.676 59.9619 914.979 Q59.9619 912.433 59.2935 909.95 Q58.5933 907.436 57.2247 904.953 L62.6355 904.953 Q63.7814 907.404 64.3543 910.045 Q64.9272 912.655 64.9272 915.615 Q64.9272 923.668 59.8664 928.411 Q54.8057 933.153 46.212 933.153 Q37.491 933.153 32.4939 928.379 Q27.4968 923.573 27.4968 915.233 Q27.4968 912.528 28.0697 909.95 Q28.6108 907.372 29.7248 904.953 Z" fill="#000000" fill-rule="nonzero" fill-opacity="1"></path><path clip-path="url(#clip490)" d="M32.4621 880.954 Q32.4621 885.665 36.1542 888.402 Q39.8145 891.139 46.212 891.139 Q52.6095 891.139 56.3017 888.434 Q59.9619 885.697 59.9619 880.954 Q59.9619 876.275 56.2698 873.538 Q52.5777 870.801 46.212 870.801 Q39.8781 870.801 36.186 873.538 Q32.4621 876.275 32.4621 880.954 M27.4968 880.954 Q27.4968 873.315 32.4621 868.955 Q37.4273 864.594 46.212 864.594 Q54.9649 864.594 59.9619 868.955 Q64.9272 873.315 64.9272 880.954 Q64.9272 888.625 59.9619 892.985 Q54.9649 897.314 46.212 897.314 Q37.4273 897.314 32.4621 892.985 Q27.4968 888.625 27.4968 880.954 Z" fill="#000000" fill-rule="nonzero" fill-opacity="1"></path><path clip-path="url(#clip490)" d="M44.7161 824.395 L47.5806 824.395 L47.5806 851.322 Q53.6281 850.94 56.8109 847.693 Q59.9619 844.415 59.9619 838.59 Q59.9619 835.217 59.1344 832.066 Q58.3069 828.883 56.6518 825.763 L62.1899 825.763 Q63.5267 828.915 64.227 832.225 Q64.9272 835.535 64.9272 838.941 Q64.9272 847.471 59.9619 852.468 Q54.9967 857.433 46.5303 857.433 Q37.7774 857.433 32.6531 852.722 Q27.4968 847.98 27.4968 839.959 Q27.4968 832.766 32.1438 828.596 Q36.7589 824.395 44.7161 824.395 M42.9973 830.251 Q38.1912 830.315 35.3266 832.957 Q32.4621 835.567 32.4621 839.895 Q32.4621 844.797 35.2312 847.757 Q38.0002 850.685 43.0292 851.131 L42.9973 830.251 Z" fill="#000000" fill-rule="nonzero" fill-opacity="1"></path><path clip-path="url(#clip490)" d="M14.479 796.736 L19.3487 796.736 L19.3487 802.338 Q19.3487 805.489 20.6219 806.73 Q21.895 807.94 25.2052 807.94 L28.3562 807.94 L28.3562 798.295 L32.9077 798.295 L32.9077 807.94 L64.0042 807.94 L64.0042 813.828 L32.9077 813.828 L32.9077 819.43 L28.3562 819.43 L28.3562 813.828 L25.8736 813.828 Q19.9216 813.828 17.2162 811.059 Q14.479 808.29 14.479 802.274 L14.479 796.736 Z" fill="#000000" fill-rule="nonzero" fill-opacity="1"></path><path clip-path="url(#clip490)" d="M14.479 773.787 L19.3487 773.787 L19.3487 779.389 Q19.3487 782.54 20.6219 783.782 Q21.895 784.991 25.2052 784.991 L28.3562 784.991 L28.3562 775.347 L32.9077 775.347 L32.9077 784.991 L64.0042 784.991 L64.0042 790.879 L32.9077 790.879 L32.9077 796.481 L28.3562 796.481 L28.3562 790.879 L25.8736 790.879 Q19.9216 790.879 17.2162 788.11 Q14.479 785.341 14.479 779.326 L14.479 773.787 Z" fill="#000000" fill-rule="nonzero" fill-opacity="1"></path><path clip-path="url(#clip490)" d="M28.3562 768.886 L28.3562 763.029 L64.0042 763.029 L64.0042 768.886 L28.3562 768.886 M14.479 768.886 L14.479 763.029 L21.895 763.029 L21.895 768.886 L14.479 768.886 Z" fill="#000000" fill-rule="nonzero" fill-opacity="1"></path><path clip-path="url(#clip490)" d="M29.7248 725.122 L35.1993 725.122 Q33.8307 727.604 33.1623 730.119 Q32.4621 732.601 32.4621 735.148 Q32.4621 740.845 36.0905 743.996 Q39.6872 747.147 46.212 747.147 Q52.7369 747.147 56.3653 743.996 Q59.9619 740.845 59.9619 735.148 Q59.9619 732.601 59.2935 730.119 Q58.5933 727.604 57.2247 725.122 L62.6355 725.122 Q63.7814 727.572 64.3543 730.214 Q64.9272 732.824 64.9272 735.784 Q64.9272 743.837 59.8664 748.579 Q54.8057 753.322 46.212 753.322 Q37.491 753.322 32.4939 748.547 Q27.4968 743.741 27.4968 735.402 Q27.4968 732.697 28.0697 730.119 Q28.6108 727.541 29.7248 725.122 Z" fill="#000000" fill-rule="nonzero" fill-opacity="1"></path><path clip-path="url(#clip490)" d="M28.3562 714.937 L28.3562 709.08 L64.0042 709.08 L64.0042 714.937 L28.3562 714.937 M14.479 714.937 L14.479 709.08 L21.895 709.08 L21.895 714.937 L14.479 714.937 Z" fill="#000000" fill-rule="nonzero" fill-opacity="1"></path><path clip-path="url(#clip490)" d="M44.7161 666.334 L47.5806 666.334 L47.5806 693.261 Q53.6281 692.879 56.8109 689.633 Q59.9619 686.355 59.9619 680.53 Q59.9619 677.156 59.1344 674.005 Q58.3069 670.822 56.6518 667.703 L62.1899 667.703 Q63.5267 670.854 64.227 674.164 Q64.9272 677.474 64.9272 680.88 Q64.9272 689.41 59.9619 694.407 Q54.9967 699.372 46.5303 699.372 Q37.7774 699.372 32.6531 694.662 Q27.4968 689.919 27.4968 681.899 Q27.4968 674.705 32.1438 670.536 Q36.7589 666.334 44.7161 666.334 M42.9973 672.191 Q38.1912 672.254 35.3266 674.896 Q32.4621 677.506 32.4621 681.835 Q32.4621 686.736 35.2312 689.697 Q38.0002 692.625 43.0292 693.07 L42.9973 672.191 Z" fill="#000000" fill-rule="nonzero" fill-opacity="1"></path><path clip-path="url(#clip490)" d="M42.4881 627.09 L64.0042 627.09 L64.0042 632.946 L42.679 632.946 Q37.6183 632.946 35.1038 634.92 Q32.5894 636.893 32.5894 640.84 Q32.5894 645.582 35.6131 648.319 Q38.6368 651.057 43.8567 651.057 L64.0042 651.057 L64.0042 656.945 L28.3562 656.945 L28.3562 651.057 L33.8944 651.057 Q30.6797 648.956 29.0883 646.123 Q27.4968 643.259 27.4968 639.535 Q27.4968 633.392 31.3163 630.241 Q35.1038 627.09 42.4881 627.09 Z" fill="#000000" fill-rule="nonzero" fill-opacity="1"></path><path clip-path="url(#clip490)" d="M18.2347 609.616 L28.3562 609.616 L28.3562 597.553 L32.9077 597.553 L32.9077 609.616 L52.2594 609.616 Q56.6199 609.616 57.8613 608.438 Q59.1026 607.229 59.1026 603.569 L59.1026 597.553 L64.0042 597.553 L64.0042 603.569 Q64.0042 610.348 61.4897 612.926 Q58.9434 615.504 52.2594 615.504 L32.9077 615.504 L32.9077 619.801 L28.3562 619.801 L28.3562 615.504 L18.2347 615.504 L18.2347 609.616 Z" fill="#000000" fill-rule="nonzero" fill-opacity="1"></path><path clip-path="url(#clip490)" d="M20.1444 533.291 L26.9239 533.291 Q23.9002 536.538 22.4043 540.23 Q20.9083 543.89 20.9083 548.028 Q20.9083 556.176 25.9054 560.504 Q30.8707 564.833 40.2919 564.833 Q49.6813 564.833 54.6784 560.504 Q59.6436 556.176 59.6436 548.028 Q59.6436 543.89 58.1477 540.23 Q56.6518 536.538 53.6281 533.291 L60.3439 533.291 Q62.6355 536.665 63.7814 540.453 Q64.9272 544.208 64.9272 548.41 Q64.9272 559.2 58.3387 565.406 Q51.7183 571.613 40.2919 571.613 Q28.8336 571.613 22.2451 565.406 Q15.6248 559.2 15.6248 548.41 Q15.6248 544.145 16.7706 540.389 Q17.8846 536.601 20.1444 533.291 Z" fill="#000000" fill-rule="nonzero" fill-opacity="1"></path><path clip-path="url(#clip490)" d="M16.4842 523.361 L16.4842 516.931 L58.5933 516.931 L58.5933 493.792 L64.0042 493.792 L64.0042 523.361 L16.4842 523.361 Z" fill="#000000" fill-rule="nonzero" fill-opacity="1"></path><path clip-path="url(#clip490)" d="M795.211 20.1573 L784.112 50.2555 L806.351 50.2555 L795.211 20.1573 M790.593 12.096 L799.87 12.096 L822.919 72.576 L814.413 72.576 L808.903 57.061 L781.641 57.061 L776.132 72.576 L767.503 72.576 L790.593 12.096 Z" fill="#000000" fill-rule="nonzero" fill-opacity="1"></path><path clip-path="url(#clip490)" d="M831.426 27.2059 L838.88 27.2059 L838.88 72.576 L831.426 72.576 L831.426 27.2059 M831.426 9.54393 L838.88 9.54393 L838.88 18.9825 L831.426 18.9825 L831.426 9.54393 Z" fill="#000000" fill-rule="nonzero" fill-opacity="1"></path><path clip-path="url(#clip490)" d="M880.766 34.1734 Q879.511 33.4443 878.012 33.1202 Q876.553 32.7556 874.771 32.7556 Q868.452 32.7556 865.049 36.8875 Q861.687 40.9789 861.687 48.6757 L861.687 72.576 L854.192 72.576 L854.192 27.2059 L861.687 27.2059 L861.687 34.2544 Q864.036 30.1225 867.803 28.1376 Q871.571 26.1121 876.959 26.1121 Q877.728 26.1121 878.66 26.2337 Q879.592 26.3147 880.726 26.5172 L880.766 34.1734 Z" fill="#000000" fill-rule="nonzero" fill-opacity="1"></path><path clip-path="url(#clip490)" d="M911.553 9.54393 L911.553 15.7418 L904.424 15.7418 Q900.413 15.7418 898.833 17.3622 Q897.294 18.9825 897.294 23.1955 L897.294 27.2059 L909.568 27.2059 L909.568 32.9987 L897.294 32.9987 L897.294 72.576 L889.8 72.576 L889.8 32.9987 L882.67 32.9987 L882.67 27.2059 L889.8 27.2059 L889.8 24.0462 Q889.8 16.471 893.324 13.0277 Q896.848 9.54393 904.505 9.54393 L911.553 9.54393 Z" fill="#000000" fill-rule="nonzero" fill-opacity="1"></path><path clip-path="url(#clip490)" d="M935.373 32.4315 Q929.377 32.4315 925.893 37.1306 Q922.41 41.7891 922.41 49.9314 Q922.41 58.0738 925.853 62.7728 Q929.337 67.4314 935.373 67.4314 Q941.327 67.4314 944.811 62.7323 Q948.295 58.0333 948.295 49.9314 Q948.295 41.8701 944.811 37.1711 Q941.327 32.4315 935.373 32.4315 M935.373 26.1121 Q945.095 26.1121 950.644 32.4315 Q956.194 38.7509 956.194 49.9314 Q956.194 61.0714 950.644 67.4314 Q945.095 73.7508 935.373 73.7508 Q925.61 73.7508 920.06 67.4314 Q914.551 61.0714 914.551 49.9314 Q914.551 38.7509 920.06 32.4315 Q925.61 26.1121 935.373 26.1121 Z" fill="#000000" fill-rule="nonzero" fill-opacity="1"></path><path clip-path="url(#clip490)" d="M968.549 27.2059 L976.003 27.2059 L976.003 72.576 L968.549 72.576 L968.549 27.2059 M968.549 9.54393 L976.003 9.54393 L976.003 18.9825 L968.549 18.9825 L968.549 9.54393 Z" fill="#000000" fill-rule="nonzero" fill-opacity="1"></path><path clip-path="url(#clip490)" d="M991.599 9.54393 L999.053 9.54393 L999.053 72.576 L991.599 72.576 L991.599 9.54393 Z" fill="#000000" fill-rule="nonzero" fill-opacity="1"></path><path clip-path="url(#clip490)" d="M1043.57 28.5427 L1043.57 35.5912 Q1040.41 33.9709 1037.01 33.1607 Q1033.61 32.3505 1029.96 32.3505 Q1024.41 32.3505 1021.62 34.0519 Q1018.86 35.7533 1018.86 39.156 Q1018.86 41.7486 1020.85 43.2475 Q1022.83 44.7058 1028.83 46.0426 L1031.38 46.6097 Q1039.32 48.3111 1042.64 51.4303 Q1046 54.509 1046 60.0587 Q1046 66.3781 1040.98 70.0644 Q1036 73.7508 1027.25 73.7508 Q1023.6 73.7508 1019.63 73.0216 Q1015.7 72.3329 1011.33 70.9151 L1011.33 63.2184 Q1015.46 65.3654 1019.47 66.4591 Q1023.48 67.5124 1027.41 67.5124 Q1032.68 67.5124 1035.51 65.73 Q1038.35 63.9071 1038.35 60.6258 Q1038.35 57.5877 1036.28 55.9673 Q1034.26 54.3469 1027.33 52.8481 L1024.74 52.2405 Q1017.81 50.7821 1014.73 47.7845 Q1011.65 44.7463 1011.65 39.4801 Q1011.65 33.0797 1016.19 29.5959 Q1020.73 26.1121 1029.07 26.1121 Q1033.2 26.1121 1036.85 26.7198 Q1040.49 27.3274 1043.57 28.5427 Z" fill="#000000" fill-rule="nonzero" fill-opacity="1"></path><path clip-path="url(#clip490)" d="M1091.45 65.7705 L1091.45 89.8329 L1083.96 89.8329 L1083.96 27.2059 L1091.45 27.2059 L1091.45 34.0924 Q1093.8 30.0415 1097.37 28.0971 Q1100.97 26.1121 1105.96 26.1121 Q1114.22 26.1121 1119.36 32.6746 Q1124.55 39.2371 1124.55 49.9314 Q1124.55 60.6258 1119.36 67.1883 Q1114.22 73.7508 1105.96 73.7508 Q1100.97 73.7508 1097.37 71.8063 Q1093.8 69.8214 1091.45 65.7705 M1116.81 49.9314 Q1116.81 41.7081 1113.41 37.0496 Q1110.05 32.3505 1104.13 32.3505 Q1098.22 32.3505 1094.82 37.0496 Q1091.45 41.7081 1091.45 49.9314 Q1091.45 58.1548 1094.82 62.8538 Q1098.22 67.5124 1104.13 67.5124 Q1110.05 67.5124 1113.41 62.8538 Q1116.81 58.1548 1116.81 49.9314 Z" fill="#000000" fill-rule="nonzero" fill-opacity="1"></path><path clip-path="url(#clip490)" d="M1154.49 32.4315 Q1148.49 32.4315 1145.01 37.1306 Q1141.52 41.7891 1141.52 49.9314 Q1141.52 58.0738 1144.97 62.7728 Q1148.45 67.4314 1154.49 67.4314 Q1160.44 67.4314 1163.92 62.7323 Q1167.41 58.0333 1167.41 49.9314 Q1167.41 41.8701 1163.92 37.1711 Q1160.44 32.4315 1154.49 32.4315 M1154.49 26.1121 Q1164.21 26.1121 1169.76 32.4315 Q1175.31 38.7509 1175.31 49.9314 Q1175.31 61.0714 1169.76 67.4314 Q1164.21 73.7508 1154.49 73.7508 Q1144.72 73.7508 1139.17 67.4314 Q1133.66 61.0714 1133.66 49.9314 Q1133.66 38.7509 1139.17 32.4315 Q1144.72 26.1121 1154.49 26.1121 Z" fill="#000000" fill-rule="nonzero" fill-opacity="1"></path><path clip-path="url(#clip490)" d="M1187.66 9.54393 L1195.12 9.54393 L1195.12 72.576 L1187.66 72.576 L1187.66 9.54393 Z" fill="#000000" fill-rule="nonzero" fill-opacity="1"></path><path clip-path="url(#clip490)" d="M1231.33 49.7694 Q1222.3 49.7694 1218.81 51.8354 Q1215.33 53.9013 1215.33 58.8839 Q1215.33 62.8538 1217.92 65.2034 Q1220.56 67.5124 1225.05 67.5124 Q1231.25 67.5124 1234.98 63.1374 Q1238.74 58.7219 1238.74 51.4303 L1238.74 49.7694 L1231.33 49.7694 M1246.2 46.6907 L1246.2 72.576 L1238.74 72.576 L1238.74 65.6895 Q1236.19 69.8214 1232.38 71.8063 Q1228.58 73.7508 1223.07 73.7508 Q1216.1 73.7508 1211.97 69.8619 Q1207.88 65.9325 1207.88 59.3701 Q1207.88 51.7138 1212.98 47.825 Q1218.13 43.9361 1228.29 43.9361 L1238.74 43.9361 L1238.74 43.2069 Q1238.74 38.0623 1235.34 35.2672 Q1231.98 32.4315 1225.86 32.4315 Q1221.97 32.4315 1218.29 33.3632 Q1214.6 34.295 1211.2 36.1584 L1211.2 29.2718 Q1215.29 27.692 1219.14 26.9223 Q1222.99 26.1121 1226.63 26.1121 Q1236.48 26.1121 1241.34 31.2163 Q1246.2 36.3204 1246.2 46.6907 Z" fill="#000000" fill-rule="nonzero" fill-opacity="1"></path><path clip-path="url(#clip490)" d="M1287.84 34.1734 Q1286.59 33.4443 1285.09 33.1202 Q1283.63 32.7556 1281.85 32.7556 Q1275.53 32.7556 1272.12 36.8875 Q1268.76 40.9789 1268.76 48.6757 L1268.76 72.576 L1261.27 72.576 L1261.27 27.2059 L1268.76 27.2059 L1268.76 34.2544 Q1271.11 30.1225 1274.88 28.1376 Q1278.65 26.1121 1284.03 26.1121 Q1284.8 26.1121 1285.74 26.2337 Q1286.67 26.3147 1287.8 26.5172 L1287.84 34.1734 Z" fill="#000000" fill-rule="nonzero" fill-opacity="1"></path><path clip-path="url(#clip490)" d="M1324.58 28.5427 L1324.58 35.5912 Q1321.42 33.9709 1318.02 33.1607 Q1314.62 32.3505 1310.97 32.3505 Q1305.42 32.3505 1302.63 34.0519 Q1299.87 35.7533 1299.87 39.156 Q1299.87 41.7486 1301.86 43.2475 Q1303.84 44.7058 1309.84 46.0426 L1312.39 46.6097 Q1320.33 48.3111 1323.65 51.4303 Q1327.01 54.509 1327.01 60.0587 Q1327.01 66.3781 1321.99 70.0644 Q1317.01 73.7508 1308.26 73.7508 Q1304.61 73.7508 1300.64 73.0216 Q1296.71 72.3329 1292.34 70.9151 L1292.34 63.2184 Q1296.47 65.3654 1300.48 66.4591 Q1304.49 67.5124 1308.42 67.5124 Q1313.69 67.5124 1316.52 65.73 Q1319.36 63.9071 1319.36 60.6258 Q1319.36 57.5877 1317.29 55.9673 Q1315.27 54.3469 1308.34 52.8481 L1305.75 52.2405 Q1298.82 50.7821 1295.74 47.7845 Q1292.66 44.7463 1292.66 39.4801 Q1292.66 33.0797 1297.2 29.5959 Q1301.74 26.1121 1310.08 26.1121 Q1314.21 26.1121 1317.86 26.7198 Q1321.5 27.3274 1324.58 28.5427 Z" fill="#000000" fill-rule="nonzero" fill-opacity="1"></path><path clip-path="url(#clip490)" d="M1397.9 28.9478 L1397.9 35.9153 Q1394.75 34.1734 1391.54 33.3227 Q1388.39 32.4315 1385.14 32.4315 Q1377.89 32.4315 1373.88 37.0496 Q1369.87 41.6271 1369.87 49.9314 Q1369.87 58.2358 1373.88 62.8538 Q1377.89 67.4314 1385.14 67.4314 Q1388.39 67.4314 1391.54 66.5807 Q1394.75 65.6895 1397.9 63.9476 L1397.9 70.8341 Q1394.79 72.2924 1391.42 73.0216 Q1388.1 73.7508 1384.33 73.7508 Q1374.09 73.7508 1368.05 67.3098 Q1362.01 60.8689 1362.01 49.9314 Q1362.01 38.832 1368.09 32.472 Q1374.21 26.1121 1384.82 26.1121 Q1388.26 26.1121 1391.54 26.8413 Q1394.83 27.5299 1397.9 28.9478 Z" fill="#000000" fill-rule="nonzero" fill-opacity="1"></path><path clip-path="url(#clip490)" d="M1428.45 32.4315 Q1422.45 32.4315 1418.97 37.1306 Q1415.49 41.7891 1415.49 49.9314 Q1415.49 58.0738 1418.93 62.7728 Q1422.41 67.4314 1428.45 67.4314 Q1434.4 67.4314 1437.89 62.7323 Q1441.37 58.0333 1441.37 49.9314 Q1441.37 41.8701 1437.89 37.1711 Q1434.4 32.4315 1428.45 32.4315 M1428.45 26.1121 Q1438.17 26.1121 1443.72 32.4315 Q1449.27 38.7509 1449.27 49.9314 Q1449.27 61.0714 1443.72 67.4314 Q1438.17 73.7508 1428.45 73.7508 Q1418.69 73.7508 1413.14 67.4314 Q1407.63 61.0714 1407.63 49.9314 Q1407.63 38.7509 1413.14 32.4315 Q1418.69 26.1121 1428.45 26.1121 Z" fill="#000000" fill-rule="nonzero" fill-opacity="1"></path><path clip-path="url(#clip490)" d="M1496.95 35.9153 Q1499.74 30.8922 1503.63 28.5022 Q1507.52 26.1121 1512.79 26.1121 Q1519.88 26.1121 1523.73 31.0947 Q1527.57 36.0368 1527.57 45.1919 L1527.57 72.576 L1520.08 72.576 L1520.08 45.4349 Q1520.08 38.913 1517.77 35.7533 Q1515.46 32.5936 1510.72 32.5936 Q1504.93 32.5936 1501.57 36.4419 Q1498.21 40.2903 1498.21 46.9338 L1498.21 72.576 L1490.71 72.576 L1490.71 45.4349 Q1490.71 38.8725 1488.4 35.7533 Q1486.09 32.5936 1481.27 32.5936 Q1475.56 32.5936 1472.2 36.4824 Q1468.84 40.3308 1468.84 46.9338 L1468.84 72.576 L1461.34 72.576 L1461.34 27.2059 L1468.84 27.2059 L1468.84 34.2544 Q1471.39 30.082 1474.95 28.0971 Q1478.52 26.1121 1483.42 26.1121 Q1488.36 26.1121 1491.8 28.6237 Q1495.29 31.1352 1496.95 35.9153 Z" fill="#000000" fill-rule="nonzero" fill-opacity="1"></path><path clip-path="url(#clip490)" d="M1549.65 65.7705 L1549.65 89.8329 L1542.16 89.8329 L1542.16 27.2059 L1549.65 27.2059 L1549.65 34.0924 Q1552 30.0415 1555.57 28.0971 Q1559.17 26.1121 1564.15 26.1121 Q1572.42 26.1121 1577.56 32.6746 Q1582.75 39.2371 1582.75 49.9314 Q1582.75 60.6258 1577.56 67.1883 Q1572.42 73.7508 1564.15 73.7508 Q1559.17 73.7508 1555.57 71.8063 Q1552 69.8214 1549.65 65.7705 M1575.01 49.9314 Q1575.01 41.7081 1571.61 37.0496 Q1568.25 32.3505 1562.33 32.3505 Q1556.42 32.3505 1553.01 37.0496 Q1549.65 41.7081 1549.65 49.9314 Q1549.65 58.1548 1553.01 62.8538 Q1556.42 67.5124 1562.33 67.5124 Q1568.25 67.5124 1571.61 62.8538 Q1575.01 58.1548 1575.01 49.9314 Z" fill="#000000" fill-rule="nonzero" fill-opacity="1"></path><path clip-path="url(#clip490)" d="M1615.72 49.7694 Q1606.69 49.7694 1603.2 51.8354 Q1599.72 53.9013 1599.72 58.8839 Q1599.72 62.8538 1602.31 65.2034 Q1604.95 67.5124 1609.44 67.5124 Q1615.64 67.5124 1619.37 63.1374 Q1623.14 58.7219 1623.14 51.4303 L1623.14 49.7694 L1615.72 49.7694 M1630.59 46.6907 L1630.59 72.576 L1623.14 72.576 L1623.14 65.6895 Q1620.58 69.8214 1616.78 71.8063 Q1612.97 73.7508 1607.46 73.7508 Q1600.49 73.7508 1596.36 69.8619 Q1592.27 65.9325 1592.27 59.3701 Q1592.27 51.7138 1597.37 47.825 Q1602.52 43.9361 1612.68 43.9361 L1623.14 43.9361 L1623.14 43.2069 Q1623.14 38.0623 1619.73 35.2672 Q1616.37 32.4315 1610.25 32.4315 Q1606.36 32.4315 1602.68 33.3632 Q1598.99 34.295 1595.59 36.1584 L1595.59 29.2718 Q1599.68 27.692 1603.53 26.9223 Q1607.38 26.1121 1611.02 26.1121 Q1620.87 26.1121 1625.73 31.2163 Q1630.59 36.3204 1630.59 46.6907 Z" fill="#000000" fill-rule="nonzero" fill-opacity="1"></path><path clip-path="url(#clip490)" d="M1672.23 34.1734 Q1670.98 33.4443 1669.48 33.1202 Q1668.02 32.7556 1666.24 32.7556 Q1659.92 32.7556 1656.51 36.8875 Q1653.15 40.9789 1653.15 48.6757 L1653.15 72.576 L1645.66 72.576 L1645.66 27.2059 L1653.15 27.2059 L1653.15 34.2544 Q1655.5 30.1225 1659.27 28.1376 Q1663.04 26.1121 1668.42 26.1121 Q1669.19 26.1121 1670.13 26.2337 Q1671.06 26.3147 1672.19 26.5172 L1672.23 34.1734 Z" fill="#000000" fill-rule="nonzero" fill-opacity="1"></path><path clip-path="url(#clip490)" d="M1680.05 27.2059 L1687.5 27.2059 L1687.5 72.576 L1680.05 72.576 L1680.05 27.2059 M1680.05 9.54393 L1687.5 9.54393 L1687.5 18.9825 L1680.05 18.9825 L1680.05 9.54393 Z" fill="#000000" fill-rule="nonzero" fill-opacity="1"></path><path clip-path="url(#clip490)" d="M1732.02 28.5427 L1732.02 35.5912 Q1728.86 33.9709 1725.46 33.1607 Q1722.06 32.3505 1718.41 32.3505 Q1712.86 32.3505 1710.07 34.0519 Q1707.31 35.7533 1707.31 39.156 Q1707.31 41.7486 1709.3 43.2475 Q1711.28 44.7058 1717.28 46.0426 L1719.83 46.6097 Q1727.77 48.3111 1731.09 51.4303 Q1734.45 54.509 1734.45 60.0587 Q1734.45 66.3781 1729.43 70.0644 Q1724.45 73.7508 1715.7 73.7508 Q1712.05 73.7508 1708.08 73.0216 Q1704.15 72.3329 1699.78 70.9151 L1699.78 63.2184 Q1703.91 65.3654 1707.92 66.4591 Q1711.93 67.5124 1715.86 67.5124 Q1721.13 67.5124 1723.96 65.73 Q1726.8 63.9071 1726.8 60.6258 Q1726.8 57.5877 1724.73 55.9673 Q1722.71 54.3469 1715.78 52.8481 L1713.19 52.2405 Q1706.26 50.7821 1703.18 47.7845 Q1700.1 44.7463 1700.1 39.4801 Q1700.1 33.0797 1704.64 29.5959 Q1709.18 26.1121 1717.52 26.1121 Q1721.65 26.1121 1725.3 26.7198 Q1728.94 27.3274 1732.02 28.5427 Z" fill="#000000" fill-rule="nonzero" fill-opacity="1"></path><path clip-path="url(#clip490)" d="M1763.9 32.4315 Q1757.91 32.4315 1754.42 37.1306 Q1750.94 41.7891 1750.94 49.9314 Q1750.94 58.0738 1754.38 62.7728 Q1757.87 67.4314 1763.9 67.4314 Q1769.86 67.4314 1773.34 62.7323 Q1776.83 58.0333 1776.83 49.9314 Q1776.83 41.8701 1773.34 37.1711 Q1769.86 32.4315 1763.9 32.4315 M1763.9 26.1121 Q1773.63 26.1121 1779.18 32.4315 Q1784.73 38.7509 1784.73 49.9314 Q1784.73 61.0714 1779.18 67.4314 Q1773.63 73.7508 1763.9 73.7508 Q1754.14 73.7508 1748.59 67.4314 Q1743.08 61.0714 1743.08 49.9314 Q1743.08 38.7509 1748.59 32.4315 Q1754.14 26.1121 1763.9 26.1121 Z" fill="#000000" fill-rule="nonzero" fill-opacity="1"></path><path clip-path="url(#clip490)" d="M1834.79 45.1919 L1834.79 72.576 L1827.34 72.576 L1827.34 45.4349 Q1827.34 38.994 1824.83 35.7938 Q1822.32 32.5936 1817.29 32.5936 Q1811.26 32.5936 1807.78 36.4419 Q1804.29 40.2903 1804.29 46.9338 L1804.29 72.576 L1796.8 72.576 L1796.8 27.2059 L1804.29 27.2059 L1804.29 34.2544 Q1806.97 30.163 1810.57 28.1376 Q1814.22 26.1121 1818.96 26.1121 Q1826.77 26.1121 1830.78 30.9732 Q1834.79 35.7938 1834.79 45.1919 Z" fill="#000000" fill-rule="nonzero" fill-opacity="1"></path><polyline clip-path="url(#clip492)" style="stroke:#009af9; stroke-linecap:round; stroke-linejoin:round; stroke-width:4; stroke-opacity:1; fill:none" points="440.434,1324.56 427.011,1268.05 417.527,1209.74 392.355,1160.04 364.236,1115.5 360.704,983.162 374.939,906.382 381.663,857.032 394.946,809.963 412,760.128 420.98,708.97 435.237,659.978 458.805,610.541 469.181,558.835 479.059,509.861 505.247,467.139 517.012,415.854 534.259,368.82 563.463,329.107 590.653,287.541 629.264,256.616 683.952,234.034 762.568,219.046 855.395,206.66 945.525,190.357 1061.29,181.748 1148.13,160.256 1332,167.119 1530.31,171.315 1742.26,175.436 1968.39,181.618 2202.77,182.997 2478.29,185.597 2809.26,193.532 3219.53,214.116 "></polyline>
<polyline clip-path="url(#clip492)" style="stroke:#e26f46; stroke-linecap:round; stroke-linejoin:round; stroke-width:4; stroke-opacity:1; fill:none" points="422.736,1386.4 396.688,1331.79 370.651,1280.26 353.86,1217.35 344.273,1159.84 348.712,1044.94 357.332,951.335 364.574,863.643 372.019,819.467 383.022,776.878 394.96,731.007 409.19,687.923 424.895,643.246 448.262,608.29 478.038,578.704 537.009,563.031 592.872,539.432 640.316,508.53 686.741,475.113 734.417,441.776 785.274,408.667 832.187,374.44 883.461,341.346 915.498,300.349 970.304,268.305 1032.14,237.953 1130.03,221.668 1218.82,198.899 1339.95,184.32 1495.47,177.35 1680.97,176.474 1891.37,181.232 2145.07,189.679 2437.37,198.657 2749.6,207.132 "></polyline>
<path clip-path="url(#clip490)" d="M1812.42 1379.86 L2282.65 1379.86 L2282.65 1224.34 L1812.42 1224.34  Z" fill="#ffffff" fill-rule="evenodd" fill-opacity="1"></path>
<polyline clip-path="url(#clip490)" style="stroke:#000000; stroke-linecap:round; stroke-linejoin:round; stroke-width:4; stroke-opacity:1; fill:none" points="1812.42,1379.86 2282.65,1379.86 2282.65,1224.34 1812.42,1224.34 1812.42,1379.86 "></polyline>
<polyline clip-path="url(#clip490)" style="stroke:#009af9; stroke-linecap:round; stroke-linejoin:round; stroke-width:4; stroke-opacity:1; fill:none" points="1835.79,1276.18 1976,1276.18 "></polyline>
<path clip-path="url(#clip490)" d="M1999.37 1258.9 L2005.67 1258.9 L2020.99 1287.81 L2020.99 1258.9 L2025.53 1258.9 L2025.53 1293.46 L2019.23 1293.46 L2003.91 1264.54 L2003.91 1293.46 L1999.37 1293.46 L1999.37 1258.9 Z" fill="#000000" fill-rule="nonzero" fill-opacity="1"></path><path clip-path="url(#clip490)" d="M2046.39 1263.5 L2040.04 1280.7 L2052.75 1280.7 L2046.39 1263.5 M2043.75 1258.9 L2049.05 1258.9 L2062.22 1293.46 L2057.36 1293.46 L2054.21 1284.59 L2038.63 1284.59 L2035.48 1293.46 L2030.55 1293.46 L2043.75 1258.9 Z" fill="#000000" fill-rule="nonzero" fill-opacity="1"></path><path clip-path="url(#clip490)" d="M2092.31 1261.56 L2092.31 1266.49 Q2089.95 1264.29 2087.27 1263.2 Q2084.6 1262.11 2081.6 1262.11 Q2075.67 1262.11 2072.52 1265.75 Q2069.37 1269.36 2069.37 1276.21 Q2069.37 1283.04 2072.52 1286.67 Q2075.67 1290.28 2081.6 1290.28 Q2084.6 1290.28 2087.27 1289.2 Q2089.95 1288.11 2092.31 1285.91 L2092.31 1290.79 Q2089.86 1292.46 2087.1 1293.29 Q2084.37 1294.13 2081.32 1294.13 Q2073.47 1294.13 2068.96 1289.34 Q2064.44 1284.52 2064.44 1276.21 Q2064.44 1267.88 2068.96 1263.09 Q2073.47 1258.27 2081.32 1258.27 Q2084.42 1258.27 2087.15 1259.1 Q2089.91 1259.91 2092.31 1261.56 Z" fill="#000000" fill-rule="nonzero" fill-opacity="1"></path><path clip-path="url(#clip490)" d="M2111.09 1263.5 L2104.74 1280.7 L2117.45 1280.7 L2111.09 1263.5 M2108.45 1258.9 L2113.75 1258.9 L2126.92 1293.46 L2122.06 1293.46 L2118.91 1284.59 L2103.33 1284.59 L2100.18 1293.46 L2095.25 1293.46 L2108.45 1258.9 Z" fill="#000000" fill-rule="nonzero" fill-opacity="1"></path><path clip-path="url(#clip490)" d="M2128.59 1278.57 L2141.06 1278.57 L2141.06 1282.37 L2128.59 1282.37 L2128.59 1278.57 Z" fill="#000000" fill-rule="nonzero" fill-opacity="1"></path><path clip-path="url(#clip490)" d="M2161.29 1262.97 L2149.49 1281.42 L2161.29 1281.42 L2161.29 1262.97 M2160.07 1258.9 L2165.95 1258.9 L2165.95 1281.42 L2170.88 1281.42 L2170.88 1285.31 L2165.95 1285.31 L2165.95 1293.46 L2161.29 1293.46 L2161.29 1285.31 L2145.69 1285.31 L2145.69 1280.79 L2160.07 1258.9 Z" fill="#000000" fill-rule="nonzero" fill-opacity="1"></path><path clip-path="url(#clip490)" d="M2191.46 1262.97 L2179.65 1281.42 L2191.46 1281.42 L2191.46 1262.97 M2190.23 1258.9 L2196.11 1258.9 L2196.11 1281.42 L2201.04 1281.42 L2201.04 1285.31 L2196.11 1285.31 L2196.11 1293.46 L2191.46 1293.46 L2191.46 1285.31 L2175.85 1285.31 L2175.85 1280.79 L2190.23 1258.9 Z" fill="#000000" fill-rule="nonzero" fill-opacity="1"></path><path clip-path="url(#clip490)" d="M2209.58 1289.52 L2217.22 1289.52 L2217.22 1263.16 L2208.91 1264.82 L2208.91 1260.56 L2217.17 1258.9 L2221.85 1258.9 L2221.85 1289.52 L2229.49 1289.52 L2229.49 1293.46 L2209.58 1293.46 L2209.58 1289.52 Z" fill="#000000" fill-rule="nonzero" fill-opacity="1"></path><path clip-path="url(#clip490)" d="M2242.96 1289.52 L2259.28 1289.52 L2259.28 1293.46 L2237.34 1293.46 L2237.34 1289.52 Q2240 1286.77 2244.58 1282.14 Q2249.19 1277.48 2250.37 1276.14 Q2252.61 1273.62 2253.49 1271.88 Q2254.4 1270.12 2254.4 1268.43 Q2254.4 1265.68 2252.45 1263.94 Q2250.53 1262.21 2247.43 1262.21 Q2245.23 1262.21 2242.78 1262.97 Q2240.34 1263.73 2237.57 1265.29 L2237.57 1260.56 Q2240.39 1259.43 2242.84 1258.85 Q2245.3 1258.27 2247.34 1258.27 Q2252.71 1258.27 2255.9 1260.96 Q2259.09 1263.64 2259.09 1268.13 Q2259.09 1270.26 2258.28 1272.18 Q2257.5 1274.08 2255.39 1276.67 Q2254.81 1277.35 2251.71 1280.56 Q2248.61 1283.76 2242.96 1289.52 Z" fill="#000000" fill-rule="nonzero" fill-opacity="1"></path><polyline clip-path="url(#clip490)" style="stroke:#e26f46; stroke-linecap:round; stroke-linejoin:round; stroke-width:4; stroke-opacity:1; fill:none" points="1835.79,1328.02 1976,1328.02 "></polyline>
<path clip-path="url(#clip490)" d="M2015.39 1313.91 Q2010.3 1313.91 2007.29 1317.7 Q2004.3 1321.5 2004.3 1328.05 Q2004.3 1334.58 2007.29 1338.37 Q2010.3 1342.17 2015.39 1342.17 Q2020.48 1342.17 2023.45 1338.37 Q2026.43 1334.58 2026.43 1328.05 Q2026.43 1321.5 2023.45 1317.7 Q2020.48 1313.91 2015.39 1313.91 M2015.39 1310.11 Q2022.66 1310.11 2027.01 1315 Q2031.36 1319.86 2031.36 1328.05 Q2031.36 1336.22 2027.01 1341.11 Q2022.66 1345.97 2015.39 1345.97 Q2008.1 1345.97 2003.73 1341.11 Q1999.37 1336.25 1999.37 1328.05 Q1999.37 1319.86 2003.73 1315 Q2008.1 1310.11 2015.39 1310.11 Z" fill="#000000" fill-rule="nonzero" fill-opacity="1"></path><path clip-path="url(#clip490)" d="M2042.61 1341.41 L2042.61 1355.16 L2038.33 1355.16 L2038.33 1319.37 L2042.61 1319.37 L2042.61 1323.31 Q2043.96 1320.99 2045.99 1319.88 Q2048.05 1318.75 2050.9 1318.75 Q2055.62 1318.75 2058.56 1322.5 Q2061.53 1326.25 2061.53 1332.36 Q2061.53 1338.47 2058.56 1342.22 Q2055.62 1345.97 2050.9 1345.97 Q2048.05 1345.97 2045.99 1344.86 Q2043.96 1343.72 2042.61 1341.41 M2057.1 1332.36 Q2057.1 1327.66 2055.16 1325 Q2053.24 1322.31 2049.86 1322.31 Q2046.48 1322.31 2044.54 1325 Q2042.61 1327.66 2042.61 1332.36 Q2042.61 1337.06 2044.54 1339.74 Q2046.48 1342.4 2049.86 1342.4 Q2053.24 1342.4 2055.16 1339.74 Q2057.1 1337.06 2057.1 1332.36 Z" fill="#000000" fill-rule="nonzero" fill-opacity="1"></path><path clip-path="url(#clip490)" d="M2072.8 1312.01 L2072.8 1319.37 L2081.57 1319.37 L2081.57 1322.68 L2072.8 1322.68 L2072.8 1336.75 Q2072.8 1339.93 2073.66 1340.83 Q2074.54 1341.73 2077.2 1341.73 L2081.57 1341.73 L2081.57 1345.3 L2077.2 1345.3 Q2072.27 1345.3 2070.39 1343.47 Q2068.52 1341.62 2068.52 1336.75 L2068.52 1322.68 L2065.39 1322.68 L2065.39 1319.37 L2068.52 1319.37 L2068.52 1312.01 L2072.8 1312.01 Z" fill="#000000" fill-rule="nonzero" fill-opacity="1"></path><path clip-path="url(#clip490)" d="M2087.17 1319.37 L2091.43 1319.37 L2091.43 1345.3 L2087.17 1345.3 L2087.17 1319.37 M2087.17 1309.28 L2091.43 1309.28 L2091.43 1314.67 L2087.17 1314.67 L2087.17 1309.28 Z" fill="#000000" fill-rule="nonzero" fill-opacity="1"></path><path clip-path="url(#clip490)" d="M2120.53 1324.35 Q2122.13 1321.48 2124.35 1320.11 Q2126.57 1318.75 2129.58 1318.75 Q2133.63 1318.75 2135.83 1321.59 Q2138.03 1324.42 2138.03 1329.65 L2138.03 1345.3 L2133.75 1345.3 L2133.75 1329.79 Q2133.75 1326.06 2132.43 1324.25 Q2131.11 1322.45 2128.4 1322.45 Q2125.09 1322.45 2123.17 1324.65 Q2121.25 1326.85 2121.25 1330.64 L2121.25 1345.3 L2116.97 1345.3 L2116.97 1329.79 Q2116.97 1326.04 2115.65 1324.25 Q2114.33 1322.45 2111.57 1322.45 Q2108.31 1322.45 2106.39 1324.67 Q2104.47 1326.87 2104.47 1330.64 L2104.47 1345.3 L2100.18 1345.3 L2100.18 1319.37 L2104.47 1319.37 L2104.47 1323.4 Q2105.92 1321.01 2107.96 1319.88 Q2110 1318.75 2112.8 1318.75 Q2115.62 1318.75 2117.59 1320.18 Q2119.58 1321.62 2120.53 1324.35 Z" fill="#000000" fill-rule="nonzero" fill-opacity="1"></path><path clip-path="url(#clip490)" d="M2146.53 1319.37 L2150.78 1319.37 L2150.78 1345.3 L2146.53 1345.3 L2146.53 1319.37 M2146.53 1309.28 L2150.78 1309.28 L2150.78 1314.67 L2146.53 1314.67 L2146.53 1309.28 Z" fill="#000000" fill-rule="nonzero" fill-opacity="1"></path><path clip-path="url(#clip490)" d="M2157.85 1319.37 L2178.08 1319.37 L2178.08 1323.26 L2162.06 1341.89 L2178.08 1341.89 L2178.08 1345.3 L2157.27 1345.3 L2157.27 1341.41 L2173.28 1322.77 L2157.85 1322.77 L2157.85 1319.37 Z" fill="#000000" fill-rule="nonzero" fill-opacity="1"></path><path clip-path="url(#clip490)" d="M2206.76 1331.27 L2206.76 1333.35 L2187.17 1333.35 Q2187.45 1337.75 2189.81 1340.06 Q2192.2 1342.36 2196.43 1342.36 Q2198.89 1342.36 2201.18 1341.75 Q2203.49 1341.15 2205.76 1339.95 L2205.76 1343.98 Q2203.47 1344.95 2201.06 1345.46 Q2198.66 1345.97 2196.18 1345.97 Q2189.97 1345.97 2186.34 1342.36 Q2182.73 1338.75 2182.73 1332.59 Q2182.73 1326.22 2186.16 1322.5 Q2189.6 1318.75 2195.44 1318.75 Q2200.67 1318.75 2203.7 1322.13 Q2206.76 1325.48 2206.76 1331.27 M2202.5 1330.02 Q2202.45 1326.52 2200.53 1324.44 Q2198.63 1322.36 2195.48 1322.36 Q2191.92 1322.36 2189.77 1324.37 Q2187.64 1326.38 2187.31 1330.04 L2202.5 1330.02 Z" fill="#000000" fill-rule="nonzero" fill-opacity="1"></path><path clip-path="url(#clip490)" d="M2230.81 1323.31 L2230.81 1309.28 L2235.07 1309.28 L2235.07 1345.3 L2230.81 1345.3 L2230.81 1341.41 Q2229.47 1343.72 2227.4 1344.86 Q2225.37 1345.97 2222.5 1345.97 Q2217.8 1345.97 2214.84 1342.22 Q2211.9 1338.47 2211.9 1332.36 Q2211.9 1326.25 2214.84 1322.5 Q2217.8 1318.75 2222.5 1318.75 Q2225.37 1318.75 2227.4 1319.88 Q2229.47 1320.99 2230.81 1323.31 M2216.29 1332.36 Q2216.29 1337.06 2218.22 1339.74 Q2220.16 1342.4 2223.54 1342.4 Q2226.92 1342.4 2228.86 1339.74 Q2230.81 1337.06 2230.81 1332.36 Q2230.81 1327.66 2228.86 1325 Q2226.92 1322.31 2223.54 1322.31 Q2220.16 1322.31 2218.22 1325 Q2216.29 1327.66 2216.29 1332.36 Z" fill="#000000" fill-rule="nonzero" fill-opacity="1"></path></svg>