<svg xmlns="http://www.w3.org/2000/svg" xmlns:xlink="http://www.w3.org/1999/xlink" width="600" height="400" viewBox="0 0 2400 1600">
<defs>
  <clipPath id="clip840">
    <rect x="0" y="0" width="2400" height="1600"></rect>
  </clipPath>
</defs>
<path clip-path="url(#clip840)" d="M0 1600 L2400 1600 L2400 0 L0 0  Z" fill="#ffffff" fill-rule="evenodd" fill-opacity="1"></path>
<defs>
  <clipPath id="clip841">
    <rect x="480" y="0" width="1681" height="1600"></rect>
  </clipPath>
</defs>
<path clip-path="url(#clip840)" d="M256.209 1423.18 L2352.76 1423.18 L2352.76 123.472 L256.209 123.472  Z" fill="#ffffff" fill-rule="evenodd" fill-opacity="1"></path>
<defs>
  <clipPath id="clip842">
    <rect x="256" y="123" width="2098" height="1301"></rect>
  </clipPath>
</defs>
<polyline clip-path="url(#clip842)" style="stroke:#000000; stroke-linecap:round; stroke-linejoin:round; stroke-width:2; stroke-opacity:0.1; fill:none" points="315.545,123.472 315.545,1423.18 "></polyline>
<polyline clip-path="url(#clip842)" style="stroke:#000000; stroke-linecap:round; stroke-linejoin:round; stroke-width:2; stroke-opacity:0.1; fill:none" points="810.014,123.472 810.014,1423.18 "></polyline>
<polyline clip-path="url(#clip842)" style="stroke:#000000; stroke-linecap:round; stroke-linejoin:round; stroke-width:2; stroke-opacity:0.1; fill:none" points="1304.48,123.472 1304.48,1423.18 "></polyline>
<polyline clip-path="url(#clip842)" style="stroke:#000000; stroke-linecap:round; stroke-linejoin:round; stroke-width:2; stroke-opacity:0.1; fill:none" points="1798.95,123.472 1798.95,1423.18 "></polyline>
<polyline clip-path="url(#clip842)" style="stroke:#000000; stroke-linecap:round; stroke-linejoin:round; stroke-width:2; stroke-opacity:0.1; fill:none" points="2293.42,123.472 2293.42,1423.18 "></polyline>
<polyline clip-path="url(#clip840)" style="stroke:#000000; stroke-linecap:round; stroke-linejoin:round; stroke-width:4; stroke-opacity:1; fill:none" points="256.209,1423.18 2352.76,1423.18 "></polyline>
<polyline clip-path="url(#clip840)" style="stroke:#000000; stroke-linecap:round; stroke-linejoin:round; stroke-width:4; stroke-opacity:1; fill:none" points="315.545,1423.18 315.545,1404.28 "></polyline>
<polyline clip-path="url(#clip840)" style="stroke:#000000; stroke-linecap:round; stroke-linejoin:round; stroke-width:4; stroke-opacity:1; fill:none" points="810.014,1423.18 810.014,1404.28 "></polyline>
<polyline clip-path="url(#clip840)" style="stroke:#000000; stroke-linecap:round; stroke-linejoin:round; stroke-width:4; stroke-opacity:1; fill:none" points="1304.48,1423.18 1304.48,1404.28 "></polyline>
<polyline clip-path="url(#clip840)" style="stroke:#000000; stroke-linecap:round; stroke-linejoin:round; stroke-width:4; stroke-opacity:1; fill:none" points="1798.95,1423.18 1798.95,1404.28 "></polyline>
<polyline clip-path="url(#clip840)" style="stroke:#000000; stroke-linecap:round; stroke-linejoin:round; stroke-width:4; stroke-opacity:1; fill:none" points="2293.42,1423.18 2293.42,1404.28 "></polyline>
<path clip-path="url(#clip840)" d="M277.848 1454.1 Q274.237 1454.1 272.409 1457.66 Q270.603 1461.2 270.603 1468.33 Q270.603 1475.44 272.409 1479.01 Q274.237 1482.55 277.848 1482.55 Q281.483 1482.55 283.288 1479.01 Q285.117 1475.44 285.117 1468.33 Q285.117 1461.2 283.288 1457.66 Q281.483 1454.1 277.848 1454.1 M277.848 1450.39 Q283.659 1450.39 286.714 1455 Q289.793 1459.58 289.793 1468.33 Q289.793 1477.06 286.714 1481.67 Q283.659 1486.25 277.848 1486.25 Q272.038 1486.25 268.96 1481.67 Q265.904 1477.06 265.904 1468.33 Q265.904 1459.58 268.96 1455 Q272.038 1450.39 277.848 1450.39 Z" fill="#000000" fill-rule="nonzero" fill-opacity="1"></path><path clip-path="url(#clip840)" d="M298.01 1479.7 L302.895 1479.7 L302.895 1485.58 L298.01 1485.58 L298.01 1479.7 Z" fill="#000000" fill-rule="nonzero" fill-opacity="1"></path><path clip-path="url(#clip840)" d="M323.08 1454.1 Q319.468 1454.1 317.64 1457.66 Q315.834 1461.2 315.834 1468.33 Q315.834 1475.44 317.64 1479.01 Q319.468 1482.55 323.08 1482.55 Q326.714 1482.55 328.519 1479.01 Q330.348 1475.44 330.348 1468.33 Q330.348 1461.2 328.519 1457.66 Q326.714 1454.1 323.08 1454.1 M323.08 1450.39 Q328.89 1450.39 331.945 1455 Q335.024 1459.58 335.024 1468.33 Q335.024 1477.06 331.945 1481.67 Q328.89 1486.25 323.08 1486.25 Q317.269 1486.25 314.191 1481.67 Q311.135 1477.06 311.135 1468.33 Q311.135 1459.58 314.191 1455 Q317.269 1450.39 323.08 1450.39 Z" fill="#000000" fill-rule="nonzero" fill-opacity="1"></path><path clip-path="url(#clip840)" d="M353.241 1454.1 Q349.63 1454.1 347.802 1457.66 Q345.996 1461.2 345.996 1468.33 Q345.996 1475.44 347.802 1479.01 Q349.63 1482.55 353.241 1482.55 Q356.876 1482.55 358.681 1479.01 Q360.51 1475.44 360.51 1468.33 Q360.51 1461.2 358.681 1457.66 Q356.876 1454.1 353.241 1454.1 M353.241 1450.39 Q359.052 1450.39 362.107 1455 Q365.186 1459.58 365.186 1468.33 Q365.186 1477.06 362.107 1481.67 Q359.052 1486.25 353.241 1486.25 Q347.431 1486.25 344.353 1481.67 Q341.297 1477.06 341.297 1468.33 Q341.297 1459.58 344.353 1455 Q347.431 1450.39 353.241 1450.39 Z" fill="#000000" fill-rule="nonzero" fill-opacity="1"></path><path clip-path="url(#clip840)" d="M772.815 1454.1 Q769.204 1454.1 767.375 1457.66 Q765.569 1461.2 765.569 1468.33 Q765.569 1475.44 767.375 1479.01 Q769.204 1482.55 772.815 1482.55 Q776.449 1482.55 778.255 1479.01 Q780.083 1475.44 780.083 1468.33 Q780.083 1461.2 778.255 1457.66 Q776.449 1454.1 772.815 1454.1 M772.815 1450.39 Q778.625 1450.39 781.68 1455 Q784.759 1459.58 784.759 1468.33 Q784.759 1477.06 781.68 1481.67 Q778.625 1486.25 772.815 1486.25 Q767.005 1486.25 763.926 1481.67 Q760.87 1477.06 760.87 1468.33 Q760.87 1459.58 763.926 1455 Q767.005 1450.39 772.815 1450.39 Z" fill="#000000" fill-rule="nonzero" fill-opacity="1"></path><path clip-path="url(#clip840)" d="M792.977 1479.7 L797.861 1479.7 L797.861 1485.58 L792.977 1485.58 L792.977 1479.7 Z" fill="#000000" fill-rule="nonzero" fill-opacity="1"></path><path clip-path="url(#clip840)" d="M812.074 1481.64 L828.393 1481.64 L828.393 1485.58 L806.449 1485.58 L806.449 1481.64 Q809.111 1478.89 813.694 1474.26 Q818.301 1469.61 819.481 1468.27 Q821.726 1465.74 822.606 1464.01 Q823.509 1462.25 823.509 1460.56 Q823.509 1457.8 821.564 1456.07 Q819.643 1454.33 816.541 1454.33 Q814.342 1454.33 811.889 1455.09 Q809.458 1455.86 806.68 1457.41 L806.68 1452.69 Q809.504 1451.55 811.958 1450.97 Q814.412 1450.39 816.449 1450.39 Q821.819 1450.39 825.014 1453.08 Q828.208 1455.77 828.208 1460.26 Q828.208 1462.39 827.398 1464.31 Q826.611 1466.2 824.504 1468.8 Q823.926 1469.47 820.824 1472.69 Q817.722 1475.88 812.074 1481.64 Z" fill="#000000" fill-rule="nonzero" fill-opacity="1"></path><path clip-path="url(#clip840)" d="M838.254 1451.02 L856.611 1451.02 L856.611 1454.96 L842.537 1454.96 L842.537 1463.43 Q843.555 1463.08 844.574 1462.92 Q845.592 1462.73 846.611 1462.73 Q852.398 1462.73 855.777 1465.9 Q859.157 1469.08 859.157 1474.49 Q859.157 1480.07 855.685 1483.17 Q852.212 1486.25 845.893 1486.25 Q843.717 1486.25 841.449 1485.88 Q839.203 1485.51 836.796 1484.77 L836.796 1480.07 Q838.879 1481.2 841.101 1481.76 Q843.324 1482.32 845.8 1482.32 Q849.805 1482.32 852.143 1480.21 Q854.481 1478.1 854.481 1474.49 Q854.481 1470.88 852.143 1468.77 Q849.805 1466.67 845.8 1466.67 Q843.925 1466.67 842.05 1467.08 Q840.199 1467.5 838.254 1468.38 L838.254 1451.02 Z" fill="#000000" fill-rule="nonzero" fill-opacity="1"></path><path clip-path="url(#clip840)" d="M1266.79 1454.1 Q1263.17 1454.1 1261.35 1457.66 Q1259.54 1461.2 1259.54 1468.33 Q1259.54 1475.44 1261.35 1479.01 Q1263.17 1482.55 1266.79 1482.55 Q1270.42 1482.55 1272.23 1479.01 Q1274.05 1475.44 1274.05 1468.33 Q1274.05 1461.2 1272.23 1457.66 Q1270.42 1454.1 1266.79 1454.1 M1266.79 1450.39 Q1272.6 1450.39 1275.65 1455 Q1278.73 1459.58 1278.73 1468.33 Q1278.73 1477.06 1275.65 1481.67 Q1272.6 1486.25 1266.79 1486.25 Q1260.98 1486.25 1257.9 1481.67 Q1254.84 1477.06 1254.84 1468.33 Q1254.84 1459.58 1257.9 1455 Q1260.98 1450.39 1266.79 1450.39 Z" fill="#000000" fill-rule="nonzero" fill-opacity="1"></path><path clip-path="url(#clip840)" d="M1286.95 1479.7 L1291.83 1479.7 L1291.83 1485.58 L1286.95 1485.58 L1286.95 1479.7 Z" fill="#000000" fill-rule="nonzero" fill-opacity="1"></path><path clip-path="url(#clip840)" d="M1302.06 1451.02 L1320.42 1451.02 L1320.42 1454.96 L1306.35 1454.96 L1306.35 1463.43 Q1307.36 1463.08 1308.38 1462.92 Q1309.4 1462.73 1310.42 1462.73 Q1316.21 1462.73 1319.59 1465.9 Q1322.97 1469.08 1322.97 1474.49 Q1322.97 1480.07 1319.49 1483.17 Q1316.02 1486.25 1309.7 1486.25 Q1307.53 1486.25 1305.26 1485.88 Q1303.01 1485.51 1300.6 1484.77 L1300.6 1480.07 Q1302.69 1481.2 1304.91 1481.76 Q1307.13 1482.32 1309.61 1482.32 Q1313.61 1482.32 1315.95 1480.21 Q1318.29 1478.1 1318.29 1474.49 Q1318.29 1470.88 1315.95 1468.77 Q1313.61 1466.67 1309.61 1466.67 Q1307.73 1466.67 1305.86 1467.08 Q1304.01 1467.5 1302.06 1468.38 L1302.06 1451.02 Z" fill="#000000" fill-rule="nonzero" fill-opacity="1"></path><path clip-path="url(#clip840)" d="M1342.18 1454.1 Q1338.57 1454.1 1336.74 1457.66 Q1334.93 1461.2 1334.93 1468.33 Q1334.93 1475.44 1336.74 1479.01 Q1338.57 1482.55 1342.18 1482.55 Q1345.81 1482.55 1347.62 1479.01 Q1349.45 1475.44 1349.45 1468.33 Q1349.45 1461.2 1347.62 1457.66 Q1345.81 1454.1 1342.18 1454.1 M1342.18 1450.39 Q1347.99 1450.39 1351.04 1455 Q1354.12 1459.58 1354.12 1468.33 Q1354.12 1477.06 1351.04 1481.67 Q1347.99 1486.25 1342.18 1486.25 Q1336.37 1486.25 1333.29 1481.67 Q1330.23 1477.06 1330.23 1468.33 Q1330.23 1459.58 1333.29 1455 Q1336.37 1450.39 1342.18 1450.39 Z" fill="#000000" fill-rule="nonzero" fill-opacity="1"></path><path clip-path="url(#clip840)" d="M1761.75 1454.1 Q1758.14 1454.1 1756.31 1457.66 Q1754.51 1461.2 1754.51 1468.33 Q1754.51 1475.44 1756.31 1479.01 Q1758.14 1482.55 1761.75 1482.55 Q1765.39 1482.55 1767.19 1479.01 Q1769.02 1475.44 1769.02 1468.33 Q1769.02 1461.2 1767.19 1457.66 Q1765.39 1454.1 1761.75 1454.1 M1761.75 1450.39 Q1767.56 1450.39 1770.62 1455 Q1773.7 1459.58 1773.7 1468.33 Q1773.7 1477.06 1770.62 1481.67 Q1767.56 1486.25 1761.75 1486.25 Q1755.94 1486.25 1752.86 1481.67 Q1749.81 1477.06 1749.81 1468.33 Q1749.81 1459.58 1752.86 1455 Q1755.94 1450.39 1761.75 1450.39 Z" fill="#000000" fill-rule="nonzero" fill-opacity="1"></path><path clip-path="url(#clip840)" d="M1781.91 1479.7 L1786.8 1479.7 L1786.8 1485.58 L1781.91 1485.58 L1781.91 1479.7 Z" fill="#000000" fill-rule="nonzero" fill-opacity="1"></path><path clip-path="url(#clip840)" d="M1795.8 1451.02 L1818.02 1451.02 L1818.02 1453.01 L1805.48 1485.58 L1800.59 1485.58 L1812.4 1454.96 L1795.8 1454.96 L1795.8 1451.02 Z" fill="#000000" fill-rule="nonzero" fill-opacity="1"></path><path clip-path="url(#clip840)" d="M1827.19 1451.02 L1845.55 1451.02 L1845.55 1454.96 L1831.47 1454.96 L1831.47 1463.43 Q1832.49 1463.08 1833.51 1462.92 Q1834.53 1462.73 1835.55 1462.73 Q1841.34 1462.73 1844.71 1465.9 Q1848.09 1469.08 1848.09 1474.49 Q1848.09 1480.07 1844.62 1483.17 Q1841.15 1486.25 1834.83 1486.25 Q1832.65 1486.25 1830.39 1485.88 Q1828.14 1485.51 1825.73 1484.77 L1825.73 1480.07 Q1827.82 1481.2 1830.04 1481.76 Q1832.26 1482.32 1834.74 1482.32 Q1838.74 1482.32 1841.08 1480.21 Q1843.42 1478.1 1843.42 1474.49 Q1843.42 1470.88 1841.08 1468.77 Q1838.74 1466.67 1834.74 1466.67 Q1832.86 1466.67 1830.99 1467.08 Q1829.14 1467.5 1827.19 1468.38 L1827.19 1451.02 Z" fill="#000000" fill-rule="nonzero" fill-opacity="1"></path><path clip-path="url(#clip840)" d="M2245.49 1481.64 L2253.13 1481.64 L2253.13 1455.28 L2244.82 1456.95 L2244.82 1452.69 L2253.08 1451.02 L2257.76 1451.02 L2257.76 1481.64 L2265.4 1481.64 L2265.4 1485.58 L2245.49 1485.58 L2245.49 1481.64 Z" fill="#000000" fill-rule="nonzero" fill-opacity="1"></path><path clip-path="url(#clip840)" d="M2274.84 1479.7 L2279.73 1479.7 L2279.73 1485.58 L2274.84 1485.58 L2274.84 1479.7 Z" fill="#000000" fill-rule="nonzero" fill-opacity="1"></path><path clip-path="url(#clip840)" d="M2299.91 1454.1 Q2296.3 1454.1 2294.47 1457.66 Q2292.67 1461.2 2292.67 1468.33 Q2292.67 1475.44 2294.47 1479.01 Q2296.3 1482.55 2299.91 1482.55 Q2303.55 1482.55 2305.35 1479.01 Q2307.18 1475.44 2307.18 1468.33 Q2307.18 1461.2 2305.35 1457.66 Q2303.55 1454.1 2299.91 1454.1 M2299.91 1450.39 Q2305.72 1450.39 2308.78 1455 Q2311.86 1459.58 2311.86 1468.33 Q2311.86 1477.06 2308.78 1481.67 Q2305.72 1486.25 2299.91 1486.25 Q2294.1 1486.25 2291.02 1481.67 Q2287.97 1477.06 2287.97 1468.33 Q2287.97 1459.58 2291.02 1455 Q2294.1 1450.39 2299.91 1450.39 Z" fill="#000000" fill-rule="nonzero" fill-opacity="1"></path><path clip-path="url(#clip840)" d="M2330.07 1454.1 Q2326.46 1454.1 2324.63 1457.66 Q2322.83 1461.2 2322.83 1468.33 Q2322.83 1475.44 2324.63 1479.01 Q2326.46 1482.55 2330.07 1482.55 Q2333.71 1482.55 2335.51 1479.01 Q2337.34 1475.44 2337.34 1468.33 Q2337.34 1461.2 2335.51 1457.66 Q2333.71 1454.1 2330.07 1454.1 M2330.07 1450.39 Q2335.88 1450.39 2338.94 1455 Q2342.02 1459.58 2342.02 1468.33 Q2342.02 1477.06 2338.94 1481.67 Q2335.88 1486.25 2330.07 1486.25 Q2324.26 1486.25 2321.19 1481.67 Q2318.13 1477.06 2318.13 1468.33 Q2318.13 1459.58 2321.19 1455 Q2324.26 1450.39 2330.07 1450.39 Z" fill="#000000" fill-rule="nonzero" fill-opacity="1"></path><path clip-path="url(#clip840)" d="M1293.15 1532.4 L1280.26 1549.74 L1293.82 1568.04 L1286.91 1568.04 L1276.54 1554.04 L1266.16 1568.04 L1259.25 1568.04 L1273.1 1549.39 L1260.43 1532.4 L1267.34 1532.4 L1276.79 1545.1 L1286.24 1532.4 L1293.15 1532.4 Z" fill="#000000" fill-rule="nonzero" fill-opacity="1"></path><path clip-path="url(#clip840)" d="M1312.5 1520.52 L1317.91 1520.52 L1301.36 1574.09 L1295.95 1574.09 L1312.5 1520.52 Z" fill="#000000" fill-rule="nonzero" fill-opacity="1"></path><path clip-path="url(#clip840)" d="M1349.71 1533.76 L1349.71 1539.24 Q1347.23 1537.87 1344.71 1537.2 Q1342.23 1536.5 1339.68 1536.5 Q1333.99 1536.5 1330.84 1540.13 Q1327.69 1543.73 1327.69 1550.25 Q1327.69 1556.78 1330.84 1560.4 Q1333.99 1564 1339.68 1564 Q1342.23 1564 1344.71 1563.33 Q1347.23 1562.63 1349.71 1561.26 L1349.71 1566.68 Q1347.26 1567.82 1344.62 1568.39 Q1342.01 1568.97 1339.05 1568.97 Q1331 1568.97 1326.25 1563.91 Q1321.51 1558.85 1321.51 1550.25 Q1321.51 1541.53 1326.28 1536.53 Q1331.09 1531.54 1339.43 1531.54 Q1342.14 1531.54 1344.71 1532.11 Q1347.29 1532.65 1349.71 1533.76 Z" fill="#000000" fill-rule="nonzero" fill-opacity="1"></path><polyline clip-path="url(#clip842)" style="stroke:#000000; stroke-linecap:round; stroke-linejoin:round; stroke-width:2; stroke-opacity:0.1; fill:none" points="256.209,359.944 2352.76,359.944 "></polyline>
<polyline clip-path="url(#clip842)" style="stroke:#000000; stroke-linecap:round; stroke-linejoin:round; stroke-width:2; stroke-opacity:0.1; fill:none" points="256.209,702.094 2352.76,702.094 "></polyline>
<polyline clip-path="url(#clip842)" style="stroke:#000000; stroke-linecap:round; stroke-linejoin:round; stroke-width:2; stroke-opacity:0.1; fill:none" points="256.209,1044.24 2352.76,1044.24 "></polyline>
<polyline clip-path="url(#clip842)" style="stroke:#000000; stroke-linecap:round; stroke-linejoin:round; stroke-width:2; stroke-opacity:0.1; fill:none" points="256.209,1386.4 2352.76,1386.4 "></polyline>
<polyline clip-path="url(#clip840)" style="stroke:#000000; stroke-linecap:round; stroke-linejoin:round; stroke-width:4; stroke-opacity:1; fill:none" points="256.209,123.472 256.209,1423.18 "></polyline>
<polyline clip-path="url(#clip840)" style="stroke:#000000; stroke-linecap:round; stroke-linejoin:round; stroke-width:4; stroke-opacity:1; fill:none" points="256.209,359.944 275.106,359.944 "></polyline>
<polyline clip-path="url(#clip840)" style="stroke:#000000; stroke-linecap:round; stroke-linejoin:round; stroke-width:4; stroke-opacity:1; fill:none" points="256.209,702.094 275.106,702.094 "></polyline>
<polyline clip-path="url(#clip840)" style="stroke:#000000; stroke-linecap:round; stroke-linejoin:round; stroke-width:4; stroke-opacity:1; fill:none" points="256.209,1044.24 275.106,1044.24 "></polyline>
<polyline clip-path="url(#clip840)" style="stroke:#000000; stroke-linecap:round; stroke-linejoin:round; stroke-width:4; stroke-opacity:1; fill:none" points="256.209,1386.4 275.106,1386.4 "></polyline>
<path clip-path="url(#clip840)" d="M114.26 360.395 L143.936 360.395 L143.936 364.33 L114.26 364.33 L114.26 360.395 Z" fill="#000000" fill-rule="nonzero" fill-opacity="1"></path><path clip-path="url(#clip840)" d="M164.028 345.742 Q160.417 345.742 158.589 349.307 Q156.783 352.849 156.783 359.978 Q156.783 367.085 158.589 370.649 Q160.417 374.191 164.028 374.191 Q167.663 374.191 169.468 370.649 Q171.297 367.085 171.297 359.978 Q171.297 352.849 169.468 349.307 Q167.663 345.742 164.028 345.742 M164.028 342.039 Q169.839 342.039 172.894 346.645 Q175.973 351.228 175.973 359.978 Q175.973 368.705 172.894 373.312 Q169.839 377.895 164.028 377.895 Q158.218 377.895 155.14 373.312 Q152.084 368.705 152.084 359.978 Q152.084 351.228 155.14 346.645 Q158.218 342.039 164.028 342.039 Z" fill="#000000" fill-rule="nonzero" fill-opacity="1"></path><path clip-path="url(#clip840)" d="M184.19 371.344 L189.075 371.344 L189.075 377.224 L184.19 377.224 L184.19 371.344 Z" fill="#000000" fill-rule="nonzero" fill-opacity="1"></path><path clip-path="url(#clip840)" d="M199.306 342.664 L217.662 342.664 L217.662 346.599 L203.588 346.599 L203.588 355.071 Q204.607 354.724 205.625 354.562 Q206.644 354.376 207.662 354.376 Q213.449 354.376 216.829 357.548 Q220.209 360.719 220.209 366.136 Q220.209 371.714 216.736 374.816 Q213.264 377.895 206.945 377.895 Q204.769 377.895 202.5 377.524 Q200.255 377.154 197.848 376.413 L197.848 371.714 Q199.931 372.849 202.153 373.404 Q204.375 373.96 206.852 373.96 Q210.857 373.96 213.195 371.853 Q215.533 369.747 215.533 366.136 Q215.533 362.525 213.195 360.418 Q210.857 358.312 206.852 358.312 Q204.977 358.312 203.102 358.728 Q201.25 359.145 199.306 360.025 L199.306 342.664 Z" fill="#000000" fill-rule="nonzero" fill-opacity="1"></path><path clip-path="url(#clip840)" d="M163.033 687.893 Q159.422 687.893 157.593 691.458 Q155.788 694.999 155.788 702.129 Q155.788 709.235 157.593 712.8 Q159.422 716.342 163.033 716.342 Q166.667 716.342 168.473 712.8 Q170.302 709.235 170.302 702.129 Q170.302 694.999 168.473 691.458 Q166.667 687.893 163.033 687.893 M163.033 684.189 Q168.843 684.189 171.899 688.796 Q174.977 693.379 174.977 702.129 Q174.977 710.856 171.899 715.462 Q168.843 720.046 163.033 720.046 Q157.223 720.046 154.144 715.462 Q151.089 710.856 151.089 702.129 Q151.089 693.379 154.144 688.796 Q157.223 684.189 163.033 684.189 Z" fill="#000000" fill-rule="nonzero" fill-opacity="1"></path><path clip-path="url(#clip840)" d="M183.195 713.495 L188.079 713.495 L188.079 719.374 L183.195 719.374 L183.195 713.495 Z" fill="#000000" fill-rule="nonzero" fill-opacity="1"></path><path clip-path="url(#clip840)" d="M208.264 687.893 Q204.653 687.893 202.824 691.458 Q201.019 694.999 201.019 702.129 Q201.019 709.235 202.824 712.8 Q204.653 716.342 208.264 716.342 Q211.899 716.342 213.704 712.8 Q215.533 709.235 215.533 702.129 Q215.533 694.999 213.704 691.458 Q211.899 687.893 208.264 687.893 M208.264 684.189 Q214.074 684.189 217.13 688.796 Q220.209 693.379 220.209 702.129 Q220.209 710.856 217.13 715.462 Q214.074 720.046 208.264 720.046 Q202.454 720.046 199.375 715.462 Q196.32 710.856 196.32 702.129 Q196.32 693.379 199.375 688.796 Q202.454 684.189 208.264 684.189 Z" fill="#000000" fill-rule="nonzero" fill-opacity="1"></path><path clip-path="url(#clip840)" d="M164.028 1030.04 Q160.417 1030.04 158.589 1033.61 Q156.783 1037.15 156.783 1044.28 Q156.783 1051.39 158.589 1054.95 Q160.417 1058.49 164.028 1058.49 Q167.663 1058.49 169.468 1054.95 Q171.297 1051.39 171.297 1044.28 Q171.297 1037.15 169.468 1033.61 Q167.663 1030.04 164.028 1030.04 M164.028 1026.34 Q169.839 1026.34 172.894 1030.95 Q175.973 1035.53 175.973 1044.28 Q175.973 1053.01 172.894 1057.61 Q169.839 1062.2 164.028 1062.2 Q158.218 1062.2 155.14 1057.61 Q152.084 1053.01 152.084 1044.28 Q152.084 1035.53 155.14 1030.95 Q158.218 1026.34 164.028 1026.34 Z" fill="#000000" fill-rule="nonzero" fill-opacity="1"></path><path clip-path="url(#clip840)" d="M184.19 1055.65 L189.075 1055.65 L189.075 1061.52 L184.19 1061.52 L184.19 1055.65 Z" fill="#000000" fill-rule="nonzero" fill-opacity="1"></path><path clip-path="url(#clip840)" d="M199.306 1026.96 L217.662 1026.96 L217.662 1030.9 L203.588 1030.9 L203.588 1039.37 Q204.607 1039.03 205.625 1038.86 Q206.644 1038.68 207.662 1038.68 Q213.449 1038.68 216.829 1041.85 Q220.209 1045.02 220.209 1050.44 Q220.209 1056.02 216.736 1059.12 Q213.264 1062.2 206.945 1062.2 Q204.769 1062.2 202.5 1061.83 Q200.255 1061.46 197.848 1060.71 L197.848 1056.02 Q199.931 1057.15 202.153 1057.71 Q204.375 1058.26 206.852 1058.26 Q210.857 1058.26 213.195 1056.15 Q215.533 1054.05 215.533 1050.44 Q215.533 1046.83 213.195 1044.72 Q210.857 1042.61 206.852 1042.61 Q204.977 1042.61 203.102 1043.03 Q201.25 1043.45 199.306 1044.33 L199.306 1026.96 Z" fill="#000000" fill-rule="nonzero" fill-opacity="1"></path><path clip-path="url(#clip840)" d="M153.843 1399.74 L161.482 1399.74 L161.482 1373.37 L153.172 1375.04 L153.172 1370.78 L161.436 1369.12 L166.112 1369.12 L166.112 1399.74 L173.751 1399.74 L173.751 1403.68 L153.843 1403.68 L153.843 1399.74 Z" fill="#000000" fill-rule="nonzero" fill-opacity="1"></path><path clip-path="url(#clip840)" d="M183.195 1397.8 L188.079 1397.8 L188.079 1403.68 L183.195 1403.68 L183.195 1397.8 Z" fill="#000000" fill-rule="nonzero" fill-opacity="1"></path><path clip-path="url(#clip840)" d="M208.264 1372.19 Q204.653 1372.19 202.824 1375.76 Q201.019 1379.3 201.019 1386.43 Q201.019 1393.54 202.824 1397.1 Q204.653 1400.64 208.264 1400.64 Q211.899 1400.64 213.704 1397.1 Q215.533 1393.54 215.533 1386.43 Q215.533 1379.3 213.704 1375.76 Q211.899 1372.19 208.264 1372.19 M208.264 1368.49 Q214.074 1368.49 217.13 1373.1 Q220.209 1377.68 220.209 1386.43 Q220.209 1395.16 217.13 1399.76 Q214.074 1404.35 208.264 1404.35 Q202.454 1404.35 199.375 1399.76 Q196.32 1395.16 196.32 1386.43 Q196.32 1377.68 199.375 1373.1 Q202.454 1368.49 208.264 1368.49 Z" fill="#000000" fill-rule="nonzero" fill-opacity="1"></path><path clip-path="url(#clip840)" d="M29.7248 780.153 L35.1993 780.153 Q33.8307 782.636 33.1623 785.15 Q32.4621 787.633 32.4621 790.179 Q32.4621 795.876 36.0905 799.028 Q39.6872 802.179 46.212 802.179 Q52.7369 802.179 56.3653 799.028 Q59.9619 795.876 59.9619 790.179 Q59.9619 787.633 59.2935 785.15 Q58.5933 782.636 57.2247 780.153 L62.6355 780.153 Q63.7814 782.604 64.3543 785.246 Q64.9272 787.856 64.9272 790.816 Q64.9272 798.868 59.8664 803.611 Q54.8057 808.353 46.212 808.353 Q37.491 808.353 32.4939 803.579 Q27.4968 798.773 27.4968 790.434 Q27.4968 787.728 28.0697 785.15 Q28.6108 782.572 29.7248 780.153 Z" fill="#000000" fill-rule="nonzero" fill-opacity="1"></path><path clip-path="url(#clip840)" d="M58.657 764.303 L77.5631 764.303 L77.5631 770.191 L28.3562 770.191 L28.3562 764.303 L33.7671 764.303 Q30.5842 762.457 29.0564 759.656 Q27.4968 756.823 27.4968 752.908 Q27.4968 746.415 32.6531 742.373 Q37.8093 738.299 46.212 738.299 Q54.6147 738.299 59.771 742.373 Q64.9272 746.415 64.9272 752.908 Q64.9272 756.823 63.3994 759.656 Q61.8398 762.457 58.657 764.303 M46.212 744.378 Q39.7508 744.378 36.0905 747.052 Q32.3984 749.693 32.3984 754.34 Q32.3984 758.987 36.0905 761.661 Q39.7508 764.303 46.212 764.303 Q52.6732 764.303 56.3653 761.661 Q60.0256 758.987 60.0256 754.34 Q60.0256 749.693 56.3653 747.052 Q52.6732 744.378 46.212 744.378 Z" fill="#000000" fill-rule="nonzero" fill-opacity="1"></path><path clip-path="url(#clip840)" d="M638.169 18.8205 L638.169 41.5461 L648.459 41.5461 Q654.17 41.5461 657.29 38.5889 Q660.409 35.6318 660.409 30.163 Q660.409 24.7348 657.29 21.7777 Q654.17 18.8205 648.459 18.8205 L638.169 18.8205 M629.986 12.096 L648.459 12.096 Q658.626 12.096 663.812 16.714 Q669.037 21.2916 669.037 30.163 Q669.037 39.1155 663.812 43.6931 Q658.626 48.2706 648.459 48.2706 L638.169 48.2706 L638.169 72.576 L629.986 72.576 L629.986 12.096 Z" fill="#000000" fill-rule="nonzero" fill-opacity="1"></path><path clip-path="url(#clip840)" d="M704.523 34.1734 Q703.267 33.4443 701.769 33.1202 Q700.31 32.7556 698.528 32.7556 Q692.208 32.7556 688.806 36.8875 Q685.443 40.9789 685.443 48.6757 L685.443 72.576 L677.949 72.576 L677.949 27.2059 L685.443 27.2059 L685.443 34.2544 Q687.793 30.1225 691.56 28.1376 Q695.328 26.1121 700.715 26.1121 Q701.485 26.1121 702.417 26.2337 Q703.348 26.3147 704.483 26.5172 L704.523 34.1734 Z" fill="#000000" fill-rule="nonzero" fill-opacity="1"></path><path clip-path="url(#clip840)" d="M749.326 48.0275 L749.326 51.6733 L715.055 51.6733 Q715.542 59.3701 719.673 63.421 Q723.846 67.4314 731.259 67.4314 Q735.553 67.4314 739.563 66.3781 Q743.614 65.3249 747.584 63.2184 L747.584 70.267 Q743.574 71.9684 739.361 72.8596 Q735.148 73.7508 730.813 73.7508 Q719.957 73.7508 713.597 67.4314 Q707.278 61.1119 707.278 50.3365 Q707.278 39.1965 713.273 32.6746 Q719.309 26.1121 729.517 26.1121 Q738.672 26.1121 743.979 32.0264 Q749.326 37.9003 749.326 48.0275 M741.872 45.84 Q741.791 39.7232 738.429 36.0774 Q735.107 32.4315 729.598 32.4315 Q723.36 32.4315 719.592 35.9558 Q715.866 39.4801 715.299 45.8805 L741.872 45.84 Z" fill="#000000" fill-rule="nonzero" fill-opacity="1"></path><path clip-path="url(#clip840)" d="M790.483 28.5427 L790.483 35.5912 Q787.324 33.9709 783.921 33.1607 Q780.518 32.3505 776.872 32.3505 Q771.323 32.3505 768.527 34.0519 Q765.773 35.7533 765.773 39.156 Q765.773 41.7486 767.758 43.2475 Q769.743 44.7058 775.738 46.0426 L778.29 46.6097 Q786.23 48.3111 789.552 51.4303 Q792.914 54.509 792.914 60.0587 Q792.914 66.3781 787.891 70.0644 Q782.908 73.7508 774.158 73.7508 Q770.512 73.7508 766.542 73.0216 Q762.613 72.3329 758.238 70.9151 L758.238 63.2184 Q762.37 65.3654 766.38 66.4591 Q770.391 67.5124 774.32 67.5124 Q779.586 67.5124 782.422 65.73 Q785.258 63.9071 785.258 60.6258 Q785.258 57.5877 783.192 55.9673 Q781.166 54.3469 774.239 52.8481 L771.647 52.2405 Q764.72 50.7821 761.641 47.7845 Q758.562 44.7463 758.562 39.4801 Q758.562 33.0797 763.099 29.5959 Q767.636 26.1121 775.981 26.1121 Q780.113 26.1121 783.759 26.7198 Q787.405 27.3274 790.483 28.5427 Z" fill="#000000" fill-rule="nonzero" fill-opacity="1"></path><path clip-path="url(#clip840)" d="M833.706 28.5427 L833.706 35.5912 Q830.547 33.9709 827.144 33.1607 Q823.741 32.3505 820.095 32.3505 Q814.546 32.3505 811.751 34.0519 Q808.996 35.7533 808.996 39.156 Q808.996 41.7486 810.981 43.2475 Q812.966 44.7058 818.961 46.0426 L821.513 46.6097 Q829.453 48.3111 832.775 51.4303 Q836.137 54.509 836.137 60.0587 Q836.137 66.3781 831.114 70.0644 Q826.131 73.7508 817.381 73.7508 Q813.735 73.7508 809.766 73.0216 Q805.836 72.3329 801.461 70.9151 L801.461 63.2184 Q805.593 65.3654 809.604 66.4591 Q813.614 67.5124 817.543 67.5124 Q822.81 67.5124 825.645 65.73 Q828.481 63.9071 828.481 60.6258 Q828.481 57.5877 826.415 55.9673 Q824.389 54.3469 817.462 52.8481 L814.87 52.2405 Q807.943 50.7821 804.864 47.7845 Q801.785 44.7463 801.785 39.4801 Q801.785 33.0797 806.322 29.5959 Q810.859 26.1121 819.204 26.1121 Q823.336 26.1121 826.982 26.7198 Q830.628 27.3274 833.706 28.5427 Z" fill="#000000" fill-rule="nonzero" fill-opacity="1"></path><path clip-path="url(#clip840)" d="M847.236 54.671 L847.236 27.2059 L854.69 27.2059 L854.69 54.3874 Q854.69 60.8284 857.202 64.0691 Q859.713 67.2693 864.736 67.2693 Q870.772 67.2693 874.256 63.421 Q877.78 59.5726 877.78 52.9291 L877.78 27.2059 L885.234 27.2059 L885.234 72.576 L877.78 72.576 L877.78 65.6084 Q875.066 69.7404 871.461 71.7658 Q867.896 73.7508 863.157 73.7508 Q855.338 73.7508 851.287 68.8897 Q847.236 64.0286 847.236 54.671 M865.992 26.1121 L865.992 26.1121 Z" fill="#000000" fill-rule="nonzero" fill-opacity="1"></path><path clip-path="url(#clip840)" d="M926.877 34.1734 Q925.621 33.4443 924.123 33.1202 Q922.664 32.7556 920.882 32.7556 Q914.562 32.7556 911.16 36.8875 Q907.797 40.9789 907.797 48.6757 L907.797 72.576 L900.303 72.576 L900.303 27.2059 L907.797 27.2059 L907.797 34.2544 Q910.147 30.1225 913.914 28.1376 Q917.682 26.1121 923.069 26.1121 Q923.839 26.1121 924.771 26.2337 Q925.702 26.3147 926.837 26.5172 L926.877 34.1734 Z" fill="#000000" fill-rule="nonzero" fill-opacity="1"></path><path clip-path="url(#clip840)" d="M971.68 48.0275 L971.68 51.6733 L937.41 51.6733 Q937.896 59.3701 942.028 63.421 Q946.2 67.4314 953.613 67.4314 Q957.907 67.4314 961.918 66.3781 Q965.968 65.3249 969.938 63.2184 L969.938 70.267 Q965.928 71.9684 961.715 72.8596 Q957.502 73.7508 953.168 73.7508 Q942.311 73.7508 935.951 67.4314 Q929.632 61.1119 929.632 50.3365 Q929.632 39.1965 935.627 32.6746 Q941.663 26.1121 951.871 26.1121 Q961.026 26.1121 966.333 32.0264 Q971.68 37.9003 971.68 48.0275 M964.227 45.84 Q964.146 39.7232 960.783 36.0774 Q957.462 32.4315 951.952 32.4315 Q945.714 32.4315 941.947 35.9558 Q938.22 39.4801 937.653 45.8805 L964.227 45.84 Z" fill="#000000" fill-rule="nonzero" fill-opacity="1"></path><path clip-path="url(#clip840)" d="M1040.14 34.0924 L1040.14 9.54393 L1047.59 9.54393 L1047.59 72.576 L1040.14 72.576 L1040.14 65.7705 Q1037.79 69.8214 1034.19 71.8063 Q1030.62 73.7508 1025.6 73.7508 Q1017.37 73.7508 1012.19 67.1883 Q1007.04 60.6258 1007.04 49.9314 Q1007.04 39.2371 1012.19 32.6746 Q1017.37 26.1121 1025.6 26.1121 Q1030.62 26.1121 1034.19 28.0971 Q1037.79 30.0415 1040.14 34.0924 M1014.74 49.9314 Q1014.74 58.1548 1018.1 62.8538 Q1021.51 67.5124 1027.42 67.5124 Q1033.34 67.5124 1036.74 62.8538 Q1040.14 58.1548 1040.14 49.9314 Q1040.14 41.7081 1036.74 37.0496 Q1033.34 32.3505 1027.42 32.3505 Q1021.51 32.3505 1018.1 37.0496 Q1014.74 41.7081 1014.74 49.9314 Z" fill="#000000" fill-rule="nonzero" fill-opacity="1"></path><path clip-path="url(#clip840)" d="M1062.95 27.2059 L1070.4 27.2059 L1070.4 72.576 L1062.95 72.576 L1062.95 27.2059 M1062.95 9.54393 L1070.4 9.54393 L1070.4 18.9825 L1062.95 18.9825 L1062.95 9.54393 Z" fill="#000000" fill-rule="nonzero" fill-opacity="1"></path><path clip-path="url(#clip840)" d="M1114.92 28.5427 L1114.92 35.5912 Q1111.76 33.9709 1108.36 33.1607 Q1104.95 32.3505 1101.31 32.3505 Q1095.76 32.3505 1092.96 34.0519 Q1090.21 35.7533 1090.21 39.156 Q1090.21 41.7486 1092.19 43.2475 Q1094.18 44.7058 1100.17 46.0426 L1102.73 46.6097 Q1110.67 48.3111 1113.99 51.4303 Q1117.35 54.509 1117.35 60.0587 Q1117.35 66.3781 1112.33 70.0644 Q1107.35 73.7508 1098.6 73.7508 Q1094.95 73.7508 1090.98 73.0216 Q1087.05 72.3329 1082.68 70.9151 L1082.68 63.2184 Q1086.81 65.3654 1090.82 66.4591 Q1094.83 67.5124 1098.76 67.5124 Q1104.02 67.5124 1106.86 65.73 Q1109.69 63.9071 1109.69 60.6258 Q1109.69 57.5877 1107.63 55.9673 Q1105.6 54.3469 1098.68 52.8481 L1096.08 52.2405 Q1089.16 50.7821 1086.08 47.7845 Q1083 44.7463 1083 39.4801 Q1083 33.0797 1087.54 29.5959 Q1092.07 26.1121 1100.42 26.1121 Q1104.55 26.1121 1108.2 26.7198 Q1111.84 27.3274 1114.92 28.5427 Z" fill="#000000" fill-rule="nonzero" fill-opacity="1"></path><path clip-path="url(#clip840)" d="M1136.59 14.324 L1136.59 27.2059 L1151.95 27.2059 L1151.95 32.9987 L1136.59 32.9987 L1136.59 57.6282 Q1136.59 63.1779 1138.09 64.7578 Q1139.63 66.3376 1144.29 66.3376 L1151.95 66.3376 L1151.95 72.576 L1144.29 72.576 Q1135.66 72.576 1132.38 69.3758 Q1129.1 66.1351 1129.1 57.6282 L1129.1 32.9987 L1123.63 32.9987 L1123.63 27.2059 L1129.1 27.2059 L1129.1 14.324 L1136.59 14.324 Z" fill="#000000" fill-rule="nonzero" fill-opacity="1"></path><path clip-path="url(#clip840)" d="M1188.04 34.1734 Q1186.78 33.4443 1185.28 33.1202 Q1183.83 32.7556 1182.04 32.7556 Q1175.72 32.7556 1172.32 36.8875 Q1168.96 40.9789 1168.96 48.6757 L1168.96 72.576 L1161.47 72.576 L1161.47 27.2059 L1168.96 27.2059 L1168.96 34.2544 Q1171.31 30.1225 1175.08 28.1376 Q1178.84 26.1121 1184.23 26.1121 Q1185 26.1121 1185.93 26.2337 Q1186.86 26.3147 1188 26.5172 L1188.04 34.1734 Z" fill="#000000" fill-rule="nonzero" fill-opacity="1"></path><path clip-path="url(#clip840)" d="M1195.86 27.2059 L1203.31 27.2059 L1203.31 72.576 L1195.86 72.576 L1195.86 27.2059 M1195.86 9.54393 L1203.31 9.54393 L1203.31 18.9825 L1195.86 18.9825 L1195.86 9.54393 Z" fill="#000000" fill-rule="nonzero" fill-opacity="1"></path><path clip-path="url(#clip840)" d="M1251.48 49.9314 Q1251.48 41.7081 1248.07 37.0496 Q1244.71 32.3505 1238.8 32.3505 Q1232.88 32.3505 1229.48 37.0496 Q1226.12 41.7081 1226.12 49.9314 Q1226.12 58.1548 1229.48 62.8538 Q1232.88 67.5124 1238.8 67.5124 Q1244.71 67.5124 1248.07 62.8538 Q1251.48 58.1548 1251.48 49.9314 M1226.12 34.0924 Q1228.47 30.0415 1232.03 28.0971 Q1235.64 26.1121 1240.62 26.1121 Q1248.88 26.1121 1254.03 32.6746 Q1259.21 39.2371 1259.21 49.9314 Q1259.21 60.6258 1254.03 67.1883 Q1248.88 73.7508 1240.62 73.7508 Q1235.64 73.7508 1232.03 71.8063 Q1228.47 69.8214 1226.12 65.7705 L1226.12 72.576 L1218.62 72.576 L1218.62 9.54393 L1226.12 9.54393 L1226.12 34.0924 Z" fill="#000000" fill-rule="nonzero" fill-opacity="1"></path><path clip-path="url(#clip840)" d="M1270.8 54.671 L1270.8 27.2059 L1278.25 27.2059 L1278.25 54.3874 Q1278.25 60.8284 1280.76 64.0691 Q1283.28 67.2693 1288.3 67.2693 Q1294.33 67.2693 1297.82 63.421 Q1301.34 59.5726 1301.34 52.9291 L1301.34 27.2059 L1308.8 27.2059 L1308.8 72.576 L1301.34 72.576 L1301.34 65.6084 Q1298.63 69.7404 1295.02 71.7658 Q1291.46 73.7508 1286.72 73.7508 Q1278.9 73.7508 1274.85 68.8897 Q1270.8 64.0286 1270.8 54.671 M1289.55 26.1121 L1289.55 26.1121 Z" fill="#000000" fill-rule="nonzero" fill-opacity="1"></path><path clip-path="url(#clip840)" d="M1331.52 14.324 L1331.52 27.2059 L1346.87 27.2059 L1346.87 32.9987 L1331.52 32.9987 L1331.52 57.6282 Q1331.52 63.1779 1333.02 64.7578 Q1334.56 66.3376 1339.22 66.3376 L1346.87 66.3376 L1346.87 72.576 L1339.22 72.576 Q1330.59 72.576 1327.31 69.3758 Q1324.03 66.1351 1324.03 57.6282 L1324.03 32.9987 L1318.56 32.9987 L1318.56 27.2059 L1324.03 27.2059 L1324.03 14.324 L1331.52 14.324 Z" fill="#000000" fill-rule="nonzero" fill-opacity="1"></path><path clip-path="url(#clip840)" d="M1356.68 27.2059 L1364.13 27.2059 L1364.13 72.576 L1356.68 72.576 L1356.68 27.2059 M1356.68 9.54393 L1364.13 9.54393 L1364.13 18.9825 L1356.68 18.9825 L1356.68 9.54393 Z" fill="#000000" fill-rule="nonzero" fill-opacity="1"></path><path clip-path="url(#clip840)" d="M1397.31 32.4315 Q1391.31 32.4315 1387.83 37.1306 Q1384.35 41.7891 1384.35 49.9314 Q1384.35 58.0738 1387.79 62.7728 Q1391.27 67.4314 1397.31 67.4314 Q1403.26 67.4314 1406.75 62.7323 Q1410.23 58.0333 1410.23 49.9314 Q1410.23 41.8701 1406.75 37.1711 Q1403.26 32.4315 1397.31 32.4315 M1397.31 26.1121 Q1407.03 26.1121 1412.58 32.4315 Q1418.13 38.7509 1418.13 49.9314 Q1418.13 61.0714 1412.58 67.4314 Q1407.03 73.7508 1397.31 73.7508 Q1387.55 73.7508 1382 67.4314 Q1376.49 61.0714 1376.49 49.9314 Q1376.49 38.7509 1382 32.4315 Q1387.55 26.1121 1397.31 26.1121 Z" fill="#000000" fill-rule="nonzero" fill-opacity="1"></path><path clip-path="url(#clip840)" d="M1468.2 45.1919 L1468.2 72.576 L1460.75 72.576 L1460.75 45.4349 Q1460.75 38.994 1458.23 35.7938 Q1455.72 32.5936 1450.7 32.5936 Q1444.66 32.5936 1441.18 36.4419 Q1437.7 40.2903 1437.7 46.9338 L1437.7 72.576 L1430.2 72.576 L1430.2 27.2059 L1437.7 27.2059 L1437.7 34.2544 Q1440.37 30.163 1443.98 28.1376 Q1447.62 26.1121 1452.36 26.1121 Q1460.18 26.1121 1464.19 30.9732 Q1468.2 35.7938 1468.2 45.1919 Z" fill="#000000" fill-rule="nonzero" fill-opacity="1"></path><path clip-path="url(#clip840)" d="M1542.09 28.9478 L1542.09 35.9153 Q1538.93 34.1734 1535.73 33.3227 Q1532.57 32.4315 1529.33 32.4315 Q1522.08 32.4315 1518.07 37.0496 Q1514.06 41.6271 1514.06 49.9314 Q1514.06 58.2358 1518.07 62.8538 Q1522.08 67.4314 1529.33 67.4314 Q1532.57 67.4314 1535.73 66.5807 Q1538.93 65.6895 1542.09 63.9476 L1542.09 70.8341 Q1538.97 72.2924 1535.61 73.0216 Q1532.28 73.7508 1528.52 73.7508 Q1518.27 73.7508 1512.23 67.3098 Q1506.2 60.8689 1506.2 49.9314 Q1506.2 38.832 1512.27 32.472 Q1518.39 26.1121 1529 26.1121 Q1532.45 26.1121 1535.73 26.8413 Q1539.01 27.5299 1542.09 28.9478 Z" fill="#000000" fill-rule="nonzero" fill-opacity="1"></path><path clip-path="url(#clip840)" d="M1572.63 32.4315 Q1566.64 32.4315 1563.15 37.1306 Q1559.67 41.7891 1559.67 49.9314 Q1559.67 58.0738 1563.11 62.7728 Q1566.6 67.4314 1572.63 67.4314 Q1578.59 67.4314 1582.07 62.7323 Q1585.55 58.0333 1585.55 49.9314 Q1585.55 41.8701 1582.07 37.1711 Q1578.59 32.4315 1572.63 32.4315 M1572.63 26.1121 Q1582.35 26.1121 1587.9 32.4315 Q1593.45 38.7509 1593.45 49.9314 Q1593.45 61.0714 1587.9 67.4314 Q1582.35 73.7508 1572.63 73.7508 Q1562.87 73.7508 1557.32 67.4314 Q1551.81 61.0714 1551.81 49.9314 Q1551.81 38.7509 1557.32 32.4315 Q1562.87 26.1121 1572.63 26.1121 Z" fill="#000000" fill-rule="nonzero" fill-opacity="1"></path><path clip-path="url(#clip840)" d="M1641.13 35.9153 Q1643.93 30.8922 1647.82 28.5022 Q1651.71 26.1121 1656.97 26.1121 Q1664.06 26.1121 1667.91 31.0947 Q1671.76 36.0368 1671.76 45.1919 L1671.76 72.576 L1664.26 72.576 L1664.26 45.4349 Q1664.26 38.913 1661.95 35.7533 Q1659.65 32.5936 1654.91 32.5936 Q1649.11 32.5936 1645.75 36.4419 Q1642.39 40.2903 1642.39 46.9338 L1642.39 72.576 L1634.89 72.576 L1634.89 45.4349 Q1634.89 38.8725 1632.59 35.7533 Q1630.28 32.5936 1625.46 32.5936 Q1619.74 32.5936 1616.38 36.4824 Q1613.02 40.3308 1613.02 46.9338 L1613.02 72.576 L1605.53 72.576 L1605.53 27.2059 L1613.02 27.2059 L1613.02 34.2544 Q1615.57 30.082 1619.14 28.0971 Q1622.7 26.1121 1627.6 26.1121 Q1632.54 26.1121 1635.99 28.6237 Q1639.47 31.1352 1641.13 35.9153 Z" fill="#000000" fill-rule="nonzero" fill-opacity="1"></path><path clip-path="url(#clip840)" d="M1693.83 65.7705 L1693.83 89.8329 L1686.34 89.8329 L1686.34 27.2059 L1693.83 27.2059 L1693.83 34.0924 Q1696.18 30.0415 1699.75 28.0971 Q1703.35 26.1121 1708.34 26.1121 Q1716.6 26.1121 1721.75 32.6746 Q1726.93 39.2371 1726.93 49.9314 Q1726.93 60.6258 1721.75 67.1883 Q1716.6 73.7508 1708.34 73.7508 Q1703.35 73.7508 1699.75 71.8063 Q1696.18 69.8214 1693.83 65.7705 M1719.19 49.9314 Q1719.19 41.7081 1715.79 37.0496 Q1712.43 32.3505 1706.51 32.3505 Q1700.6 32.3505 1697.2 37.0496 Q1693.83 41.7081 1693.83 49.9314 Q1693.83 58.1548 1697.2 62.8538 Q1700.6 67.5124 1706.51 67.5124 Q1712.43 67.5124 1715.79 62.8538 Q1719.19 58.1548 1719.19 49.9314 Z" fill="#000000" fill-rule="nonzero" fill-opacity="1"></path><path clip-path="url(#clip840)" d="M1759.91 49.7694 Q1750.87 49.7694 1747.39 51.8354 Q1743.9 53.9013 1743.9 58.8839 Q1743.9 62.8538 1746.5 65.2034 Q1749.13 67.5124 1753.63 67.5124 Q1759.82 67.5124 1763.55 63.1374 Q1767.32 58.7219 1767.32 51.4303 L1767.32 49.7694 L1759.91 49.7694 M1774.77 46.6907 L1774.77 72.576 L1767.32 72.576 L1767.32 65.6895 Q1764.77 69.8214 1760.96 71.8063 Q1757.15 73.7508 1751.64 73.7508 Q1744.67 73.7508 1740.54 69.8619 Q1736.45 65.9325 1736.45 59.3701 Q1736.45 51.7138 1741.55 47.825 Q1746.7 43.9361 1756.87 43.9361 L1767.32 43.9361 L1767.32 43.2069 Q1767.32 38.0623 1763.92 35.2672 Q1760.55 32.4315 1754.44 32.4315 Q1750.55 32.4315 1746.86 33.3632 Q1743.17 34.295 1739.77 36.1584 L1739.77 29.2718 Q1743.86 27.692 1747.71 26.9223 Q1751.56 26.1121 1755.21 26.1121 Q1765.05 26.1121 1769.91 31.2163 Q1774.77 36.3204 1774.77 46.6907 Z" fill="#000000" fill-rule="nonzero" fill-opacity="1"></path><path clip-path="url(#clip840)" d="M1816.42 34.1734 Q1815.16 33.4443 1813.66 33.1202 Q1812.2 32.7556 1810.42 32.7556 Q1804.1 32.7556 1800.7 36.8875 Q1797.34 40.9789 1797.34 48.6757 L1797.34 72.576 L1789.84 72.576 L1789.84 27.2059 L1797.34 27.2059 L1797.34 34.2544 Q1799.69 30.1225 1803.45 28.1376 Q1807.22 26.1121 1812.61 26.1121 Q1813.38 26.1121 1814.31 26.2337 Q1815.24 26.3147 1816.37 26.5172 L1816.42 34.1734 Z" fill="#000000" fill-rule="nonzero" fill-opacity="1"></path><path clip-path="url(#clip840)" d="M1824.23 27.2059 L1831.69 27.2059 L1831.69 72.576 L1824.23 72.576 L1824.23 27.2059 M1824.23 9.54393 L1831.69 9.54393 L1831.69 18.9825 L1824.23 18.9825 L1824.23 9.54393 Z" fill="#000000" fill-rule="nonzero" fill-opacity="1"></path><path clip-path="url(#clip840)" d="M1876.21 28.5427 L1876.21 35.5912 Q1873.05 33.9709 1869.64 33.1607 Q1866.24 32.3505 1862.6 32.3505 Q1857.05 32.3505 1854.25 34.0519 Q1851.5 35.7533 1851.5 39.156 Q1851.5 41.7486 1853.48 43.2475 Q1855.47 44.7058 1861.46 46.0426 L1864.01 46.6097 Q1871.95 48.3111 1875.27 51.4303 Q1878.64 54.509 1878.64 60.0587 Q1878.64 66.3781 1873.61 70.0644 Q1868.63 73.7508 1859.88 73.7508 Q1856.24 73.7508 1852.27 73.0216 Q1848.34 72.3329 1843.96 70.9151 L1843.96 63.2184 Q1848.09 65.3654 1852.1 66.4591 Q1856.11 67.5124 1860.04 67.5124 Q1865.31 67.5124 1868.15 65.73 Q1870.98 63.9071 1870.98 60.6258 Q1870.98 57.5877 1868.92 55.9673 Q1866.89 54.3469 1859.96 52.8481 L1857.37 52.2405 Q1850.44 50.7821 1847.36 47.7845 Q1844.29 44.7463 1844.29 39.4801 Q1844.29 33.0797 1848.82 29.5959 Q1853.36 26.1121 1861.7 26.1121 Q1865.84 26.1121 1869.48 26.7198 Q1873.13 27.3274 1876.21 28.5427 Z" fill="#000000" fill-rule="nonzero" fill-opacity="1"></path><path clip-path="url(#clip840)" d="M1908.09 32.4315 Q1902.09 32.4315 1898.61 37.1306 Q1895.12 41.7891 1895.12 49.9314 Q1895.12 58.0738 1898.57 62.7728 Q1902.05 67.4314 1908.09 67.4314 Q1914.04 67.4314 1917.53 62.7323 Q1921.01 58.0333 1921.01 49.9314 Q1921.01 41.8701 1917.53 37.1711 Q1914.04 32.4315 1908.09 32.4315 M1908.09 26.1121 Q1917.81 26.1121 1923.36 32.4315 Q1928.91 38.7509 1928.91 49.9314 Q1928.91 61.0714 1923.36 67.4314 Q1917.81 73.7508 1908.09 73.7508 Q1898.32 73.7508 1892.77 67.4314 Q1887.27 61.0714 1887.27 49.9314 Q1887.27 38.7509 1892.77 32.4315 Q1898.32 26.1121 1908.09 26.1121 Z" fill="#000000" fill-rule="nonzero" fill-opacity="1"></path><path clip-path="url(#clip840)" d="M1978.98 45.1919 L1978.98 72.576 L1971.52 72.576 L1971.52 45.4349 Q1971.52 38.994 1969.01 35.7938 Q1966.5 32.5936 1961.48 32.5936 Q1955.44 32.5936 1951.96 36.4419 Q1948.47 40.2903 1948.47 46.9338 L1948.47 72.576 L1940.98 72.576 L1940.98 27.2059 L1948.47 27.2059 L1948.47 34.2544 Q1951.15 30.163 1954.75 28.1376 Q1958.4 26.1121 1963.14 26.1121 Q1970.96 26.1121 1974.97 30.9732 Q1978.98 35.7938 1978.98 45.1919 Z" fill="#000000" fill-rule="nonzero" fill-opacity="1"></path><polyline clip-path="url(#clip842)" style="stroke:#009af9; stroke-linecap:round; stroke-linejoin:round; stroke-width:4; stroke-opacity:1; fill:none" points="2293.42,1386.4 2291.39,1003.03 2285.3,911.969 2275.18,849.526 2261.08,801 2243.04,761.191 2221.14,727.607 2195.48,698.854 2166.16,674.068 2133.3,652.679 2097.03,634.288 2057.5,616.888 2014.88,598.494 1969.35,579.214 1921.07,559.146 1870.27,538.37 1817.14,516.951 1761.9,494.932 1704.79,472.341 1646.03,449.185 1585.86,425.457 1524.54,401.138 1462.32,376.198 1399.44,350.603 1336.18,324.317 1272.79,297.311 1209.52,269.563 1146.65,241.068 1084.42,214.172 1023.1,191.913 962.938,175.203 904.177,164.848 847.061,161.5 791.824,163.586 738.695,169.636 687.89,179.846 639.619,194.428 594.08,213.613 551.46,237.66 511.934,266.872 475.666,301.619 442.803,342.37 413.48,389.751 387.82,444.637 365.926,508.326 347.888,582.884 333.782,671.933 323.664,1011.74 317.577,1292.64 315.545,1386.4 317.496,1308.52 323.343,1075.2 333.062,754.953 346.614,625.773 363.947,549.138 384.992,516.629 409.665,515.757 437.87,525.92 469.495,542.186 504.415,561.755 542.493,582.414 583.578,602.566 627.508,621.17 674.11,637.642 723.199,652.12 774.583,665.835 828.058,678.771 883.413,690.824 940.43,701.924 998.884,712.039 1058.54,721.168 1119.17,729.342 1180.54,736.622 1242.39,743.094 1304.48,748.863 1366.58,754.049 1428.43,758.781 1489.79,763.192 1550.42,767.414 1610.08,771.568 1668.53,775.765 1725.55,780.098 1780.91,784.64 1834.38,789.44 1885.77,794.524 1934.85,799.889 1981.46,805.51 2025.39,811.336 2066.47,817.294 2104.55,823.326 2139.47,830.11 2171.09,838.081 2199.3,847.447 2223.97,858.508 2245.02,871.724 2262.35,887.854 2275.9,908.283 2285.62,936.014 2291.47,980.073 2293.42,1386.4 "></polyline>
<polyline clip-path="url(#clip842)" style="stroke:#e26f46; stroke-linecap:round; stroke-linejoin:round; stroke-width:4; stroke-opacity:1; fill:none" points="2293.42,1313.92 2291.39,1024.27 2285.3,924.082 2275.18,864.286 2261.08,817.324 2243.04,776.665 2221.14,740.586 2195.48,708.577 2166.16,680.447 2133.3,655.971 2097.03,634.73 2057.5,615.403 2014.88,596.432 1969.35,577.245 1921.07,557.548 1870.27,537.21 1817.14,516.189 1761.9,494.489 1704.79,472.129 1646.03,449.127 1585.86,425.49 1524.54,401.215 1462.32,376.28 1399.44,350.656 1336.18,324.31 1272.79,297.218 1209.52,269.412 1146.65,241.105 1084.42,214.416 1023.1,192.075 962.938,175.161 904.177,164.43 847.061,160.256 791.824,161.239 738.695,166.096 687.89,174.913 639.619,188.045 594.08,206.122 551.46,230.111 511.934,261.368 475.666,301.656 442.803,353.104 413.48,418.177 387.82,499.781 365.926,601.745 347.888,729.799 333.782,892.263 323.664,1096.93 317.577,1303.76 315.545,1373.95 317.496,1162.81 323.343,918.962 333.062,752.965 346.614,652.28 363.947,587.379 384.992,550.139 409.665,536.184 437.87,536.811 469.495,546.866 504.415,562.596 542.493,581.102 583.578,600.268 627.508,618.685 674.11,635.562 723.199,650.791 774.583,664.982 828.058,678.206 883.413,690.439 940.43,701.656 998.884,711.847 1058.54,721.028 1119.17,729.241 1180.54,736.553 1242.39,743.054 1304.48,748.855 1366.58,754.078 1428.43,758.856 1489.79,763.323 1550.42,767.612 1610.08,771.842 1668.53,776.119 1725.55,780.529 1780.91,785.133 1834.38,789.962 1885.77,795.026 1934.85,800.306 1981.46,805.774 2025.39,811.402 2066.47,817.194 2104.55,823.245 2139.47,829.947 2171.09,837.636 2199.3,846.628 2223.97,857.393 2245.02,870.737 2262.35,888.138 2275.9,912.737 2285.62,952.217 2291.47,1049.89 2293.42,1313.92 "></polyline>
<path clip-path="url(#clip840)" d="M1828.68 1379.86 L2282.87 1379.86 L2282.87 1224.34 L1828.68 1224.34  Z" fill="#ffffff" fill-rule="evenodd" fill-opacity="1"></path>
<polyline clip-path="url(#clip840)" style="stroke:#000000; stroke-linecap:round; stroke-linejoin:round; stroke-width:4; stroke-opacity:1; fill:none" points="1828.68,1379.86 2282.87,1379.86 2282.87,1224.34 1828.68,1224.34 1828.68,1379.86 "></polyline>
<polyline clip-path="url(#clip840)" style="stroke:#009af9; stroke-linecap:round; stroke-linejoin:round; stroke-width:4; stroke-opacity:1; fill:none" points="1851.98,1276.18 1991.75,1276.18 "></polyline>
<path clip-path="url(#clip840)" d="M2015.04 1258.9 L2044.28 1258.9 L2044.28 1262.83 L2032.01 1262.83 L2032.01 1293.46 L2027.31 1293.46 L2027.31 1262.83 L2015.04 1262.83 L2015.04 1258.9 Z" fill="#000000" fill-rule="nonzero" fill-opacity="1"></path><path clip-path="url(#clip840)" d="M2052.54 1280.42 Q2047.38 1280.42 2045.39 1281.6 Q2043.4 1282.79 2043.4 1285.63 Q2043.4 1287.9 2044.88 1289.24 Q2046.38 1290.56 2048.95 1290.56 Q2052.49 1290.56 2054.62 1288.06 Q2056.78 1285.54 2056.78 1281.37 L2056.78 1280.42 L2052.54 1280.42 M2061.04 1278.66 L2061.04 1293.46 L2056.78 1293.46 L2056.78 1289.52 Q2055.32 1291.88 2053.14 1293.02 Q2050.97 1294.13 2047.82 1294.13 Q2043.84 1294.13 2041.48 1291.91 Q2039.14 1289.66 2039.14 1285.91 Q2039.14 1281.54 2042.05 1279.31 Q2044.99 1277.09 2050.8 1277.09 L2056.78 1277.09 L2056.78 1276.67 Q2056.78 1273.73 2054.83 1272.14 Q2052.91 1270.52 2049.42 1270.52 Q2047.19 1270.52 2045.09 1271.05 Q2042.98 1271.58 2041.04 1272.65 L2041.04 1268.71 Q2043.37 1267.81 2045.57 1267.37 Q2047.77 1266.91 2049.85 1266.91 Q2055.48 1266.91 2058.26 1269.82 Q2061.04 1272.74 2061.04 1278.66 Z" fill="#000000" fill-rule="nonzero" fill-opacity="1"></path><path clip-path="url(#clip840)" d="M2084.83 1271.51 Q2084.11 1271.1 2083.26 1270.91 Q2082.42 1270.7 2081.41 1270.7 Q2077.79 1270.7 2075.85 1273.06 Q2073.93 1275.4 2073.93 1279.8 L2073.93 1293.46 L2069.65 1293.46 L2069.65 1267.53 L2073.93 1267.53 L2073.93 1271.56 Q2075.27 1269.2 2077.42 1268.06 Q2079.58 1266.91 2082.66 1266.91 Q2083.1 1266.91 2083.63 1266.97 Q2084.16 1267.02 2084.81 1267.14 L2084.83 1271.51 Z" fill="#000000" fill-rule="nonzero" fill-opacity="1"></path><path clip-path="url(#clip840)" d="M2105.53 1280.19 Q2105.53 1275.56 2103.6 1273.02 Q2101.71 1270.47 2098.26 1270.47 Q2094.83 1270.47 2092.91 1273.02 Q2091.01 1275.56 2091.01 1280.19 Q2091.01 1284.8 2092.91 1287.35 Q2094.83 1289.89 2098.26 1289.89 Q2101.71 1289.89 2103.6 1287.35 Q2105.53 1284.8 2105.53 1280.19 M2109.79 1290.24 Q2109.79 1296.86 2106.85 1300.08 Q2103.91 1303.32 2097.84 1303.32 Q2095.6 1303.32 2093.6 1302.97 Q2091.61 1302.65 2089.74 1301.95 L2089.74 1297.81 Q2091.61 1298.83 2093.44 1299.31 Q2095.27 1299.8 2097.17 1299.8 Q2101.36 1299.8 2103.44 1297.6 Q2105.53 1295.42 2105.53 1291 L2105.53 1288.9 Q2104.21 1291.19 2102.15 1292.32 Q2100.09 1293.46 2097.22 1293.46 Q2092.45 1293.46 2089.53 1289.82 Q2086.61 1286.19 2086.61 1280.19 Q2086.61 1274.17 2089.53 1270.54 Q2092.45 1266.91 2097.22 1266.91 Q2100.09 1266.91 2102.15 1268.04 Q2104.21 1269.17 2105.53 1271.47 L2105.53 1267.53 L2109.79 1267.53 L2109.79 1290.24 Z" fill="#000000" fill-rule="nonzero" fill-opacity="1"></path><path clip-path="url(#clip840)" d="M2140.73 1279.43 L2140.73 1281.51 L2121.15 1281.51 Q2121.43 1285.91 2123.79 1288.22 Q2126.17 1290.52 2130.41 1290.52 Q2132.86 1290.52 2135.16 1289.91 Q2137.47 1289.31 2139.74 1288.11 L2139.74 1292.14 Q2137.45 1293.11 2135.04 1293.62 Q2132.63 1294.13 2130.16 1294.13 Q2123.95 1294.13 2120.32 1290.52 Q2116.71 1286.91 2116.71 1280.75 Q2116.71 1274.38 2120.13 1270.66 Q2123.58 1266.91 2129.41 1266.91 Q2134.65 1266.91 2137.68 1270.29 Q2140.73 1273.64 2140.73 1279.43 M2136.47 1278.18 Q2136.43 1274.68 2134.51 1272.6 Q2132.61 1270.52 2129.46 1270.52 Q2125.9 1270.52 2123.74 1272.53 Q2121.61 1274.54 2121.29 1278.2 L2136.47 1278.18 Z" fill="#000000" fill-rule="nonzero" fill-opacity="1"></path><path clip-path="url(#clip840)" d="M2151.94 1260.17 L2151.94 1267.53 L2160.71 1267.53 L2160.71 1270.84 L2151.94 1270.84 L2151.94 1284.91 Q2151.94 1288.09 2152.79 1288.99 Q2153.67 1289.89 2156.34 1289.89 L2160.71 1289.89 L2160.71 1293.46 L2156.34 1293.46 Q2151.41 1293.46 2149.53 1291.63 Q2147.66 1289.78 2147.66 1284.91 L2147.66 1270.84 L2144.53 1270.84 L2144.53 1267.53 L2147.66 1267.53 L2147.66 1260.17 L2151.94 1260.17 Z" fill="#000000" fill-rule="nonzero" fill-opacity="1"></path><polyline clip-path="url(#clip840)" style="stroke:#e26f46; stroke-linecap:round; stroke-linejoin:round; stroke-width:4; stroke-opacity:1; fill:none" points="1851.98,1328.02 1991.75,1328.02 "></polyline>
<path clip-path="url(#clip840)" d="M2040.6 1340.37 L2040.6 1331.08 L2032.96 1331.08 L2032.96 1327.24 L2045.23 1327.24 L2045.23 1342.08 Q2042.52 1344 2039.25 1345 Q2035.99 1345.97 2032.29 1345.97 Q2024.18 1345.97 2019.6 1341.25 Q2015.04 1336.5 2015.04 1328.05 Q2015.04 1319.58 2019.6 1314.86 Q2024.18 1310.11 2032.29 1310.11 Q2035.67 1310.11 2038.7 1310.94 Q2041.75 1311.78 2044.32 1313.4 L2044.32 1318.38 Q2041.73 1316.18 2038.81 1315.06 Q2035.9 1313.95 2032.68 1313.95 Q2026.34 1313.95 2023.14 1317.5 Q2019.97 1321.04 2019.97 1328.05 Q2019.97 1335.04 2023.14 1338.58 Q2026.34 1342.12 2032.68 1342.12 Q2035.16 1342.12 2037.1 1341.71 Q2039.04 1341.27 2040.6 1340.37 Z" fill="#000000" fill-rule="nonzero" fill-opacity="1"></path><path clip-path="url(#clip840)" d="M2075.76 1331.27 L2075.76 1333.35 L2056.17 1333.35 Q2056.45 1337.75 2058.81 1340.06 Q2061.2 1342.36 2065.43 1342.36 Q2067.89 1342.36 2070.18 1341.75 Q2072.49 1341.15 2074.76 1339.95 L2074.76 1343.98 Q2072.47 1344.95 2070.06 1345.46 Q2067.66 1345.97 2065.18 1345.97 Q2058.98 1345.97 2055.34 1342.36 Q2051.73 1338.75 2051.73 1332.59 Q2051.73 1326.22 2055.16 1322.5 Q2058.6 1318.75 2064.44 1318.75 Q2069.67 1318.75 2072.7 1322.13 Q2075.76 1325.48 2075.76 1331.27 M2071.5 1330.02 Q2071.45 1326.52 2069.53 1324.44 Q2067.63 1322.36 2064.48 1322.36 Q2060.92 1322.36 2058.77 1324.37 Q2056.64 1326.38 2056.31 1330.04 L2071.5 1330.02 Z" fill="#000000" fill-rule="nonzero" fill-opacity="1"></path><path clip-path="url(#clip840)" d="M2104.3 1329.65 L2104.3 1345.3 L2100.04 1345.3 L2100.04 1329.79 Q2100.04 1326.11 2098.6 1324.28 Q2097.17 1322.45 2094.3 1322.45 Q2090.85 1322.45 2088.86 1324.65 Q2086.87 1326.85 2086.87 1330.64 L2086.87 1345.3 L2082.59 1345.3 L2082.59 1319.37 L2086.87 1319.37 L2086.87 1323.4 Q2088.4 1321.06 2090.46 1319.9 Q2092.54 1318.75 2095.25 1318.75 Q2099.72 1318.75 2102.01 1321.52 Q2104.3 1324.28 2104.3 1329.65 Z" fill="#000000" fill-rule="nonzero" fill-opacity="1"></path><path clip-path="url(#clip840)" d="M2134.97 1331.27 L2134.97 1333.35 L2115.39 1333.35 Q2115.66 1337.75 2118.03 1340.06 Q2120.41 1342.36 2124.65 1342.36 Q2127.1 1342.36 2129.39 1341.75 Q2131.71 1341.15 2133.97 1339.95 L2133.97 1343.98 Q2131.68 1344.95 2129.28 1345.46 Q2126.87 1345.97 2124.39 1345.97 Q2118.19 1345.97 2114.55 1342.36 Q2110.94 1338.75 2110.94 1332.59 Q2110.94 1326.22 2114.37 1322.5 Q2117.82 1318.75 2123.65 1318.75 Q2128.88 1318.75 2131.91 1322.13 Q2134.97 1325.48 2134.97 1331.27 M2130.71 1330.02 Q2130.66 1326.52 2128.74 1324.44 Q2126.85 1322.36 2123.7 1322.36 Q2120.13 1322.36 2117.98 1324.37 Q2115.85 1326.38 2115.53 1330.04 L2130.71 1330.02 Z" fill="#000000" fill-rule="nonzero" fill-opacity="1"></path><path clip-path="url(#clip840)" d="M2156.98 1323.35 Q2156.27 1322.94 2155.41 1322.75 Q2154.58 1322.54 2153.56 1322.54 Q2149.95 1322.54 2148 1324.9 Q2146.08 1327.24 2146.08 1331.64 L2146.08 1345.3 L2141.8 1345.3 L2141.8 1319.37 L2146.08 1319.37 L2146.08 1323.4 Q2147.42 1321.04 2149.58 1319.9 Q2151.73 1318.75 2154.81 1318.75 Q2155.25 1318.75 2155.78 1318.81 Q2156.31 1318.86 2156.96 1318.98 L2156.98 1323.35 Z" fill="#000000" fill-rule="nonzero" fill-opacity="1"></path><path clip-path="url(#clip840)" d="M2173.23 1332.26 Q2168.07 1332.26 2166.08 1333.44 Q2164.09 1334.63 2164.09 1337.47 Q2164.09 1339.74 2165.57 1341.08 Q2167.08 1342.4 2169.65 1342.4 Q2173.19 1342.4 2175.32 1339.9 Q2177.47 1337.38 2177.47 1333.21 L2177.47 1332.26 L2173.23 1332.26 M2181.73 1330.5 L2181.73 1345.3 L2177.47 1345.3 L2177.47 1341.36 Q2176.01 1343.72 2173.84 1344.86 Q2171.66 1345.97 2168.51 1345.97 Q2164.53 1345.97 2162.17 1343.75 Q2159.83 1341.5 2159.83 1337.75 Q2159.83 1333.38 2162.75 1331.15 Q2165.69 1328.93 2171.5 1328.93 L2177.47 1328.93 L2177.47 1328.51 Q2177.47 1325.57 2175.53 1323.98 Q2173.6 1322.36 2170.11 1322.36 Q2167.89 1322.36 2165.78 1322.89 Q2163.67 1323.42 2161.73 1324.49 L2161.73 1320.55 Q2164.07 1319.65 2166.27 1319.21 Q2168.47 1318.75 2170.55 1318.75 Q2176.17 1318.75 2178.95 1321.66 Q2181.73 1324.58 2181.73 1330.5 Z" fill="#000000" fill-rule="nonzero" fill-opacity="1"></path><path clip-path="url(#clip840)" d="M2194.72 1312.01 L2194.72 1319.37 L2203.49 1319.37 L2203.49 1322.68 L2194.72 1322.68 L2194.72 1336.75 Q2194.72 1339.93 2195.57 1340.83 Q2196.45 1341.73 2199.11 1341.73 L2203.49 1341.73 L2203.49 1345.3 L2199.11 1345.3 Q2194.18 1345.3 2192.31 1343.47 Q2190.43 1341.62 2190.43 1336.75 L2190.43 1322.68 L2187.31 1322.68 L2187.31 1319.37 L2190.43 1319.37 L2190.43 1312.01 L2194.72 1312.01 Z" fill="#000000" fill-rule="nonzero" fill-opacity="1"></path><path clip-path="url(#clip840)" d="M2231.27 1331.27 L2231.27 1333.35 L2211.68 1333.35 Q2211.96 1337.75 2214.32 1340.06 Q2216.71 1342.36 2220.94 1342.36 Q2223.4 1342.36 2225.69 1341.75 Q2228 1341.15 2230.27 1339.95 L2230.27 1343.98 Q2227.98 1344.95 2225.57 1345.46 Q2223.16 1345.97 2220.69 1345.97 Q2214.48 1345.97 2210.85 1342.36 Q2207.24 1338.75 2207.24 1332.59 Q2207.24 1326.22 2210.66 1322.5 Q2214.11 1318.75 2219.95 1318.75 Q2225.18 1318.75 2228.21 1322.13 Q2231.27 1325.48 2231.27 1331.27 M2227.01 1330.02 Q2226.96 1326.52 2225.04 1324.44 Q2223.14 1322.36 2219.99 1322.36 Q2216.43 1322.36 2214.28 1324.37 Q2212.15 1326.38 2211.82 1330.04 L2227.01 1330.02 Z" fill="#000000" fill-rule="nonzero" fill-opacity="1"></path><path clip-path="url(#clip840)" d="M2255.32 1323.31 L2255.32 1309.28 L2259.58 1309.28 L2259.58 1345.3 L2255.32 1345.3 L2255.32 1341.41 Q2253.97 1343.72 2251.91 1344.86 Q2249.88 1345.97 2247.01 1345.97 Q2242.31 1345.97 2239.34 1342.22 Q2236.4 1338.47 2236.4 1332.36 Q2236.4 1326.25 2239.34 1322.5 Q2242.31 1318.75 2247.01 1318.75 Q2249.88 1318.75 2251.91 1319.88 Q2253.97 1320.99 2255.32 1323.31 M2240.8 1332.36 Q2240.8 1337.06 2242.72 1339.74 Q2244.67 1342.4 2248.05 1342.4 Q2251.43 1342.4 2253.37 1339.74 Q2255.32 1337.06 2255.32 1332.36 Q2255.32 1327.66 2253.37 1325 Q2251.43 1322.31 2248.05 1322.31 Q2244.67 1322.31 2242.72 1325 Q2240.8 1327.66 2240.8 1332.36 Z" fill="#000000" fill-rule="nonzero" fill-opacity="1"></path></svg>