<svg xmlns="http://www.w3.org/2000/svg" xmlns:xlink="http://www.w3.org/1999/xlink" width="600" height="400" viewBox="0 0 2400 1600">
<defs>
  <clipPath id="clip880">
    <rect x="0" y="0" width="2400" height="1600"></rect>
  </clipPath>
</defs>
<path clip-path="url(#clip880)" d="M0 1600 L2400 1600 L2400 0 L0 0  Z" fill="#ffffff" fill-rule="evenodd" fill-opacity="1"></path>
<defs>
  <clipPath id="clip881">
    <rect x="480" y="0" width="1681" height="1600"></rect>
  </clipPath>
</defs>
<path clip-path="url(#clip880)" d="M256.209 1423.18 L2352.76 1423.18 L2352.76 123.472 L256.209 123.472  Z" fill="#ffffff" fill-rule="evenodd" fill-opacity="1"></path>
<defs>
  <clipPath id="clip882">
    <rect x="256" y="123" width="2098" height="1301"></rect>
  </clipPath>
</defs>
<polyline clip-path="url(#clip882)" style="stroke:#000000; stroke-linecap:round; stroke-linejoin:round; stroke-width:2; stroke-opacity:0.1; fill:none" points="315.545,123.472 315.545,1423.18 "></polyline>
<polyline clip-path="url(#clip882)" style="stroke:#000000; stroke-linecap:round; stroke-linejoin:round; stroke-width:2; stroke-opacity:0.1; fill:none" points="810.014,123.472 810.014,1423.18 "></polyline>
<polyline clip-path="url(#clip882)" style="stroke:#000000; stroke-linecap:round; stroke-linejoin:round; stroke-width:2; stroke-opacity:0.1; fill:none" points="1304.48,123.472 1304.48,1423.18 "></polyline>
<polyline clip-path="url(#clip882)" style="stroke:#000000; stroke-linecap:round; stroke-linejoin:round; stroke-width:2; stroke-opacity:0.1; fill:none" points="1798.95,123.472 1798.95,1423.18 "></polyline>
<polyline clip-path="url(#clip882)" style="stroke:#000000; stroke-linecap:round; stroke-linejoin:round; stroke-width:2; stroke-opacity:0.1; fill:none" points="2293.42,123.472 2293.42,1423.18 "></polyline>
<polyline clip-path="url(#clip880)" style="stroke:#000000; stroke-linecap:round; stroke-linejoin:round; stroke-width:4; stroke-opacity:1; fill:none" points="256.209,1423.18 2352.76,1423.18 "></polyline>
<polyline clip-path="url(#clip880)" style="stroke:#000000; stroke-linecap:round; stroke-linejoin:round; stroke-width:4; stroke-opacity:1; fill:none" points="315.545,1423.18 315.545,1404.28 "></polyline>
<polyline clip-path="url(#clip880)" style="stroke:#000000; stroke-linecap:round; stroke-linejoin:round; stroke-width:4; stroke-opacity:1; fill:none" points="810.014,1423.18 810.014,1404.28 "></polyline>
<polyline clip-path="url(#clip880)" style="stroke:#000000; stroke-linecap:round; stroke-linejoin:round; stroke-width:4; stroke-opacity:1; fill:none" points="1304.48,1423.18 1304.48,1404.28 "></polyline>
<polyline clip-path="url(#clip880)" style="stroke:#000000; stroke-linecap:round; stroke-linejoin:round; stroke-width:4; stroke-opacity:1; fill:none" points="1798.95,1423.18 1798.95,1404.28 "></polyline>
<polyline clip-path="url(#clip880)" style="stroke:#000000; stroke-linecap:round; stroke-linejoin:round; stroke-width:4; stroke-opacity:1; fill:none" points="2293.42,1423.18 2293.42,1404.28 "></polyline>
<path clip-path="url(#clip880)" d="M277.848 1454.1 Q274.237 1454.1 272.409 1457.66 Q270.603 1461.2 270.603 1468.33 Q270.603 1475.44 272.409 1479.01 Q274.237 1482.55 277.848 1482.55 Q281.483 1482.55 283.288 1479.01 Q285.117 1475.44 285.117 1468.33 Q285.117 1461.2 283.288 1457.66 Q281.483 1454.1 277.848 1454.1 M277.848 1450.39 Q283.659 1450.39 286.714 1455 Q289.793 1459.58 289.793 1468.33 Q289.793 1477.06 286.714 1481.67 Q283.659 1486.25 277.848 1486.25 Q272.038 1486.25 268.96 1481.67 Q265.904 1477.06 265.904 1468.33 Q265.904 1459.58 268.96 1455 Q272.038 1450.39 277.848 1450.39 Z" fill="#000000" fill-rule="nonzero" fill-opacity="1"></path><path clip-path="url(#clip880)" d="M298.01 1479.7 L302.895 1479.7 L302.895 1485.58 L298.01 1485.58 L298.01 1479.7 Z" fill="#000000" fill-rule="nonzero" fill-opacity="1"></path><path clip-path="url(#clip880)" d="M323.08 1454.1 Q319.468 1454.1 317.64 1457.66 Q315.834 1461.2 315.834 1468.33 Q315.834 1475.44 317.64 1479.01 Q319.468 1482.55 323.08 1482.55 Q326.714 1482.55 328.519 1479.01 Q330.348 1475.44 330.348 1468.33 Q330.348 1461.2 328.519 1457.66 Q326.714 1454.1 323.08 1454.1 M323.08 1450.39 Q328.89 1450.39 331.945 1455 Q335.024 1459.58 335.024 1468.33 Q335.024 1477.06 331.945 1481.67 Q328.89 1486.25 323.08 1486.25 Q317.269 1486.25 314.191 1481.67 Q311.135 1477.06 311.135 1468.33 Q311.135 1459.58 314.191 1455 Q317.269 1450.39 323.08 1450.39 Z" fill="#000000" fill-rule="nonzero" fill-opacity="1"></path><path clip-path="url(#clip880)" d="M353.241 1454.1 Q349.63 1454.1 347.802 1457.66 Q345.996 1461.2 345.996 1468.33 Q345.996 1475.44 347.802 1479.01 Q349.63 1482.55 353.241 1482.55 Q356.876 1482.55 358.681 1479.01 Q360.51 1475.44 360.51 1468.33 Q360.51 1461.2 358.681 1457.66 Q356.876 1454.1 353.241 1454.1 M353.241 1450.39 Q359.052 1450.39 362.107 1455 Q365.186 1459.58 365.186 1468.33 Q365.186 1477.06 362.107 1481.67 Q359.052 1486.25 353.241 1486.25 Q347.431 1486.25 344.353 1481.67 Q341.297 1477.06 341.297 1468.33 Q341.297 1459.58 344.353 1455 Q347.431 1450.39 353.241 1450.39 Z" fill="#000000" fill-rule="nonzero" fill-opacity="1"></path><path clip-path="url(#clip880)" d="M772.815 1454.1 Q769.204 1454.1 767.375 1457.66 Q765.569 1461.2 765.569 1468.33 Q765.569 1475.44 767.375 1479.01 Q769.204 1482.55 772.815 1482.55 Q776.449 1482.55 778.255 1479.01 Q780.083 1475.44 780.083 1468.33 Q780.083 1461.2 778.255 1457.66 Q776.449 1454.1 772.815 1454.1 M772.815 1450.39 Q778.625 1450.39 781.68 1455 Q784.759 1459.58 784.759 1468.33 Q784.759 1477.06 781.68 1481.67 Q778.625 1486.25 772.815 1486.25 Q767.005 1486.25 763.926 1481.67 Q760.87 1477.06 760.87 1468.33 Q760.87 1459.58 763.926 1455 Q767.005 1450.39 772.815 1450.39 Z" fill="#000000" fill-rule="nonzero" fill-opacity="1"></path><path clip-path="url(#clip880)" d="M792.977 1479.7 L797.861 1479.7 L797.861 1485.58 L792.977 1485.58 L792.977 1479.7 Z" fill="#000000" fill-rule="nonzero" fill-opacity="1"></path><path clip-path="url(#clip880)" d="M812.074 1481.64 L828.393 1481.64 L828.393 1485.58 L806.449 1485.58 L806.449 1481.64 Q809.111 1478.89 813.694 1474.26 Q818.301 1469.61 819.481 1468.27 Q821.726 1465.74 822.606 1464.01 Q823.509 1462.25 823.509 1460.56 Q823.509 1457.8 821.564 1456.07 Q819.643 1454.33 816.541 1454.33 Q814.342 1454.33 811.889 1455.09 Q809.458 1455.86 806.68 1457.41 L806.68 1452.69 Q809.504 1451.55 811.958 1450.97 Q814.412 1450.39 816.449 1450.39 Q821.819 1450.39 825.014 1453.08 Q828.208 1455.77 828.208 1460.26 Q828.208 1462.39 827.398 1464.31 Q826.611 1466.2 824.504 1468.8 Q823.926 1469.47 820.824 1472.69 Q817.722 1475.88 812.074 1481.64 Z" fill="#000000" fill-rule="nonzero" fill-opacity="1"></path><path clip-path="url(#clip880)" d="M838.254 1451.02 L856.611 1451.02 L856.611 1454.96 L842.537 1454.96 L842.537 1463.43 Q843.555 1463.08 844.574 1462.92 Q845.592 1462.73 846.611 1462.73 Q852.398 1462.73 855.777 1465.9 Q859.157 1469.08 859.157 1474.49 Q859.157 1480.07 855.685 1483.17 Q852.212 1486.25 845.893 1486.25 Q843.717 1486.25 841.449 1485.88 Q839.203 1485.51 836.796 1484.77 L836.796 1480.07 Q838.879 1481.2 841.101 1481.76 Q843.324 1482.32 845.8 1482.32 Q849.805 1482.32 852.143 1480.21 Q854.481 1478.1 854.481 1474.49 Q854.481 1470.88 852.143 1468.77 Q849.805 1466.67 845.8 1466.67 Q843.925 1466.67 842.05 1467.08 Q840.199 1467.5 838.254 1468.38 L838.254 1451.02 Z" fill="#000000" fill-rule="nonzero" fill-opacity="1"></path><path clip-path="url(#clip880)" d="M1266.79 1454.1 Q1263.17 1454.1 1261.35 1457.66 Q1259.54 1461.2 1259.54 1468.33 Q1259.54 1475.44 1261.35 1479.01 Q1263.17 1482.55 1266.79 1482.55 Q1270.42 1482.55 1272.23 1479.01 Q1274.05 1475.44 1274.05 1468.33 Q1274.05 1461.2 1272.23 1457.66 Q1270.42 1454.1 1266.79 1454.1 M1266.79 1450.39 Q1272.6 1450.39 1275.65 1455 Q1278.73 1459.58 1278.73 1468.33 Q1278.73 1477.06 1275.65 1481.67 Q1272.6 1486.25 1266.79 1486.25 Q1260.98 1486.25 1257.9 1481.67 Q1254.84 1477.06 1254.84 1468.33 Q1254.84 1459.58 1257.9 1455 Q1260.98 1450.39 1266.79 1450.39 Z" fill="#000000" fill-rule="nonzero" fill-opacity="1"></path><path clip-path="url(#clip880)" d="M1286.95 1479.7 L1291.83 1479.7 L1291.83 1485.58 L1286.95 1485.58 L1286.95 1479.7 Z" fill="#000000" fill-rule="nonzero" fill-opacity="1"></path><path clip-path="url(#clip880)" d="M1302.06 1451.02 L1320.42 1451.02 L1320.42 1454.96 L1306.35 1454.96 L1306.35 1463.43 Q1307.36 1463.08 1308.38 1462.92 Q1309.4 1462.73 1310.42 1462.73 Q1316.21 1462.73 1319.59 1465.9 Q1322.97 1469.08 1322.97 1474.49 Q1322.97 1480.07 1319.49 1483.17 Q1316.02 1486.25 1309.7 1486.25 Q1307.53 1486.25 1305.26 1485.88 Q1303.01 1485.51 1300.6 1484.77 L1300.6 1480.07 Q1302.69 1481.2 1304.91 1481.76 Q1307.13 1482.32 1309.61 1482.32 Q1313.61 1482.32 1315.95 1480.21 Q1318.29 1478.1 1318.29 1474.49 Q1318.29 1470.88 1315.95 1468.77 Q1313.61 1466.67 1309.61 1466.67 Q1307.73 1466.67 1305.86 1467.08 Q1304.01 1467.5 1302.06 1468.38 L1302.06 1451.02 Z" fill="#000000" fill-rule="nonzero" fill-opacity="1"></path><path clip-path="url(#clip880)" d="M1342.18 1454.1 Q1338.57 1454.1 1336.74 1457.66 Q1334.93 1461.2 1334.93 1468.33 Q1334.93 1475.44 1336.74 1479.01 Q1338.57 1482.55 1342.18 1482.55 Q1345.81 1482.55 1347.62 1479.01 Q1349.45 1475.44 1349.45 1468.33 Q1349.45 1461.2 1347.62 1457.66 Q1345.81 1454.1 1342.18 1454.1 M1342.18 1450.39 Q1347.99 1450.39 1351.04 1455 Q1354.12 1459.58 1354.12 1468.33 Q1354.12 1477.06 1351.04 1481.67 Q1347.99 1486.25 1342.18 1486.25 Q1336.37 1486.25 1333.29 1481.67 Q1330.23 1477.06 1330.23 1468.33 Q1330.23 1459.58 1333.29 1455 Q1336.37 1450.39 1342.18 1450.39 Z" fill="#000000" fill-rule="nonzero" fill-opacity="1"></path><path clip-path="url(#clip880)" d="M1761.75 1454.1 Q1758.14 1454.1 1756.31 1457.66 Q1754.51 1461.2 1754.51 1468.33 Q1754.51 1475.44 1756.31 1479.01 Q1758.14 1482.55 1761.75 1482.55 Q1765.39 1482.55 1767.19 1479.01 Q1769.02 1475.44 1769.02 1468.33 Q1769.02 1461.2 1767.19 1457.66 Q1765.39 1454.1 1761.75 1454.1 M1761.75 1450.39 Q1767.56 1450.39 1770.62 1455 Q1773.7 1459.58 1773.7 1468.33 Q1773.7 1477.06 1770.62 1481.67 Q1767.56 1486.25 1761.75 1486.25 Q1755.94 1486.25 1752.86 1481.67 Q1749.81 1477.06 1749.81 1468.33 Q1749.81 1459.58 1752.86 1455 Q1755.94 1450.39 1761.75 1450.39 Z" fill="#000000" fill-rule="nonzero" fill-opacity="1"></path><path clip-path="url(#clip880)" d="M1781.91 1479.7 L1786.8 1479.7 L1786.8 1485.58 L1781.91 1485.58 L1781.91 1479.7 Z" fill="#000000" fill-rule="nonzero" fill-opacity="1"></path><path clip-path="url(#clip880)" d="M1795.8 1451.02 L1818.02 1451.02 L1818.02 1453.01 L1805.48 1485.58 L1800.59 1485.58 L1812.4 1454.96 L1795.8 1454.96 L1795.8 1451.02 Z" fill="#000000" fill-rule="nonzero" fill-opacity="1"></path><path clip-path="url(#clip880)" d="M1827.19 1451.02 L1845.55 1451.02 L1845.55 1454.96 L1831.47 1454.96 L1831.47 1463.43 Q1832.49 1463.08 1833.51 1462.92 Q1834.53 1462.73 1835.55 1462.73 Q1841.34 1462.73 1844.71 1465.9 Q1848.09 1469.08 1848.09 1474.49 Q1848.09 1480.07 1844.62 1483.17 Q1841.15 1486.25 1834.83 1486.25 Q1832.65 1486.25 1830.39 1485.88 Q1828.14 1485.51 1825.73 1484.77 L1825.73 1480.07 Q1827.82 1481.2 1830.04 1481.76 Q1832.26 1482.32 1834.74 1482.32 Q1838.74 1482.32 1841.08 1480.21 Q1843.42 1478.1 1843.42 1474.49 Q1843.42 1470.88 1841.08 1468.77 Q1838.74 1466.67 1834.74 1466.67 Q1832.86 1466.67 1830.99 1467.08 Q1829.14 1467.5 1827.19 1468.38 L1827.19 1451.02 Z" fill="#000000" fill-rule="nonzero" fill-opacity="1"></path><path clip-path="url(#clip880)" d="M2245.49 1481.64 L2253.13 1481.64 L2253.13 1455.28 L2244.82 1456.95 L2244.82 1452.69 L2253.08 1451.02 L2257.76 1451.02 L2257.76 1481.64 L2265.4 1481.64 L2265.4 1485.58 L2245.49 1485.58 L2245.49 1481.64 Z" fill="#000000" fill-rule="nonzero" fill-opacity="1"></path><path clip-path="url(#clip880)" d="M2274.84 1479.7 L2279.73 1479.7 L2279.73 1485.58 L2274.84 1485.58 L2274.84 1479.7 Z" fill="#000000" fill-rule="nonzero" fill-opacity="1"></path><path clip-path="url(#clip880)" d="M2299.91 1454.1 Q2296.3 1454.1 2294.47 1457.66 Q2292.67 1461.2 2292.67 1468.33 Q2292.67 1475.44 2294.47 1479.01 Q2296.3 1482.55 2299.91 1482.55 Q2303.55 1482.55 2305.35 1479.01 Q2307.18 1475.44 2307.18 1468.33 Q2307.18 1461.2 2305.35 1457.66 Q2303.55 1454.1 2299.91 1454.1 M2299.91 1450.39 Q2305.72 1450.39 2308.78 1455 Q2311.86 1459.58 2311.86 1468.33 Q2311.86 1477.06 2308.78 1481.67 Q2305.72 1486.25 2299.91 1486.25 Q2294.1 1486.25 2291.02 1481.67 Q2287.97 1477.06 2287.97 1468.33 Q2287.97 1459.58 2291.02 1455 Q2294.1 1450.39 2299.91 1450.39 Z" fill="#000000" fill-rule="nonzero" fill-opacity="1"></path><path clip-path="url(#clip880)" d="M2330.07 1454.1 Q2326.46 1454.1 2324.63 1457.66 Q2322.83 1461.2 2322.83 1468.33 Q2322.83 1475.44 2324.63 1479.01 Q2326.46 1482.55 2330.07 1482.55 Q2333.71 1482.55 2335.51 1479.01 Q2337.34 1475.44 2337.34 1468.33 Q2337.34 1461.2 2335.51 1457.66 Q2333.71 1454.1 2330.07 1454.1 M2330.07 1450.39 Q2335.88 1450.39 2338.94 1455 Q2342.02 1459.58 2342.02 1468.33 Q2342.02 1477.06 2338.94 1481.67 Q2335.88 1486.25 2330.07 1486.25 Q2324.26 1486.25 2321.19 1481.67 Q2318.13 1477.06 2318.13 1468.33 Q2318.13 1459.58 2321.19 1455 Q2324.26 1450.39 2330.07 1450.39 Z" fill="#000000" fill-rule="nonzero" fill-opacity="1"></path><path clip-path="url(#clip880)" d="M1293.15 1532.4 L1280.26 1549.74 L1293.82 1568.04 L1286.91 1568.04 L1276.54 1554.04 L1266.16 1568.04 L1259.25 1568.04 L1273.1 1549.39 L1260.43 1532.4 L1267.34 1532.4 L1276.79 1545.1 L1286.24 1532.4 L1293.15 1532.4 Z" fill="#000000" fill-rule="nonzero" fill-opacity="1"></path><path clip-path="url(#clip880)" d="M1312.5 1520.52 L1317.91 1520.52 L1301.36 1574.09 L1295.95 1574.09 L1312.5 1520.52 Z" fill="#000000" fill-rule="nonzero" fill-opacity="1"></path><path clip-path="url(#clip880)" d="M1349.71 1533.76 L1349.71 1539.24 Q1347.23 1537.87 1344.71 1537.2 Q1342.23 1536.5 1339.68 1536.5 Q1333.99 1536.5 1330.84 1540.13 Q1327.69 1543.73 1327.69 1550.25 Q1327.69 1556.78 1330.84 1560.4 Q1333.99 1564 1339.68 1564 Q1342.23 1564 1344.71 1563.33 Q1347.23 1562.63 1349.71 1561.26 L1349.71 1566.68 Q1347.26 1567.82 1344.62 1568.39 Q1342.01 1568.97 1339.05 1568.97 Q1331 1568.97 1326.25 1563.91 Q1321.51 1558.85 1321.51 1550.25 Q1321.51 1541.53 1326.28 1536.53 Q1331.09 1531.54 1339.43 1531.54 Q1342.14 1531.54 1344.71 1532.11 Q1347.29 1532.65 1349.71 1533.76 Z" fill="#000000" fill-rule="nonzero" fill-opacity="1"></path><polyline clip-path="url(#clip882)" style="stroke:#000000; stroke-linecap:round; stroke-linejoin:round; stroke-width:2; stroke-opacity:0.1; fill:none" points="256.209,354.341 2352.76,354.341 "></polyline>
<polyline clip-path="url(#clip882)" style="stroke:#000000; stroke-linecap:round; stroke-linejoin:round; stroke-width:2; stroke-opacity:0.1; fill:none" points="256.209,698.285 2352.76,698.285 "></polyline>
<polyline clip-path="url(#clip882)" style="stroke:#000000; stroke-linecap:round; stroke-linejoin:round; stroke-width:2; stroke-opacity:0.1; fill:none" points="256.209,1042.23 2352.76,1042.23 "></polyline>
<polyline clip-path="url(#clip882)" style="stroke:#000000; stroke-linecap:round; stroke-linejoin:round; stroke-width:2; stroke-opacity:0.1; fill:none" points="256.209,1386.17 2352.76,1386.17 "></polyline>
<polyline clip-path="url(#clip880)" style="stroke:#000000; stroke-linecap:round; stroke-linejoin:round; stroke-width:4; stroke-opacity:1; fill:none" points="256.209,123.472 256.209,1423.18 "></polyline>
<polyline clip-path="url(#clip880)" style="stroke:#000000; stroke-linecap:round; stroke-linejoin:round; stroke-width:4; stroke-opacity:1; fill:none" points="256.209,354.341 275.106,354.341 "></polyline>
<polyline clip-path="url(#clip880)" style="stroke:#000000; stroke-linecap:round; stroke-linejoin:round; stroke-width:4; stroke-opacity:1; fill:none" points="256.209,698.285 275.106,698.285 "></polyline>
<polyline clip-path="url(#clip880)" style="stroke:#000000; stroke-linecap:round; stroke-linejoin:round; stroke-width:4; stroke-opacity:1; fill:none" points="256.209,1042.23 275.106,1042.23 "></polyline>
<polyline clip-path="url(#clip880)" style="stroke:#000000; stroke-linecap:round; stroke-linejoin:round; stroke-width:4; stroke-opacity:1; fill:none" points="256.209,1386.17 275.106,1386.17 "></polyline>
<path clip-path="url(#clip880)" d="M114.26 354.793 L143.936 354.793 L143.936 358.728 L114.26 358.728 L114.26 354.793 Z" fill="#000000" fill-rule="nonzero" fill-opacity="1"></path><path clip-path="url(#clip880)" d="M164.028 340.14 Q160.417 340.14 158.589 343.705 Q156.783 347.246 156.783 354.376 Q156.783 361.482 158.589 365.047 Q160.417 368.589 164.028 368.589 Q167.663 368.589 169.468 365.047 Q171.297 361.482 171.297 354.376 Q171.297 347.246 169.468 343.705 Q167.663 340.14 164.028 340.14 M164.028 336.436 Q169.839 336.436 172.894 341.043 Q175.973 345.626 175.973 354.376 Q175.973 363.103 172.894 367.709 Q169.839 372.292 164.028 372.292 Q158.218 372.292 155.14 367.709 Q152.084 363.103 152.084 354.376 Q152.084 345.626 155.14 341.043 Q158.218 336.436 164.028 336.436 Z" fill="#000000" fill-rule="nonzero" fill-opacity="1"></path><path clip-path="url(#clip880)" d="M184.19 365.742 L189.075 365.742 L189.075 371.621 L184.19 371.621 L184.19 365.742 Z" fill="#000000" fill-rule="nonzero" fill-opacity="1"></path><path clip-path="url(#clip880)" d="M199.306 337.061 L217.662 337.061 L217.662 340.996 L203.588 340.996 L203.588 349.469 Q204.607 349.121 205.625 348.959 Q206.644 348.774 207.662 348.774 Q213.449 348.774 216.829 351.945 Q220.209 355.117 220.209 360.533 Q220.209 366.112 216.736 369.214 Q213.264 372.292 206.945 372.292 Q204.769 372.292 202.5 371.922 Q200.255 371.552 197.848 370.811 L197.848 366.112 Q199.931 367.246 202.153 367.802 Q204.375 368.357 206.852 368.357 Q210.857 368.357 213.195 366.251 Q215.533 364.144 215.533 360.533 Q215.533 356.922 213.195 354.816 Q210.857 352.709 206.852 352.709 Q204.977 352.709 203.102 353.126 Q201.25 353.543 199.306 354.422 L199.306 337.061 Z" fill="#000000" fill-rule="nonzero" fill-opacity="1"></path><path clip-path="url(#clip880)" d="M163.033 684.084 Q159.422 684.084 157.593 687.648 Q155.788 691.19 155.788 698.32 Q155.788 705.426 157.593 708.991 Q159.422 712.533 163.033 712.533 Q166.667 712.533 168.473 708.991 Q170.302 705.426 170.302 698.32 Q170.302 691.19 168.473 687.648 Q166.667 684.084 163.033 684.084 M163.033 680.38 Q168.843 680.38 171.899 684.986 Q174.977 689.57 174.977 698.32 Q174.977 707.046 171.899 711.653 Q168.843 716.236 163.033 716.236 Q157.223 716.236 154.144 711.653 Q151.089 707.046 151.089 698.32 Q151.089 689.57 154.144 684.986 Q157.223 680.38 163.033 680.38 Z" fill="#000000" fill-rule="nonzero" fill-opacity="1"></path><path clip-path="url(#clip880)" d="M183.195 709.685 L188.079 709.685 L188.079 715.565 L183.195 715.565 L183.195 709.685 Z" fill="#000000" fill-rule="nonzero" fill-opacity="1"></path><path clip-path="url(#clip880)" d="M208.264 684.084 Q204.653 684.084 202.824 687.648 Q201.019 691.19 201.019 698.32 Q201.019 705.426 202.824 708.991 Q204.653 712.533 208.264 712.533 Q211.899 712.533 213.704 708.991 Q215.533 705.426 215.533 698.32 Q215.533 691.19 213.704 687.648 Q211.899 684.084 208.264 684.084 M208.264 680.38 Q214.074 680.38 217.13 684.986 Q220.209 689.57 220.209 698.32 Q220.209 707.046 217.13 711.653 Q214.074 716.236 208.264 716.236 Q202.454 716.236 199.375 711.653 Q196.32 707.046 196.32 698.32 Q196.32 689.57 199.375 684.986 Q202.454 680.38 208.264 680.38 Z" fill="#000000" fill-rule="nonzero" fill-opacity="1"></path><path clip-path="url(#clip880)" d="M164.028 1028.03 Q160.417 1028.03 158.589 1031.59 Q156.783 1035.13 156.783 1042.26 Q156.783 1049.37 158.589 1052.93 Q160.417 1056.48 164.028 1056.48 Q167.663 1056.48 169.468 1052.93 Q171.297 1049.37 171.297 1042.26 Q171.297 1035.13 169.468 1031.59 Q167.663 1028.03 164.028 1028.03 M164.028 1024.32 Q169.839 1024.32 172.894 1028.93 Q175.973 1033.51 175.973 1042.26 Q175.973 1050.99 172.894 1055.6 Q169.839 1060.18 164.028 1060.18 Q158.218 1060.18 155.14 1055.6 Q152.084 1050.99 152.084 1042.26 Q152.084 1033.51 155.14 1028.93 Q158.218 1024.32 164.028 1024.32 Z" fill="#000000" fill-rule="nonzero" fill-opacity="1"></path><path clip-path="url(#clip880)" d="M184.19 1053.63 L189.075 1053.63 L189.075 1059.51 L184.19 1059.51 L184.19 1053.63 Z" fill="#000000" fill-rule="nonzero" fill-opacity="1"></path><path clip-path="url(#clip880)" d="M199.306 1024.95 L217.662 1024.95 L217.662 1028.88 L203.588 1028.88 L203.588 1037.36 Q204.607 1037.01 205.625 1036.85 Q206.644 1036.66 207.662 1036.66 Q213.449 1036.66 216.829 1039.83 Q220.209 1043 220.209 1048.42 Q220.209 1054 216.736 1057.1 Q213.264 1060.18 206.945 1060.18 Q204.769 1060.18 202.5 1059.81 Q200.255 1059.44 197.848 1058.7 L197.848 1054 Q199.931 1055.13 202.153 1055.69 Q204.375 1056.24 206.852 1056.24 Q210.857 1056.24 213.195 1054.14 Q215.533 1052.03 215.533 1048.42 Q215.533 1044.81 213.195 1042.7 Q210.857 1040.6 206.852 1040.6 Q204.977 1040.6 203.102 1041.01 Q201.25 1041.43 199.306 1042.31 L199.306 1024.95 Z" fill="#000000" fill-rule="nonzero" fill-opacity="1"></path><path clip-path="url(#clip880)" d="M153.843 1399.52 L161.482 1399.52 L161.482 1373.15 L153.172 1374.82 L153.172 1370.56 L161.436 1368.89 L166.112 1368.89 L166.112 1399.52 L173.751 1399.52 L173.751 1403.45 L153.843 1403.45 L153.843 1399.52 Z" fill="#000000" fill-rule="nonzero" fill-opacity="1"></path><path clip-path="url(#clip880)" d="M183.195 1397.57 L188.079 1397.57 L188.079 1403.45 L183.195 1403.45 L183.195 1397.57 Z" fill="#000000" fill-rule="nonzero" fill-opacity="1"></path><path clip-path="url(#clip880)" d="M208.264 1371.97 Q204.653 1371.97 202.824 1375.54 Q201.019 1379.08 201.019 1386.21 Q201.019 1393.31 202.824 1396.88 Q204.653 1400.42 208.264 1400.42 Q211.899 1400.42 213.704 1396.88 Q215.533 1393.31 215.533 1386.21 Q215.533 1379.08 213.704 1375.54 Q211.899 1371.97 208.264 1371.97 M208.264 1368.27 Q214.074 1368.27 217.13 1372.87 Q220.209 1377.46 220.209 1386.21 Q220.209 1394.93 217.13 1399.54 Q214.074 1404.12 208.264 1404.12 Q202.454 1404.12 199.375 1399.54 Q196.32 1394.93 196.32 1386.21 Q196.32 1377.46 199.375 1372.87 Q202.454 1368.27 208.264 1368.27 Z" fill="#000000" fill-rule="nonzero" fill-opacity="1"></path><path clip-path="url(#clip880)" d="M29.7248 780.153 L35.1993 780.153 Q33.8307 782.636 33.1623 785.15 Q32.4621 787.633 32.4621 790.179 Q32.4621 795.876 36.0905 799.028 Q39.6872 802.179 46.212 802.179 Q52.7369 802.179 56.3653 799.028 Q59.9619 795.876 59.9619 790.179 Q59.9619 787.633 59.2935 785.15 Q58.5933 782.636 57.2247 780.153 L62.6355 780.153 Q63.7814 782.604 64.3543 785.246 Q64.9272 787.856 64.9272 790.816 Q64.9272 798.868 59.8664 803.611 Q54.8057 808.353 46.212 808.353 Q37.491 808.353 32.4939 803.579 Q27.4968 798.773 27.4968 790.434 Q27.4968 787.728 28.0697 785.15 Q28.6108 782.572 29.7248 780.153 Z" fill="#000000" fill-rule="nonzero" fill-opacity="1"></path><path clip-path="url(#clip880)" d="M58.657 764.303 L77.5631 764.303 L77.5631 770.191 L28.3562 770.191 L28.3562 764.303 L33.7671 764.303 Q30.5842 762.457 29.0564 759.656 Q27.4968 756.823 27.4968 752.908 Q27.4968 746.415 32.6531 742.373 Q37.8093 738.299 46.212 738.299 Q54.6147 738.299 59.771 742.373 Q64.9272 746.415 64.9272 752.908 Q64.9272 756.823 63.3994 759.656 Q61.8398 762.457 58.657 764.303 M46.212 744.378 Q39.7508 744.378 36.0905 747.052 Q32.3984 749.693 32.3984 754.34 Q32.3984 758.987 36.0905 761.661 Q39.7508 764.303 46.212 764.303 Q52.6732 764.303 56.3653 761.661 Q60.0256 758.987 60.0256 754.34 Q60.0256 749.693 56.3653 747.052 Q52.6732 744.378 46.212 744.378 Z" fill="#000000" fill-rule="nonzero" fill-opacity="1"></path><path clip-path="url(#clip880)" d="M638.169 18.8205 L638.169 41.5461 L648.459 41.5461 Q654.17 41.5461 657.29 38.5889 Q660.409 35.6318 660.409 30.163 Q660.409 24.7348 657.29 21.7777 Q654.17 18.8205 648.459 18.8205 L638.169 18.8205 M629.986 12.096 L648.459 12.096 Q658.626 12.096 663.812 16.714 Q669.037 21.2916 669.037 30.163 Q669.037 39.1155 663.812 43.6931 Q658.626 48.2706 648.459 48.2706 L638.169 48.2706 L638.169 72.576 L629.986 72.576 L629.986 12.096 Z" fill="#000000" fill-rule="nonzero" fill-opacity="1"></path><path clip-path="url(#clip880)" d="M704.523 34.1734 Q703.267 33.4443 701.769 33.1202 Q700.31 32.7556 698.528 32.7556 Q692.208 32.7556 688.806 36.8875 Q685.443 40.9789 685.443 48.6757 L685.443 72.576 L677.949 72.576 L677.949 27.2059 L685.443 27.2059 L685.443 34.2544 Q687.793 30.1225 691.56 28.1376 Q695.328 26.1121 700.715 26.1121 Q701.485 26.1121 702.417 26.2337 Q703.348 26.3147 704.483 26.5172 L704.523 34.1734 Z" fill="#000000" fill-rule="nonzero" fill-opacity="1"></path><path clip-path="url(#clip880)" d="M749.326 48.0275 L749.326 51.6733 L715.055 51.6733 Q715.542 59.3701 719.673 63.421 Q723.846 67.4314 731.259 67.4314 Q735.553 67.4314 739.563 66.3781 Q743.614 65.3249 747.584 63.2184 L747.584 70.267 Q743.574 71.9684 739.361 72.8596 Q735.148 73.7508 730.813 73.7508 Q719.957 73.7508 713.597 67.4314 Q707.278 61.1119 707.278 50.3365 Q707.278 39.1965 713.273 32.6746 Q719.309 26.1121 729.517 26.1121 Q738.672 26.1121 743.979 32.0264 Q749.326 37.9003 749.326 48.0275 M741.872 45.84 Q741.791 39.7232 738.429 36.0774 Q735.107 32.4315 729.598 32.4315 Q723.36 32.4315 719.592 35.9558 Q715.866 39.4801 715.299 45.8805 L741.872 45.84 Z" fill="#000000" fill-rule="nonzero" fill-opacity="1"></path><path clip-path="url(#clip880)" d="M790.483 28.5427 L790.483 35.5912 Q787.324 33.9709 783.921 33.1607 Q780.518 32.3505 776.872 32.3505 Q771.323 32.3505 768.527 34.0519 Q765.773 35.7533 765.773 39.156 Q765.773 41.7486 767.758 43.2475 Q769.743 44.7058 775.738 46.0426 L778.29 46.6097 Q786.23 48.3111 789.552 51.4303 Q792.914 54.509 792.914 60.0587 Q792.914 66.3781 787.891 70.0644 Q782.908 73.7508 774.158 73.7508 Q770.512 73.7508 766.542 73.0216 Q762.613 72.3329 758.238 70.9151 L758.238 63.2184 Q762.37 65.3654 766.38 66.4591 Q770.391 67.5124 774.32 67.5124 Q779.586 67.5124 782.422 65.73 Q785.258 63.9071 785.258 60.6258 Q785.258 57.5877 783.192 55.9673 Q781.166 54.3469 774.239 52.8481 L771.647 52.2405 Q764.72 50.7821 761.641 47.7845 Q758.562 44.7463 758.562 39.4801 Q758.562 33.0797 763.099 29.5959 Q767.636 26.1121 775.981 26.1121 Q780.113 26.1121 783.759 26.7198 Q787.405 27.3274 790.483 28.5427 Z" fill="#000000" fill-rule="nonzero" fill-opacity="1"></path><path clip-path="url(#clip880)" d="M833.706 28.5427 L833.706 35.5912 Q830.547 33.9709 827.144 33.1607 Q823.741 32.3505 820.095 32.3505 Q814.546 32.3505 811.751 34.0519 Q808.996 35.7533 808.996 39.156 Q808.996 41.7486 810.981 43.2475 Q812.966 44.7058 818.961 46.0426 L821.513 46.6097 Q829.453 48.3111 832.775 51.4303 Q836.137 54.509 836.137 60.0587 Q836.137 66.3781 831.114 70.0644 Q826.131 73.7508 817.381 73.7508 Q813.735 73.7508 809.766 73.0216 Q805.836 72.3329 801.461 70.9151 L801.461 63.2184 Q805.593 65.3654 809.604 66.4591 Q813.614 67.5124 817.543 67.5124 Q822.81 67.5124 825.645 65.73 Q828.481 63.9071 828.481 60.6258 Q828.481 57.5877 826.415 55.9673 Q824.389 54.3469 817.462 52.8481 L814.87 52.2405 Q807.943 50.7821 804.864 47.7845 Q801.785 44.7463 801.785 39.4801 Q801.785 33.0797 806.322 29.5959 Q810.859 26.1121 819.204 26.1121 Q823.336 26.1121 826.982 26.7198 Q830.628 27.3274 833.706 28.5427 Z" fill="#000000" fill-rule="nonzero" fill-opacity="1"></path><path clip-path="url(#clip880)" d="M847.236 54.671 L847.236 27.2059 L854.69 27.2059 L854.69 54.3874 Q854.69 60.8284 857.202 64.0691 Q859.713 67.2693 864.736 67.2693 Q870.772 67.2693 874.256 63.421 Q877.78 59.5726 877.78 52.9291 L877.78 27.2059 L885.234 27.2059 L885.234 72.576 L877.78 72.576 L877.78 65.6084 Q875.066 69.7404 871.461 71.7658 Q867.896 73.7508 863.157 73.7508 Q855.338 73.7508 851.287 68.8897 Q847.236 64.0286 847.236 54.671 M865.992 26.1121 L865.992 26.1121 Z" fill="#000000" fill-rule="nonzero" fill-opacity="1"></path><path clip-path="url(#clip880)" d="M926.877 34.1734 Q925.621 33.4443 924.123 33.1202 Q922.664 32.7556 920.882 32.7556 Q914.562 32.7556 911.16 36.8875 Q907.797 40.9789 907.797 48.6757 L907.797 72.576 L900.303 72.576 L900.303 27.2059 L907.797 27.2059 L907.797 34.2544 Q910.147 30.1225 913.914 28.1376 Q917.682 26.1121 923.069 26.1121 Q923.839 26.1121 924.771 26.2337 Q925.702 26.3147 926.837 26.5172 L926.877 34.1734 Z" fill="#000000" fill-rule="nonzero" fill-opacity="1"></path><path clip-path="url(#clip880)" d="M971.68 48.0275 L971.68 51.6733 L937.41 51.6733 Q937.896 59.3701 942.028 63.421 Q946.2 67.4314 953.613 67.4314 Q957.907 67.4314 961.918 66.3781 Q965.968 65.3249 969.938 63.2184 L969.938 70.267 Q965.928 71.9684 961.715 72.8596 Q957.502 73.7508 953.168 73.7508 Q942.311 73.7508 935.951 67.4314 Q929.632 61.1119 929.632 50.3365 Q929.632 39.1965 935.627 32.6746 Q941.663 26.1121 951.871 26.1121 Q961.026 26.1121 966.333 32.0264 Q971.68 37.9003 971.68 48.0275 M964.227 45.84 Q964.146 39.7232 960.783 36.0774 Q957.462 32.4315 951.952 32.4315 Q945.714 32.4315 941.947 35.9558 Q938.22 39.4801 937.653 45.8805 L964.227 45.84 Z" fill="#000000" fill-rule="nonzero" fill-opacity="1"></path><path clip-path="url(#clip880)" d="M1040.14 34.0924 L1040.14 9.54393 L1047.59 9.54393 L1047.59 72.576 L1040.14 72.576 L1040.14 65.7705 Q1037.79 69.8214 1034.19 71.8063 Q1030.62 73.7508 1025.6 73.7508 Q1017.37 73.7508 1012.19 67.1883 Q1007.04 60.6258 1007.04 49.9314 Q1007.04 39.2371 1012.19 32.6746 Q1017.37 26.1121 1025.6 26.1121 Q1030.62 26.1121 1034.19 28.0971 Q1037.79 30.0415 1040.14 34.0924 M1014.74 49.9314 Q1014.74 58.1548 1018.1 62.8538 Q1021.51 67.5124 1027.42 67.5124 Q1033.34 67.5124 1036.74 62.8538 Q1040.14 58.1548 1040.14 49.9314 Q1040.14 41.7081 1036.74 37.0496 Q1033.34 32.3505 1027.42 32.3505 Q1021.51 32.3505 1018.1 37.0496 Q1014.74 41.7081 1014.74 49.9314 Z" fill="#000000" fill-rule="nonzero" fill-opacity="1"></path><path clip-path="url(#clip880)" d="M1062.95 27.2059 L1070.4 27.2059 L1070.4 72.576 L1062.95 72.576 L1062.95 27.2059 M1062.95 9.54393 L1070.4 9.54393 L1070.4 18.9825 L1062.95 18.9825 L1062.95 9.54393 Z" fill="#000000" fill-rule="nonzero" fill-opacity="1"></path><path clip-path="url(#clip880)" d="M1114.92 28.5427 L1114.92 35.5912 Q1111.76 33.9709 1108.36 33.1607 Q1104.95 32.3505 1101.31 32.3505 Q1095.76 32.3505 1092.96 34.0519 Q1090.21 35.7533 1090.21 39.156 Q1090.21 41.7486 1092.19 43.2475 Q1094.18 44.7058 1100.17 46.0426 L1102.73 46.6097 Q1110.67 48.3111 1113.99 51.4303 Q1117.35 54.509 1117.35 60.0587 Q1117.35 66.3781 1112.33 70.0644 Q1107.35 73.7508 1098.6 73.7508 Q1094.95 73.7508 1090.98 73.0216 Q1087.05 72.3329 1082.68 70.9151 L1082.68 63.2184 Q1086.81 65.3654 1090.82 66.4591 Q1094.83 67.5124 1098.76 67.5124 Q1104.02 67.5124 1106.86 65.73 Q1109.69 63.9071 1109.69 60.6258 Q1109.69 57.5877 1107.63 55.9673 Q1105.6 54.3469 1098.68 52.8481 L1096.08 52.2405 Q1089.16 50.7821 1086.08 47.7845 Q1083 44.7463 1083 39.4801 Q1083 33.0797 1087.54 29.5959 Q1092.07 26.1121 1100.42 26.1121 Q1104.55 26.1121 1108.2 26.7198 Q1111.84 27.3274 1114.92 28.5427 Z" fill="#000000" fill-rule="nonzero" fill-opacity="1"></path><path clip-path="url(#clip880)" d="M1136.59 14.324 L1136.59 27.2059 L1151.95 27.2059 L1151.95 32.9987 L1136.59 32.9987 L1136.59 57.6282 Q1136.59 63.1779 1138.09 64.7578 Q1139.63 66.3376 1144.29 66.3376 L1151.95 66.3376 L1151.95 72.576 L1144.29 72.576 Q1135.66 72.576 1132.38 69.3758 Q1129.1 66.1351 1129.1 57.6282 L1129.1 32.9987 L1123.63 32.9987 L1123.63 27.2059 L1129.1 27.2059 L1129.1 14.324 L1136.59 14.324 Z" fill="#000000" fill-rule="nonzero" fill-opacity="1"></path><path clip-path="url(#clip880)" d="M1188.04 34.1734 Q1186.78 33.4443 1185.28 33.1202 Q1183.83 32.7556 1182.04 32.7556 Q1175.72 32.7556 1172.32 36.8875 Q1168.96 40.9789 1168.96 48.6757 L1168.96 72.576 L1161.47 72.576 L1161.47 27.2059 L1168.96 27.2059 L1168.96 34.2544 Q1171.31 30.1225 1175.08 28.1376 Q1178.84 26.1121 1184.23 26.1121 Q1185 26.1121 1185.93 26.2337 Q1186.86 26.3147 1188 26.5172 L1188.04 34.1734 Z" fill="#000000" fill-rule="nonzero" fill-opacity="1"></path><path clip-path="url(#clip880)" d="M1195.86 27.2059 L1203.31 27.2059 L1203.31 72.576 L1195.86 72.576 L1195.86 27.2059 M1195.86 9.54393 L1203.31 9.54393 L1203.31 18.9825 L1195.86 18.9825 L1195.86 9.54393 Z" fill="#000000" fill-rule="nonzero" fill-opacity="1"></path><path clip-path="url(#clip880)" d="M1251.48 49.9314 Q1251.48 41.7081 1248.07 37.0496 Q1244.71 32.3505 1238.8 32.3505 Q1232.88 32.3505 1229.48 37.0496 Q1226.12 41.7081 1226.12 49.9314 Q1226.12 58.1548 1229.48 62.8538 Q1232.88 67.5124 1238.8 67.5124 Q1244.71 67.5124 1248.07 62.8538 Q1251.48 58.1548 1251.48 49.9314 M1226.12 34.0924 Q1228.47 30.0415 1232.03 28.0971 Q1235.64 26.1121 1240.62 26.1121 Q1248.88 26.1121 1254.03 32.6746 Q1259.21 39.2371 1259.21 49.9314 Q1259.21 60.6258 1254.03 67.1883 Q1248.88 73.7508 1240.62 73.7508 Q1235.64 73.7508 1232.03 71.8063 Q1228.47 69.8214 1226.12 65.7705 L1226.12 72.576 L1218.62 72.576 L1218.62 9.54393 L1226.12 9.54393 L1226.12 34.0924 Z" fill="#000000" fill-rule="nonzero" fill-opacity="1"></path><path clip-path="url(#clip880)" d="M1270.8 54.671 L1270.8 27.2059 L1278.25 27.2059 L1278.25 54.3874 Q1278.25 60.8284 1280.76 64.0691 Q1283.28 67.2693 1288.3 67.2693 Q1294.33 67.2693 1297.82 63.421 Q1301.34 59.5726 1301.34 52.9291 L1301.34 27.2059 L1308.8 27.2059 L1308.8 72.576 L1301.34 72.576 L1301.34 65.6084 Q1298.63 69.7404 1295.02 71.7658 Q1291.46 73.7508 1286.72 73.7508 Q1278.9 73.7508 1274.85 68.8897 Q1270.8 64.0286 1270.8 54.671 M1289.55 26.1121 L1289.55 26.1121 Z" fill="#000000" fill-rule="nonzero" fill-opacity="1"></path><path clip-path="url(#clip880)" d="M1331.52 14.324 L1331.52 27.2059 L1346.87 27.2059 L1346.87 32.9987 L1331.52 32.9987 L1331.52 57.6282 Q1331.52 63.1779 1333.02 64.7578 Q1334.56 66.3376 1339.22 66.3376 L1346.87 66.3376 L1346.87 72.576 L1339.22 72.576 Q1330.59 72.576 1327.31 69.3758 Q1324.03 66.1351 1324.03 57.6282 L1324.03 32.9987 L1318.56 32.9987 L1318.56 27.2059 L1324.03 27.2059 L1324.03 14.324 L1331.52 14.324 Z" fill="#000000" fill-rule="nonzero" fill-opacity="1"></path><path clip-path="url(#clip880)" d="M1356.68 27.2059 L1364.13 27.2059 L1364.13 72.576 L1356.68 72.576 L1356.68 27.2059 M1356.68 9.54393 L1364.13 9.54393 L1364.13 18.9825 L1356.68 18.9825 L1356.68 9.54393 Z" fill="#000000" fill-rule="nonzero" fill-opacity="1"></path><path clip-path="url(#clip880)" d="M1397.31 32.4315 Q1391.31 32.4315 1387.83 37.1306 Q1384.35 41.7891 1384.35 49.9314 Q1384.35 58.0738 1387.79 62.7728 Q1391.27 67.4314 1397.31 67.4314 Q1403.26 67.4314 1406.75 62.7323 Q1410.23 58.0333 1410.23 49.9314 Q1410.23 41.8701 1406.75 37.1711 Q1403.26 32.4315 1397.31 32.4315 M1397.31 26.1121 Q1407.03 26.1121 1412.58 32.4315 Q1418.13 38.7509 1418.13 49.9314 Q1418.13 61.0714 1412.58 67.4314 Q1407.03 73.7508 1397.31 73.7508 Q1387.55 73.7508 1382 67.4314 Q1376.49 61.0714 1376.49 49.9314 Q1376.49 38.7509 1382 32.4315 Q1387.55 26.1121 1397.31 26.1121 Z" fill="#000000" fill-rule="nonzero" fill-opacity="1"></path><path clip-path="url(#clip880)" d="M1468.2 45.1919 L1468.2 72.576 L1460.75 72.576 L1460.75 45.4349 Q1460.75 38.994 1458.23 35.7938 Q1455.72 32.5936 1450.7 32.5936 Q1444.66 32.5936 1441.18 36.4419 Q1437.7 40.2903 1437.7 46.9338 L1437.7 72.576 L1430.2 72.576 L1430.2 27.2059 L1437.7 27.2059 L1437.7 34.2544 Q1440.37 30.163 1443.98 28.1376 Q1447.62 26.1121 1452.36 26.1121 Q1460.18 26.1121 1464.19 30.9732 Q1468.2 35.7938 1468.2 45.1919 Z" fill="#000000" fill-rule="nonzero" fill-opacity="1"></path><path clip-path="url(#clip880)" d="M1542.09 28.9478 L1542.09 35.9153 Q1538.93 34.1734 1535.73 33.3227 Q1532.57 32.4315 1529.33 32.4315 Q1522.08 32.4315 1518.07 37.0496 Q1514.06 41.6271 1514.06 49.9314 Q1514.06 58.2358 1518.07 62.8538 Q1522.08 67.4314 1529.33 67.4314 Q1532.57 67.4314 1535.73 66.5807 Q1538.93 65.6895 1542.09 63.9476 L1542.09 70.8341 Q1538.97 72.2924 1535.61 73.0216 Q1532.28 73.7508 1528.52 73.7508 Q1518.27 73.7508 1512.23 67.3098 Q1506.2 60.8689 1506.2 49.9314 Q1506.2 38.832 1512.27 32.472 Q1518.39 26.1121 1529 26.1121 Q1532.45 26.1121 1535.73 26.8413 Q1539.01 27.5299 1542.09 28.9478 Z" fill="#000000" fill-rule="nonzero" fill-opacity="1"></path><path clip-path="url(#clip880)" d="M1572.63 32.4315 Q1566.64 32.4315 1563.15 37.1306 Q1559.67 41.7891 1559.67 49.9314 Q1559.67 58.0738 1563.11 62.7728 Q1566.6 67.4314 1572.63 67.4314 Q1578.59 67.4314 1582.07 62.7323 Q1585.55 58.0333 1585.55 49.9314 Q1585.55 41.8701 1582.07 37.1711 Q1578.59 32.4315 1572.63 32.4315 M1572.63 26.1121 Q1582.35 26.1121 1587.9 32.4315 Q1593.45 38.7509 1593.45 49.9314 Q1593.45 61.0714 1587.9 67.4314 Q1582.35 73.7508 1572.63 73.7508 Q1562.87 73.7508 1557.32 67.4314 Q1551.81 61.0714 1551.81 49.9314 Q1551.81 38.7509 1557.32 32.4315 Q1562.87 26.1121 1572.63 26.1121 Z" fill="#000000" fill-rule="nonzero" fill-opacity="1"></path><path clip-path="url(#clip880)" d="M1641.13 35.9153 Q1643.93 30.8922 1647.82 28.5022 Q1651.71 26.1121 1656.97 26.1121 Q1664.06 26.1121 1667.91 31.0947 Q1671.76 36.0368 1671.76 45.1919 L1671.76 72.576 L1664.26 72.576 L1664.26 45.4349 Q1664.26 38.913 1661.95 35.7533 Q1659.65 32.5936 1654.91 32.5936 Q1649.11 32.5936 1645.75 36.4419 Q1642.39 40.2903 1642.39 46.9338 L1642.39 72.576 L1634.89 72.576 L1634.89 45.4349 Q1634.89 38.8725 1632.59 35.7533 Q1630.28 32.5936 1625.46 32.5936 Q1619.74 32.5936 1616.38 36.4824 Q1613.02 40.3308 1613.02 46.9338 L1613.02 72.576 L1605.53 72.576 L1605.53 27.2059 L1613.02 27.2059 L1613.02 34.2544 Q1615.57 30.082 1619.14 28.0971 Q1622.7 26.1121 1627.6 26.1121 Q1632.54 26.1121 1635.99 28.6237 Q1639.47 31.1352 1641.13 35.9153 Z" fill="#000000" fill-rule="nonzero" fill-opacity="1"></path><path clip-path="url(#clip880)" d="M1693.83 65.7705 L1693.83 89.8329 L1686.34 89.8329 L1686.34 27.2059 L1693.83 27.2059 L1693.83 34.0924 Q1696.18 30.0415 1699.75 28.0971 Q1703.35 26.1121 1708.34 26.1121 Q1716.6 26.1121 1721.75 32.6746 Q1726.93 39.2371 1726.93 49.9314 Q1726.93 60.6258 1721.75 67.1883 Q1716.6 73.7508 1708.34 73.7508 Q1703.35 73.7508 1699.75 71.8063 Q1696.18 69.8214 1693.83 65.7705 M1719.19 49.9314 Q1719.19 41.7081 1715.79 37.0496 Q1712.43 32.3505 1706.51 32.3505 Q1700.6 32.3505 1697.2 37.0496 Q1693.83 41.7081 1693.83 49.9314 Q1693.83 58.1548 1697.2 62.8538 Q1700.6 67.5124 1706.51 67.5124 Q1712.43 67.5124 1715.79 62.8538 Q1719.19 58.1548 1719.19 49.9314 Z" fill="#000000" fill-rule="nonzero" fill-opacity="1"></path><path clip-path="url(#clip880)" d="M1759.91 49.7694 Q1750.87 49.7694 1747.39 51.8354 Q1743.9 53.9013 1743.9 58.8839 Q1743.9 62.8538 1746.5 65.2034 Q1749.13 67.5124 1753.63 67.5124 Q1759.82 67.5124 1763.55 63.1374 Q1767.32 58.7219 1767.32 51.4303 L1767.32 49.7694 L1759.91 49.7694 M1774.77 46.6907 L1774.77 72.576 L1767.32 72.576 L1767.32 65.6895 Q1764.77 69.8214 1760.96 71.8063 Q1757.15 73.7508 1751.64 73.7508 Q1744.67 73.7508 1740.54 69.8619 Q1736.45 65.9325 1736.45 59.3701 Q1736.45 51.7138 1741.55 47.825 Q1746.7 43.9361 1756.87 43.9361 L1767.32 43.9361 L1767.32 43.2069 Q1767.32 38.0623 1763.92 35.2672 Q1760.55 32.4315 1754.44 32.4315 Q1750.55 32.4315 1746.86 33.3632 Q1743.17 34.295 1739.77 36.1584 L1739.77 29.2718 Q1743.86 27.692 1747.71 26.9223 Q1751.56 26.1121 1755.21 26.1121 Q1765.05 26.1121 1769.91 31.2163 Q1774.77 36.3204 1774.77 46.6907 Z" fill="#000000" fill-rule="nonzero" fill-opacity="1"></path><path clip-path="url(#clip880)" d="M1816.42 34.1734 Q1815.16 33.4443 1813.66 33.1202 Q1812.2 32.7556 1810.42 32.7556 Q1804.1 32.7556 1800.7 36.8875 Q1797.34 40.9789 1797.34 48.6757 L1797.34 72.576 L1789.84 72.576 L1789.84 27.2059 L1797.34 27.2059 L1797.34 34.2544 Q1799.69 30.1225 1803.45 28.1376 Q1807.22 26.1121 1812.61 26.1121 Q1813.38 26.1121 1814.31 26.2337 Q1815.24 26.3147 1816.37 26.5172 L1816.42 34.1734 Z" fill="#000000" fill-rule="nonzero" fill-opacity="1"></path><path clip-path="url(#clip880)" d="M1824.23 27.2059 L1831.69 27.2059 L1831.69 72.576 L1824.23 72.576 L1824.23 27.2059 M1824.23 9.54393 L1831.69 9.54393 L1831.69 18.9825 L1824.23 18.9825 L1824.23 9.54393 Z" fill="#000000" fill-rule="nonzero" fill-opacity="1"></path><path clip-path="url(#clip880)" d="M1876.21 28.5427 L1876.21 35.5912 Q1873.05 33.9709 1869.64 33.1607 Q1866.24 32.3505 1862.6 32.3505 Q1857.05 32.3505 1854.25 34.0519 Q1851.5 35.7533 1851.5 39.156 Q1851.5 41.7486 1853.48 43.2475 Q1855.47 44.7058 1861.46 46.0426 L1864.01 46.6097 Q1871.95 48.3111 1875.27 51.4303 Q1878.64 54.509 1878.64 60.0587 Q1878.64 66.3781 1873.61 70.0644 Q1868.63 73.7508 1859.88 73.7508 Q1856.24 73.7508 1852.27 73.0216 Q1848.34 72.3329 1843.96 70.9151 L1843.96 63.2184 Q1848.09 65.3654 1852.1 66.4591 Q1856.11 67.5124 1860.04 67.5124 Q1865.31 67.5124 1868.15 65.73 Q1870.98 63.9071 1870.98 60.6258 Q1870.98 57.5877 1868.92 55.9673 Q1866.89 54.3469 1859.96 52.8481 L1857.37 52.2405 Q1850.44 50.7821 1847.36 47.7845 Q1844.29 44.7463 1844.29 39.4801 Q1844.29 33.0797 1848.82 29.5959 Q1853.36 26.1121 1861.7 26.1121 Q1865.84 26.1121 1869.48 26.7198 Q1873.13 27.3274 1876.21 28.5427 Z" fill="#000000" fill-rule="nonzero" fill-opacity="1"></path><path clip-path="url(#clip880)" d="M1908.09 32.4315 Q1902.09 32.4315 1898.61 37.1306 Q1895.12 41.7891 1895.12 49.9314 Q1895.12 58.0738 1898.57 62.7728 Q1902.05 67.4314 1908.09 67.4314 Q1914.04 67.4314 1917.53 62.7323 Q1921.01 58.0333 1921.01 49.9314 Q1921.01 41.8701 1917.53 37.1711 Q1914.04 32.4315 1908.09 32.4315 M1908.09 26.1121 Q1917.81 26.1121 1923.36 32.4315 Q1928.91 38.7509 1928.91 49.9314 Q1928.91 61.0714 1923.36 67.4314 Q1917.81 73.7508 1908.09 73.7508 Q1898.32 73.7508 1892.77 67.4314 Q1887.27 61.0714 1887.27 49.9314 Q1887.27 38.7509 1892.77 32.4315 Q1898.32 26.1121 1908.09 26.1121 Z" fill="#000000" fill-rule="nonzero" fill-opacity="1"></path><path clip-path="url(#clip880)" d="M1978.98 45.1919 L1978.98 72.576 L1971.52 72.576 L1971.52 45.4349 Q1971.52 38.994 1969.01 35.7938 Q1966.5 32.5936 1961.48 32.5936 Q1955.44 32.5936 1951.96 36.4419 Q1948.47 40.2903 1948.47 46.9338 L1948.47 72.576 L1940.98 72.576 L1940.98 27.2059 L1948.47 27.2059 L1948.47 34.2544 Q1951.15 30.163 1954.75 28.1376 Q1958.4 26.1121 1963.14 26.1121 Q1970.96 26.1121 1974.97 30.9732 Q1978.98 35.7938 1978.98 45.1919 Z" fill="#000000" fill-rule="nonzero" fill-opacity="1"></path><polyline clip-path="url(#clip882)" style="stroke:#009af9; stroke-linecap:round; stroke-linejoin:round; stroke-width:4; stroke-opacity:1; fill:none" points="2293.42,1151.04 2234.85,866.719 2065.39,659.889 1803.74,503.207 1480.03,341.516 1133.09,226.139 801.226,183.225 533.206,222.437 364.947,499.327 315.545,1386.4 373.398,498.05 518.124,582.872 734.214,667.23 1002.09,715.965 1302.16,744.045 1605.54,772.146 1881.21,809.867 2101.67,855.025 2244.14,981.797 2293.42,1151.88 "></polyline>
<polyline clip-path="url(#clip882)" style="stroke:#e26f46; stroke-linecap:round; stroke-linejoin:round; stroke-width:4; stroke-opacity:1; fill:none" points="2293.42,1150.47 2234.85,863.368 2065.39,638.852 1803.74,488.996 1480.03,364.301 1133.09,235.196 801.226,160.256 533.206,247.264 364.947,502.012 315.545,1373.26 373.398,491.226 518.124,570.489 734.214,661.397 1002.09,725.696 1302.16,747.749 1605.54,778.614 1881.21,807.819 2101.67,850.134 2244.14,1016.5 2293.42,1150.47 "></polyline>
<path clip-path="url(#clip880)" d="M1665.19 1379.86 L2282.87 1379.86 L2282.87 1224.34 L1665.19 1224.34  Z" fill="#ffffff" fill-rule="evenodd" fill-opacity="1"></path>
<polyline clip-path="url(#clip880)" style="stroke:#000000; stroke-linecap:round; stroke-linejoin:round; stroke-width:4; stroke-opacity:1; fill:none" points="1665.19,1379.86 2282.87,1379.86 2282.87,1224.34 1665.19,1224.34 1665.19,1379.86 "></polyline>
<polyline clip-path="url(#clip880)" style="stroke:#009af9; stroke-linecap:round; stroke-linejoin:round; stroke-width:4; stroke-opacity:1; fill:none" points="1688.48,1276.18 1828.25,1276.18 "></polyline>
<path clip-path="url(#clip880)" d="M1872.05 1268.53 L1872.05 1272.51 Q1870.25 1271.51 1868.42 1271.03 Q1866.62 1270.52 1864.76 1270.52 Q1860.62 1270.52 1858.33 1273.16 Q1856.04 1275.77 1856.04 1280.52 Q1856.04 1285.26 1858.33 1287.9 Q1860.62 1290.52 1864.76 1290.52 Q1866.62 1290.52 1868.42 1290.03 Q1870.25 1289.52 1872.05 1288.53 L1872.05 1292.46 Q1870.27 1293.29 1868.35 1293.71 Q1866.45 1294.13 1864.3 1294.13 Q1858.44 1294.13 1854.99 1290.45 Q1851.55 1286.77 1851.55 1280.52 Q1851.55 1274.17 1855.02 1270.54 Q1858.51 1266.91 1864.58 1266.91 Q1866.55 1266.91 1868.42 1267.32 Q1870.3 1267.72 1872.05 1268.53 Z" fill="#000000" fill-rule="nonzero" fill-opacity="1"></path><path clip-path="url(#clip880)" d="M1883.58 1289.57 L1883.58 1303.32 L1879.3 1303.32 L1879.3 1267.53 L1883.58 1267.53 L1883.58 1271.47 Q1884.93 1269.15 1886.96 1268.04 Q1889.02 1266.91 1891.87 1266.91 Q1896.59 1266.91 1899.53 1270.66 Q1902.49 1274.41 1902.49 1280.52 Q1902.49 1286.63 1899.53 1290.38 Q1896.59 1294.13 1891.87 1294.13 Q1889.02 1294.13 1886.96 1293.02 Q1884.93 1291.88 1883.58 1289.57 M1898.07 1280.52 Q1898.07 1275.82 1896.13 1273.16 Q1894.21 1270.47 1890.83 1270.47 Q1887.45 1270.47 1885.5 1273.16 Q1883.58 1275.82 1883.58 1280.52 Q1883.58 1285.22 1885.5 1287.9 Q1887.45 1290.56 1890.83 1290.56 Q1894.21 1290.56 1896.13 1287.9 Q1898.07 1285.22 1898.07 1280.52 Z" fill="#000000" fill-rule="nonzero" fill-opacity="1"></path><path clip-path="url(#clip880)" d="M1926.61 1280.19 Q1926.61 1275.56 1924.69 1273.02 Q1922.8 1270.47 1919.35 1270.47 Q1915.92 1270.47 1914 1273.02 Q1912.1 1275.56 1912.1 1280.19 Q1912.1 1284.8 1914 1287.35 Q1915.92 1289.89 1919.35 1289.89 Q1922.8 1289.89 1924.69 1287.35 Q1926.61 1284.8 1926.61 1280.19 M1930.87 1290.24 Q1930.87 1296.86 1927.93 1300.08 Q1924.99 1303.32 1918.93 1303.32 Q1916.68 1303.32 1914.69 1302.97 Q1912.7 1302.65 1910.83 1301.95 L1910.83 1297.81 Q1912.7 1298.83 1914.53 1299.31 Q1916.36 1299.8 1918.26 1299.8 Q1922.45 1299.8 1924.53 1297.6 Q1926.61 1295.42 1926.61 1291 L1926.61 1288.9 Q1925.3 1291.19 1923.24 1292.32 Q1921.18 1293.46 1918.3 1293.46 Q1913.54 1293.46 1910.62 1289.82 Q1907.7 1286.19 1907.7 1280.19 Q1907.7 1274.17 1910.62 1270.54 Q1913.54 1266.91 1918.3 1266.91 Q1921.18 1266.91 1923.24 1268.04 Q1925.3 1269.17 1926.61 1271.47 L1926.61 1267.53 L1930.87 1267.53 L1930.87 1290.24 Z" fill="#000000" fill-rule="nonzero" fill-opacity="1"></path><path clip-path="url(#clip880)" d="M1961.82 1279.43 L1961.82 1281.51 L1942.24 1281.51 Q1942.52 1285.91 1944.88 1288.22 Q1947.26 1290.52 1951.5 1290.52 Q1953.95 1290.52 1956.24 1289.91 Q1958.56 1289.31 1960.83 1288.11 L1960.83 1292.14 Q1958.54 1293.11 1956.13 1293.62 Q1953.72 1294.13 1951.24 1294.13 Q1945.04 1294.13 1941.41 1290.52 Q1937.8 1286.91 1937.8 1280.75 Q1937.8 1274.38 1941.22 1270.66 Q1944.67 1266.91 1950.5 1266.91 Q1955.74 1266.91 1958.77 1270.29 Q1961.82 1273.64 1961.82 1279.43 M1957.56 1278.18 Q1957.52 1274.68 1955.6 1272.6 Q1953.7 1270.52 1950.55 1270.52 Q1946.99 1270.52 1944.83 1272.53 Q1942.7 1274.54 1942.38 1278.2 L1957.56 1278.18 Z" fill="#000000" fill-rule="nonzero" fill-opacity="1"></path><path clip-path="url(#clip880)" d="M1990.36 1277.81 L1990.36 1293.46 L1986.11 1293.46 L1986.11 1277.95 Q1986.11 1274.27 1984.67 1272.44 Q1983.23 1270.61 1980.36 1270.61 Q1976.92 1270.61 1974.92 1272.81 Q1972.93 1275.01 1972.93 1278.8 L1972.93 1293.46 L1968.65 1293.46 L1968.65 1267.53 L1972.93 1267.53 L1972.93 1271.56 Q1974.46 1269.22 1976.52 1268.06 Q1978.61 1266.91 1981.31 1266.91 Q1985.78 1266.91 1988.07 1269.68 Q1990.36 1272.44 1990.36 1277.81 Z" fill="#000000" fill-rule="nonzero" fill-opacity="1"></path><path clip-path="url(#clip880)" d="M2009.46 1261.97 Q2005.85 1261.97 2004.02 1265.54 Q2002.22 1269.08 2002.22 1276.21 Q2002.22 1283.32 2004.02 1286.88 Q2005.85 1290.42 2009.46 1290.42 Q2013.1 1290.42 2014.9 1286.88 Q2016.73 1283.32 2016.73 1276.21 Q2016.73 1269.08 2014.9 1265.54 Q2013.1 1261.97 2009.46 1261.97 M2009.46 1258.27 Q2015.27 1258.27 2018.33 1262.88 Q2021.41 1267.46 2021.41 1276.21 Q2021.41 1284.94 2018.33 1289.54 Q2015.27 1294.13 2009.46 1294.13 Q2003.65 1294.13 2000.57 1289.54 Q1997.52 1284.94 1997.52 1276.21 Q1997.52 1267.46 2000.57 1262.88 Q2003.65 1258.27 2009.46 1258.27 Z" fill="#000000" fill-rule="nonzero" fill-opacity="1"></path><path clip-path="url(#clip880)" d="M2039.62 1277.04 Q2036.29 1277.04 2034.37 1278.83 Q2032.47 1280.61 2032.47 1283.73 Q2032.47 1286.86 2034.37 1288.64 Q2036.29 1290.42 2039.62 1290.42 Q2042.96 1290.42 2044.88 1288.64 Q2046.8 1286.84 2046.8 1283.73 Q2046.8 1280.61 2044.88 1278.83 Q2042.98 1277.04 2039.62 1277.04 M2034.95 1275.05 Q2031.94 1274.31 2030.25 1272.25 Q2028.58 1270.19 2028.58 1267.23 Q2028.58 1263.09 2031.52 1260.68 Q2034.48 1258.27 2039.62 1258.27 Q2044.79 1258.27 2047.73 1260.68 Q2050.67 1263.09 2050.67 1267.23 Q2050.67 1270.19 2048.98 1272.25 Q2047.31 1274.31 2044.32 1275.05 Q2047.7 1275.84 2049.58 1278.13 Q2051.48 1280.42 2051.48 1283.73 Q2051.48 1288.76 2048.4 1291.44 Q2045.34 1294.13 2039.62 1294.13 Q2033.91 1294.13 2030.83 1291.44 Q2027.77 1288.76 2027.77 1283.73 Q2027.77 1280.42 2029.67 1278.13 Q2031.57 1275.84 2034.95 1275.05 M2033.23 1267.67 Q2033.23 1270.35 2034.9 1271.86 Q2036.59 1273.36 2039.62 1273.36 Q2042.63 1273.36 2044.32 1271.86 Q2046.04 1270.35 2046.04 1267.67 Q2046.04 1264.98 2044.32 1263.48 Q2042.63 1261.97 2039.62 1261.97 Q2036.59 1261.97 2034.9 1263.48 Q2033.23 1264.98 2033.23 1267.67 Z" fill="#000000" fill-rule="nonzero" fill-opacity="1"></path><path clip-path="url(#clip880)" d="M2080.73 1277.81 L2080.73 1293.46 L2076.48 1293.46 L2076.48 1277.95 Q2076.48 1274.27 2075.04 1272.44 Q2073.6 1270.61 2070.73 1270.61 Q2067.29 1270.61 2065.29 1272.81 Q2063.3 1275.01 2063.3 1278.8 L2063.3 1293.46 L2059.02 1293.46 L2059.02 1267.53 L2063.3 1267.53 L2063.3 1271.56 Q2064.83 1269.22 2066.89 1268.06 Q2068.98 1266.91 2071.68 1266.91 Q2076.15 1266.91 2078.44 1269.68 Q2080.73 1272.44 2080.73 1277.81 Z" fill="#000000" fill-rule="nonzero" fill-opacity="1"></path><polyline clip-path="url(#clip880)" style="stroke:#e26f46; stroke-linecap:round; stroke-linejoin:round; stroke-width:4; stroke-opacity:1; fill:none" points="1688.48,1328.02 1828.25,1328.02 "></polyline>
<path clip-path="url(#clip880)" d="M1851.55 1310.74 L1857.84 1310.74 L1873.17 1339.65 L1873.17 1310.74 L1877.7 1310.74 L1877.7 1345.3 L1871.41 1345.3 L1856.08 1316.38 L1856.08 1345.3 L1851.55 1345.3 L1851.55 1310.74 Z" fill="#000000" fill-rule="nonzero" fill-opacity="1"></path><path clip-path="url(#clip880)" d="M1898.56 1315.34 L1892.22 1332.54 L1904.93 1332.54 L1898.56 1315.34 M1895.92 1310.74 L1901.22 1310.74 L1914.39 1345.3 L1909.53 1345.3 L1906.38 1336.43 L1890.8 1336.43 L1887.66 1345.3 L1882.73 1345.3 L1895.92 1310.74 Z" fill="#000000" fill-rule="nonzero" fill-opacity="1"></path><path clip-path="url(#clip880)" d="M1944.49 1313.4 L1944.49 1318.33 Q1942.12 1316.13 1939.44 1315.04 Q1936.78 1313.95 1933.77 1313.95 Q1927.84 1313.95 1924.69 1317.59 Q1921.55 1321.2 1921.55 1328.05 Q1921.55 1334.88 1924.69 1338.51 Q1927.84 1342.12 1933.77 1342.12 Q1936.78 1342.12 1939.44 1341.04 Q1942.12 1339.95 1944.49 1337.75 L1944.49 1342.63 Q1942.03 1344.3 1939.28 1345.13 Q1936.55 1345.97 1933.49 1345.97 Q1925.64 1345.97 1921.13 1341.18 Q1916.61 1336.36 1916.61 1328.05 Q1916.61 1319.72 1921.13 1314.93 Q1925.64 1310.11 1933.49 1310.11 Q1936.59 1310.11 1939.32 1310.94 Q1942.08 1311.75 1944.49 1313.4 Z" fill="#000000" fill-rule="nonzero" fill-opacity="1"></path><path clip-path="url(#clip880)" d="M1963.26 1315.34 L1956.92 1332.54 L1969.62 1332.54 L1963.26 1315.34 M1960.62 1310.74 L1965.92 1310.74 L1979.09 1345.3 L1974.23 1345.3 L1971.08 1336.43 L1955.5 1336.43 L1952.36 1345.3 L1947.42 1345.3 L1960.62 1310.74 Z" fill="#000000" fill-rule="nonzero" fill-opacity="1"></path><path clip-path="url(#clip880)" d="M2012.47 1314.81 L2000.67 1333.26 L2012.47 1333.26 L2012.47 1314.81 M2011.24 1310.74 L2017.12 1310.74 L2017.12 1333.26 L2022.05 1333.26 L2022.05 1337.15 L2017.12 1337.15 L2017.12 1345.3 L2012.47 1345.3 L2012.47 1337.15 L1996.87 1337.15 L1996.87 1332.63 L2011.24 1310.74 Z" fill="#000000" fill-rule="nonzero" fill-opacity="1"></path><path clip-path="url(#clip880)" d="M2042.63 1314.81 L2030.83 1333.26 L2042.63 1333.26 L2042.63 1314.81 M2041.41 1310.74 L2047.29 1310.74 L2047.29 1333.26 L2052.22 1333.26 L2052.22 1337.15 L2047.29 1337.15 L2047.29 1345.3 L2042.63 1345.3 L2042.63 1337.15 L2027.03 1337.15 L2027.03 1332.63 L2041.41 1310.74 Z" fill="#000000" fill-rule="nonzero" fill-opacity="1"></path><path clip-path="url(#clip880)" d="M2060.76 1341.36 L2068.4 1341.36 L2068.4 1315 L2060.09 1316.66 L2060.09 1312.4 L2068.35 1310.74 L2073.03 1310.74 L2073.03 1341.36 L2080.66 1341.36 L2080.66 1345.3 L2060.76 1345.3 L2060.76 1341.36 Z" fill="#000000" fill-rule="nonzero" fill-opacity="1"></path><path clip-path="url(#clip880)" d="M2094.14 1341.36 L2110.46 1341.36 L2110.46 1345.3 L2088.51 1345.3 L2088.51 1341.36 Q2091.17 1338.61 2095.76 1333.98 Q2100.36 1329.32 2101.54 1327.98 Q2103.79 1325.46 2104.67 1323.72 Q2105.57 1321.96 2105.57 1320.27 Q2105.57 1317.52 2103.63 1315.78 Q2101.71 1314.05 2098.6 1314.05 Q2096.41 1314.05 2093.95 1314.81 Q2091.52 1315.57 2088.74 1317.13 L2088.74 1312.4 Q2091.57 1311.27 2094.02 1310.69 Q2096.48 1310.11 2098.51 1310.11 Q2103.88 1310.11 2107.08 1312.8 Q2110.27 1315.48 2110.27 1319.97 Q2110.27 1322.1 2109.46 1324.02 Q2108.67 1325.92 2106.57 1328.51 Q2105.99 1329.19 2102.89 1332.4 Q2099.79 1335.6 2094.14 1341.36 Z" fill="#000000" fill-rule="nonzero" fill-opacity="1"></path><path clip-path="url(#clip880)" d="M2146.52 1332.26 Q2141.36 1332.26 2139.37 1333.44 Q2137.38 1334.63 2137.38 1337.47 Q2137.38 1339.74 2138.86 1341.08 Q2140.36 1342.4 2142.93 1342.4 Q2146.47 1342.4 2148.6 1339.9 Q2150.76 1337.38 2150.76 1333.21 L2150.76 1332.26 L2146.52 1332.26 M2155.02 1330.5 L2155.02 1345.3 L2150.76 1345.3 L2150.76 1341.36 Q2149.3 1343.72 2147.12 1344.86 Q2144.95 1345.97 2141.8 1345.97 Q2137.82 1345.97 2135.46 1343.75 Q2133.12 1341.5 2133.12 1337.75 Q2133.12 1333.38 2136.04 1331.15 Q2138.97 1328.93 2144.78 1328.93 L2150.76 1328.93 L2150.76 1328.51 Q2150.76 1325.57 2148.81 1323.98 Q2146.89 1322.36 2143.4 1322.36 Q2141.17 1322.36 2139.07 1322.89 Q2136.96 1323.42 2135.02 1324.49 L2135.02 1320.55 Q2137.35 1319.65 2139.55 1319.21 Q2141.75 1318.75 2143.84 1318.75 Q2149.46 1318.75 2152.24 1321.66 Q2155.02 1324.58 2155.02 1330.5 Z" fill="#000000" fill-rule="nonzero" fill-opacity="1"></path><path clip-path="url(#clip880)" d="M2163.79 1319.37 L2168.05 1319.37 L2168.05 1345.3 L2163.79 1345.3 L2163.79 1319.37 M2163.79 1309.28 L2168.05 1309.28 L2168.05 1314.67 L2163.79 1314.67 L2163.79 1309.28 Z" fill="#000000" fill-rule="nonzero" fill-opacity="1"></path><path clip-path="url(#clip880)" d="M2191.98 1323.35 Q2191.27 1322.94 2190.41 1322.75 Q2189.58 1322.54 2188.56 1322.54 Q2184.95 1322.54 2183 1324.9 Q2181.08 1327.24 2181.08 1331.64 L2181.08 1345.3 L2176.8 1345.3 L2176.8 1319.37 L2181.08 1319.37 L2181.08 1323.4 Q2182.42 1321.04 2184.58 1319.9 Q2186.73 1318.75 2189.81 1318.75 Q2190.25 1318.75 2190.78 1318.81 Q2191.31 1318.86 2191.96 1318.98 L2191.98 1323.35 Z" fill="#000000" fill-rule="nonzero" fill-opacity="1"></path><path clip-path="url(#clip880)" d="M2209.58 1309.28 L2209.58 1312.82 L2205.5 1312.82 Q2203.21 1312.82 2202.31 1313.75 Q2201.43 1314.67 2201.43 1317.08 L2201.43 1319.37 L2208.44 1319.37 L2208.44 1322.68 L2201.43 1322.68 L2201.43 1345.3 L2197.15 1345.3 L2197.15 1322.68 L2193.07 1322.68 L2193.07 1319.37 L2197.15 1319.37 L2197.15 1317.56 Q2197.15 1313.24 2199.16 1311.27 Q2201.17 1309.28 2205.55 1309.28 L2209.58 1309.28 Z" fill="#000000" fill-rule="nonzero" fill-opacity="1"></path><path clip-path="url(#clip880)" d="M2223.19 1322.36 Q2219.76 1322.36 2217.77 1325.04 Q2215.78 1327.7 2215.78 1332.36 Q2215.78 1337.01 2217.75 1339.69 Q2219.74 1342.36 2223.19 1342.36 Q2226.59 1342.36 2228.58 1339.67 Q2230.57 1336.99 2230.57 1332.36 Q2230.57 1327.75 2228.58 1325.06 Q2226.59 1322.36 2223.19 1322.36 M2223.19 1318.75 Q2228.74 1318.75 2231.91 1322.36 Q2235.09 1325.97 2235.09 1332.36 Q2235.09 1338.72 2231.91 1342.36 Q2228.74 1345.97 2223.19 1345.97 Q2217.61 1345.97 2214.44 1342.36 Q2211.29 1338.72 2211.29 1332.36 Q2211.29 1325.97 2214.44 1322.36 Q2217.61 1318.75 2223.19 1318.75 Z" fill="#000000" fill-rule="nonzero" fill-opacity="1"></path><path clip-path="url(#clip880)" d="M2242.15 1319.37 L2246.4 1319.37 L2246.4 1345.3 L2242.15 1345.3 L2242.15 1319.37 M2242.15 1309.28 L2246.4 1309.28 L2246.4 1314.67 L2242.15 1314.67 L2242.15 1309.28 Z" fill="#000000" fill-rule="nonzero" fill-opacity="1"></path><path clip-path="url(#clip880)" d="M2255.32 1309.28 L2259.58 1309.28 L2259.58 1345.3 L2255.32 1345.3 L2255.32 1309.28 Z" fill="#000000" fill-rule="nonzero" fill-opacity="1"></path></svg>