<svg xmlns="http://www.w3.org/2000/svg" xmlns:xlink="http://www.w3.org/1999/xlink" width="600" height="400" viewBox="0 0 2400 1600">
<defs>
  <clipPath id="clip040">
    <rect x="0" y="0" width="2400" height="1600"></rect>
  </clipPath>
</defs>
<path clip-path="url(#clip040)" d="M0 1600 L2400 1600 L2400 0 L0 0  Z" fill="#ffffff" fill-rule="evenodd" fill-opacity="1"></path>
<defs>
  <clipPath id="clip041">
    <rect x="480" y="0" width="1681" height="1600"></rect>
  </clipPath>
</defs>
<path clip-path="url(#clip040)" d="M286.718 1423.18 L2352.76 1423.18 L2352.76 123.472 L286.718 123.472  Z" fill="#ffffff" fill-rule="evenodd" fill-opacity="1"></path>
<defs>
  <clipPath id="clip042">
    <rect x="286" y="123" width="2067" height="1301"></rect>
  </clipPath>
</defs>
<polyline clip-path="url(#clip042)" style="stroke:#000000; stroke-linecap:round; stroke-linejoin:round; stroke-width:2; stroke-opacity:0.1; fill:none" points="345.191,1423.18 345.191,123.472 "></polyline>
<polyline clip-path="url(#clip042)" style="stroke:#000000; stroke-linecap:round; stroke-linejoin:round; stroke-width:2; stroke-opacity:0.1; fill:none" points="832.464,1423.18 832.464,123.472 "></polyline>
<polyline clip-path="url(#clip042)" style="stroke:#000000; stroke-linecap:round; stroke-linejoin:round; stroke-width:2; stroke-opacity:0.1; fill:none" points="1319.74,1423.18 1319.74,123.472 "></polyline>
<polyline clip-path="url(#clip042)" style="stroke:#000000; stroke-linecap:round; stroke-linejoin:round; stroke-width:2; stroke-opacity:0.1; fill:none" points="1807.01,1423.18 1807.01,123.472 "></polyline>
<polyline clip-path="url(#clip042)" style="stroke:#000000; stroke-linecap:round; stroke-linejoin:round; stroke-width:2; stroke-opacity:0.1; fill:none" points="2294.28,1423.18 2294.28,123.472 "></polyline>
<polyline clip-path="url(#clip040)" style="stroke:#000000; stroke-linecap:round; stroke-linejoin:round; stroke-width:4; stroke-opacity:1; fill:none" points="286.718,1423.18 2352.76,1423.18 "></polyline>
<polyline clip-path="url(#clip040)" style="stroke:#000000; stroke-linecap:round; stroke-linejoin:round; stroke-width:4; stroke-opacity:1; fill:none" points="345.191,1423.18 345.191,1404.28 "></polyline>
<polyline clip-path="url(#clip040)" style="stroke:#000000; stroke-linecap:round; stroke-linejoin:round; stroke-width:4; stroke-opacity:1; fill:none" points="832.464,1423.18 832.464,1404.28 "></polyline>
<polyline clip-path="url(#clip040)" style="stroke:#000000; stroke-linecap:round; stroke-linejoin:round; stroke-width:4; stroke-opacity:1; fill:none" points="1319.74,1423.18 1319.74,1404.28 "></polyline>
<polyline clip-path="url(#clip040)" style="stroke:#000000; stroke-linecap:round; stroke-linejoin:round; stroke-width:4; stroke-opacity:1; fill:none" points="1807.01,1423.18 1807.01,1404.28 "></polyline>
<polyline clip-path="url(#clip040)" style="stroke:#000000; stroke-linecap:round; stroke-linejoin:round; stroke-width:4; stroke-opacity:1; fill:none" points="2294.28,1423.18 2294.28,1404.28 "></polyline>
<path clip-path="url(#clip040)" d="M307.494 1454.1 Q303.883 1454.1 302.054 1457.66 Q300.249 1461.2 300.249 1468.33 Q300.249 1475.44 302.054 1479.01 Q303.883 1482.55 307.494 1482.55 Q311.128 1482.55 312.934 1479.01 Q314.762 1475.44 314.762 1468.33 Q314.762 1461.2 312.934 1457.66 Q311.128 1454.1 307.494 1454.1 M307.494 1450.39 Q313.304 1450.39 316.36 1455 Q319.438 1459.58 319.438 1468.33 Q319.438 1477.06 316.36 1481.67 Q313.304 1486.25 307.494 1486.25 Q301.684 1486.25 298.605 1481.67 Q295.55 1477.06 295.55 1468.33 Q295.55 1459.58 298.605 1455 Q301.684 1450.39 307.494 1450.39 Z" fill="#000000" fill-rule="nonzero" fill-opacity="1"></path><path clip-path="url(#clip040)" d="M327.656 1479.7 L332.54 1479.7 L332.54 1485.58 L327.656 1485.58 L327.656 1479.7 Z" fill="#000000" fill-rule="nonzero" fill-opacity="1"></path><path clip-path="url(#clip040)" d="M352.725 1454.1 Q349.114 1454.1 347.285 1457.66 Q345.48 1461.2 345.48 1468.33 Q345.48 1475.44 347.285 1479.01 Q349.114 1482.55 352.725 1482.55 Q356.359 1482.55 358.165 1479.01 Q359.994 1475.44 359.994 1468.33 Q359.994 1461.2 358.165 1457.66 Q356.359 1454.1 352.725 1454.1 M352.725 1450.39 Q358.535 1450.39 361.591 1455 Q364.67 1459.58 364.67 1468.33 Q364.67 1477.06 361.591 1481.67 Q358.535 1486.25 352.725 1486.25 Q346.915 1486.25 343.836 1481.67 Q340.781 1477.06 340.781 1468.33 Q340.781 1459.58 343.836 1455 Q346.915 1450.39 352.725 1450.39 Z" fill="#000000" fill-rule="nonzero" fill-opacity="1"></path><path clip-path="url(#clip040)" d="M382.887 1454.1 Q379.276 1454.1 377.447 1457.66 Q375.642 1461.2 375.642 1468.33 Q375.642 1475.44 377.447 1479.01 Q379.276 1482.55 382.887 1482.55 Q386.521 1482.55 388.327 1479.01 Q390.156 1475.44 390.156 1468.33 Q390.156 1461.2 388.327 1457.66 Q386.521 1454.1 382.887 1454.1 M382.887 1450.39 Q388.697 1450.39 391.753 1455 Q394.831 1459.58 394.831 1468.33 Q394.831 1477.06 391.753 1481.67 Q388.697 1486.25 382.887 1486.25 Q377.077 1486.25 373.998 1481.67 Q370.943 1477.06 370.943 1468.33 Q370.943 1459.58 373.998 1455 Q377.077 1450.39 382.887 1450.39 Z" fill="#000000" fill-rule="nonzero" fill-opacity="1"></path><path clip-path="url(#clip040)" d="M795.265 1454.1 Q791.654 1454.1 789.825 1457.66 Q788.019 1461.2 788.019 1468.33 Q788.019 1475.44 789.825 1479.01 Q791.654 1482.55 795.265 1482.55 Q798.899 1482.55 800.705 1479.01 Q802.533 1475.44 802.533 1468.33 Q802.533 1461.2 800.705 1457.66 Q798.899 1454.1 795.265 1454.1 M795.265 1450.39 Q801.075 1450.39 804.131 1455 Q807.209 1459.58 807.209 1468.33 Q807.209 1477.06 804.131 1481.67 Q801.075 1486.25 795.265 1486.25 Q789.455 1486.25 786.376 1481.67 Q783.32 1477.06 783.32 1468.33 Q783.32 1459.58 786.376 1455 Q789.455 1450.39 795.265 1450.39 Z" fill="#000000" fill-rule="nonzero" fill-opacity="1"></path><path clip-path="url(#clip040)" d="M815.427 1479.7 L820.311 1479.7 L820.311 1485.58 L815.427 1485.58 L815.427 1479.7 Z" fill="#000000" fill-rule="nonzero" fill-opacity="1"></path><path clip-path="url(#clip040)" d="M834.524 1481.64 L850.843 1481.64 L850.843 1485.58 L828.899 1485.58 L828.899 1481.64 Q831.561 1478.89 836.144 1474.26 Q840.751 1469.61 841.931 1468.27 Q844.177 1465.74 845.056 1464.01 Q845.959 1462.25 845.959 1460.56 Q845.959 1457.8 844.015 1456.07 Q842.093 1454.33 838.991 1454.33 Q836.792 1454.33 834.339 1455.09 Q831.908 1455.86 829.13 1457.41 L829.13 1452.69 Q831.954 1451.55 834.408 1450.97 Q836.862 1450.39 838.899 1450.39 Q844.269 1450.39 847.464 1453.08 Q850.658 1455.77 850.658 1460.26 Q850.658 1462.39 849.848 1464.31 Q849.061 1466.2 846.954 1468.8 Q846.376 1469.47 843.274 1472.69 Q840.172 1475.88 834.524 1481.64 Z" fill="#000000" fill-rule="nonzero" fill-opacity="1"></path><path clip-path="url(#clip040)" d="M860.704 1451.02 L879.061 1451.02 L879.061 1454.96 L864.987 1454.96 L864.987 1463.43 Q866.005 1463.08 867.024 1462.92 Q868.042 1462.73 869.061 1462.73 Q874.848 1462.73 878.227 1465.9 Q881.607 1469.08 881.607 1474.49 Q881.607 1480.07 878.135 1483.17 Q874.663 1486.25 868.343 1486.25 Q866.167 1486.25 863.899 1485.88 Q861.653 1485.51 859.246 1484.77 L859.246 1480.07 Q861.329 1481.2 863.551 1481.76 Q865.774 1482.32 868.251 1482.32 Q872.255 1482.32 874.593 1480.21 Q876.931 1478.1 876.931 1474.49 Q876.931 1470.88 874.593 1468.77 Q872.255 1466.67 868.251 1466.67 Q866.376 1466.67 864.501 1467.08 Q862.649 1467.5 860.704 1468.38 L860.704 1451.02 Z" fill="#000000" fill-rule="nonzero" fill-opacity="1"></path><path clip-path="url(#clip040)" d="M1282.04 1454.1 Q1278.43 1454.1 1276.6 1457.66 Q1274.79 1461.2 1274.79 1468.33 Q1274.79 1475.44 1276.6 1479.01 Q1278.43 1482.55 1282.04 1482.55 Q1285.67 1482.55 1287.48 1479.01 Q1289.31 1475.44 1289.31 1468.33 Q1289.31 1461.2 1287.48 1457.66 Q1285.67 1454.1 1282.04 1454.1 M1282.04 1450.39 Q1287.85 1450.39 1290.91 1455 Q1293.98 1459.58 1293.98 1468.33 Q1293.98 1477.06 1290.91 1481.67 Q1287.85 1486.25 1282.04 1486.25 Q1276.23 1486.25 1273.15 1481.67 Q1270.1 1477.06 1270.1 1468.33 Q1270.1 1459.58 1273.15 1455 Q1276.23 1450.39 1282.04 1450.39 Z" fill="#000000" fill-rule="nonzero" fill-opacity="1"></path><path clip-path="url(#clip040)" d="M1302.2 1479.7 L1307.09 1479.7 L1307.09 1485.58 L1302.2 1485.58 L1302.2 1479.7 Z" fill="#000000" fill-rule="nonzero" fill-opacity="1"></path><path clip-path="url(#clip040)" d="M1317.32 1451.02 L1335.67 1451.02 L1335.67 1454.96 L1321.6 1454.96 L1321.6 1463.43 Q1322.62 1463.08 1323.64 1462.92 Q1324.66 1462.73 1325.67 1462.73 Q1331.46 1462.73 1334.84 1465.9 Q1338.22 1469.08 1338.22 1474.49 Q1338.22 1480.07 1334.75 1483.17 Q1331.28 1486.25 1324.96 1486.25 Q1322.78 1486.25 1320.51 1485.88 Q1318.27 1485.51 1315.86 1484.77 L1315.86 1480.07 Q1317.94 1481.2 1320.17 1481.76 Q1322.39 1482.32 1324.86 1482.32 Q1328.87 1482.32 1331.21 1480.21 Q1333.54 1478.1 1333.54 1474.49 Q1333.54 1470.88 1331.21 1468.77 Q1328.87 1466.67 1324.86 1466.67 Q1322.99 1466.67 1321.11 1467.08 Q1319.26 1467.5 1317.32 1468.38 L1317.32 1451.02 Z" fill="#000000" fill-rule="nonzero" fill-opacity="1"></path><path clip-path="url(#clip040)" d="M1357.43 1454.1 Q1353.82 1454.1 1351.99 1457.66 Q1350.19 1461.2 1350.19 1468.33 Q1350.19 1475.44 1351.99 1479.01 Q1353.82 1482.55 1357.43 1482.55 Q1361.07 1482.55 1362.87 1479.01 Q1364.7 1475.44 1364.7 1468.33 Q1364.7 1461.2 1362.87 1457.66 Q1361.07 1454.1 1357.43 1454.1 M1357.43 1450.39 Q1363.24 1450.39 1366.3 1455 Q1369.38 1459.58 1369.38 1468.33 Q1369.38 1477.06 1366.3 1481.67 Q1363.24 1486.25 1357.43 1486.25 Q1351.62 1486.25 1348.54 1481.67 Q1345.49 1477.06 1345.49 1468.33 Q1345.49 1459.58 1348.54 1455 Q1351.62 1450.39 1357.43 1450.39 Z" fill="#000000" fill-rule="nonzero" fill-opacity="1"></path><path clip-path="url(#clip040)" d="M1769.81 1454.1 Q1766.2 1454.1 1764.37 1457.66 Q1762.57 1461.2 1762.57 1468.33 Q1762.57 1475.44 1764.37 1479.01 Q1766.2 1482.55 1769.81 1482.55 Q1773.45 1482.55 1775.25 1479.01 Q1777.08 1475.44 1777.08 1468.33 Q1777.08 1461.2 1775.25 1457.66 Q1773.45 1454.1 1769.81 1454.1 M1769.81 1450.39 Q1775.62 1450.39 1778.68 1455 Q1781.76 1459.58 1781.76 1468.33 Q1781.76 1477.06 1778.68 1481.67 Q1775.62 1486.25 1769.81 1486.25 Q1764 1486.25 1760.92 1481.67 Q1757.87 1477.06 1757.87 1468.33 Q1757.87 1459.58 1760.92 1455 Q1764 1450.39 1769.81 1450.39 Z" fill="#000000" fill-rule="nonzero" fill-opacity="1"></path><path clip-path="url(#clip040)" d="M1789.97 1479.7 L1794.86 1479.7 L1794.86 1485.58 L1789.97 1485.58 L1789.97 1479.7 Z" fill="#000000" fill-rule="nonzero" fill-opacity="1"></path><path clip-path="url(#clip040)" d="M1803.86 1451.02 L1826.08 1451.02 L1826.08 1453.01 L1813.54 1485.58 L1808.65 1485.58 L1820.46 1454.96 L1803.86 1454.96 L1803.86 1451.02 Z" fill="#000000" fill-rule="nonzero" fill-opacity="1"></path><path clip-path="url(#clip040)" d="M1835.25 1451.02 L1853.61 1451.02 L1853.61 1454.96 L1839.53 1454.96 L1839.53 1463.43 Q1840.55 1463.08 1841.57 1462.92 Q1842.59 1462.73 1843.61 1462.73 Q1849.39 1462.73 1852.77 1465.9 Q1856.15 1469.08 1856.15 1474.49 Q1856.15 1480.07 1852.68 1483.17 Q1849.21 1486.25 1842.89 1486.25 Q1840.71 1486.25 1838.44 1485.88 Q1836.2 1485.51 1833.79 1484.77 L1833.79 1480.07 Q1835.88 1481.2 1838.1 1481.76 Q1840.32 1482.32 1842.8 1482.32 Q1846.8 1482.32 1849.14 1480.21 Q1851.48 1478.1 1851.48 1474.49 Q1851.48 1470.88 1849.14 1468.77 Q1846.8 1466.67 1842.8 1466.67 Q1840.92 1466.67 1839.05 1467.08 Q1837.2 1467.5 1835.25 1468.38 L1835.25 1451.02 Z" fill="#000000" fill-rule="nonzero" fill-opacity="1"></path><path clip-path="url(#clip040)" d="M2246.36 1481.64 L2253.99 1481.64 L2253.99 1455.28 L2245.68 1456.95 L2245.68 1452.69 L2253.95 1451.02 L2258.62 1451.02 L2258.62 1481.64 L2266.26 1481.64 L2266.26 1485.58 L2246.36 1485.58 L2246.36 1481.64 Z" fill="#000000" fill-rule="nonzero" fill-opacity="1"></path><path clip-path="url(#clip040)" d="M2275.71 1479.7 L2280.59 1479.7 L2280.59 1485.58 L2275.71 1485.58 L2275.71 1479.7 Z" fill="#000000" fill-rule="nonzero" fill-opacity="1"></path><path clip-path="url(#clip040)" d="M2300.78 1454.1 Q2297.17 1454.1 2295.34 1457.66 Q2293.53 1461.2 2293.53 1468.33 Q2293.53 1475.44 2295.34 1479.01 Q2297.17 1482.55 2300.78 1482.55 Q2304.41 1482.55 2306.22 1479.01 Q2308.04 1475.44 2308.04 1468.33 Q2308.04 1461.2 2306.22 1457.66 Q2304.41 1454.1 2300.78 1454.1 M2300.78 1450.39 Q2306.59 1450.39 2309.64 1455 Q2312.72 1459.58 2312.72 1468.33 Q2312.72 1477.06 2309.64 1481.67 Q2306.59 1486.25 2300.78 1486.25 Q2294.97 1486.25 2291.89 1481.67 Q2288.83 1477.06 2288.83 1468.33 Q2288.83 1459.58 2291.89 1455 Q2294.97 1450.39 2300.78 1450.39 Z" fill="#000000" fill-rule="nonzero" fill-opacity="1"></path><path clip-path="url(#clip040)" d="M2330.94 1454.1 Q2327.33 1454.1 2325.5 1457.66 Q2323.69 1461.2 2323.69 1468.33 Q2323.69 1475.44 2325.5 1479.01 Q2327.33 1482.55 2330.94 1482.55 Q2334.57 1482.55 2336.38 1479.01 Q2338.21 1475.44 2338.21 1468.33 Q2338.21 1461.2 2336.38 1457.66 Q2334.57 1454.1 2330.94 1454.1 M2330.94 1450.39 Q2336.75 1450.39 2339.8 1455 Q2342.88 1459.58 2342.88 1468.33 Q2342.88 1477.06 2339.8 1481.67 Q2336.75 1486.25 2330.94 1486.25 Q2325.13 1486.25 2322.05 1481.67 Q2318.99 1477.06 2318.99 1468.33 Q2318.99 1459.58 2322.05 1455 Q2325.13 1450.39 2330.94 1450.39 Z" fill="#000000" fill-rule="nonzero" fill-opacity="1"></path><path clip-path="url(#clip040)" d="M1308.41 1532.4 L1295.52 1549.74 L1309.07 1568.04 L1302.17 1568.04 L1291.79 1554.04 L1281.42 1568.04 L1274.51 1568.04 L1288.35 1549.39 L1275.69 1532.4 L1282.59 1532.4 L1292.05 1545.1 L1301.5 1532.4 L1308.41 1532.4 Z" fill="#000000" fill-rule="nonzero" fill-opacity="1"></path><path clip-path="url(#clip040)" d="M1327.76 1520.52 L1333.17 1520.52 L1316.62 1574.09 L1311.21 1574.09 L1327.76 1520.52 Z" fill="#000000" fill-rule="nonzero" fill-opacity="1"></path><path clip-path="url(#clip040)" d="M1364.97 1533.76 L1364.97 1539.24 Q1362.48 1537.87 1359.97 1537.2 Q1357.49 1536.5 1354.94 1536.5 Q1349.24 1536.5 1346.09 1540.13 Q1342.94 1543.73 1342.94 1550.25 Q1342.94 1556.78 1346.09 1560.4 Q1349.24 1564 1354.94 1564 Q1357.49 1564 1359.97 1563.33 Q1362.48 1562.63 1364.97 1561.26 L1364.97 1566.68 Q1362.51 1567.82 1359.87 1568.39 Q1357.26 1568.97 1354.3 1568.97 Q1346.25 1568.97 1341.51 1563.91 Q1336.77 1558.85 1336.77 1550.25 Q1336.77 1541.53 1341.54 1536.53 Q1346.35 1531.54 1354.68 1531.54 Q1357.39 1531.54 1359.97 1532.11 Q1362.55 1532.65 1364.97 1533.76 Z" fill="#000000" fill-rule="nonzero" fill-opacity="1"></path><polyline clip-path="url(#clip042)" style="stroke:#000000; stroke-linecap:round; stroke-linejoin:round; stroke-width:2; stroke-opacity:0.1; fill:none" points="286.718,1410.28 2352.76,1410.28 "></polyline>
<polyline clip-path="url(#clip042)" style="stroke:#000000; stroke-linecap:round; stroke-linejoin:round; stroke-width:2; stroke-opacity:0.1; fill:none" points="286.718,1215.37 2352.76,1215.37 "></polyline>
<polyline clip-path="url(#clip042)" style="stroke:#000000; stroke-linecap:round; stroke-linejoin:round; stroke-width:2; stroke-opacity:0.1; fill:none" points="286.718,1020.46 2352.76,1020.46 "></polyline>
<polyline clip-path="url(#clip042)" style="stroke:#000000; stroke-linecap:round; stroke-linejoin:round; stroke-width:2; stroke-opacity:0.1; fill:none" points="286.718,825.552 2352.76,825.552 "></polyline>
<polyline clip-path="url(#clip042)" style="stroke:#000000; stroke-linecap:round; stroke-linejoin:round; stroke-width:2; stroke-opacity:0.1; fill:none" points="286.718,630.642 2352.76,630.642 "></polyline>
<polyline clip-path="url(#clip042)" style="stroke:#000000; stroke-linecap:round; stroke-linejoin:round; stroke-width:2; stroke-opacity:0.1; fill:none" points="286.718,435.733 2352.76,435.733 "></polyline>
<polyline clip-path="url(#clip042)" style="stroke:#000000; stroke-linecap:round; stroke-linejoin:round; stroke-width:2; stroke-opacity:0.1; fill:none" points="286.718,240.824 2352.76,240.824 "></polyline>
<polyline clip-path="url(#clip040)" style="stroke:#000000; stroke-linecap:round; stroke-linejoin:round; stroke-width:4; stroke-opacity:1; fill:none" points="286.718,1423.18 286.718,123.472 "></polyline>
<polyline clip-path="url(#clip040)" style="stroke:#000000; stroke-linecap:round; stroke-linejoin:round; stroke-width:4; stroke-opacity:1; fill:none" points="286.718,1410.28 305.615,1410.28 "></polyline>
<polyline clip-path="url(#clip040)" style="stroke:#000000; stroke-linecap:round; stroke-linejoin:round; stroke-width:4; stroke-opacity:1; fill:none" points="286.718,1215.37 305.615,1215.37 "></polyline>
<polyline clip-path="url(#clip040)" style="stroke:#000000; stroke-linecap:round; stroke-linejoin:round; stroke-width:4; stroke-opacity:1; fill:none" points="286.718,1020.46 305.615,1020.46 "></polyline>
<polyline clip-path="url(#clip040)" style="stroke:#000000; stroke-linecap:round; stroke-linejoin:round; stroke-width:4; stroke-opacity:1; fill:none" points="286.718,825.552 305.615,825.552 "></polyline>
<polyline clip-path="url(#clip040)" style="stroke:#000000; stroke-linecap:round; stroke-linejoin:round; stroke-width:4; stroke-opacity:1; fill:none" points="286.718,630.642 305.615,630.642 "></polyline>
<polyline clip-path="url(#clip040)" style="stroke:#000000; stroke-linecap:round; stroke-linejoin:round; stroke-width:4; stroke-opacity:1; fill:none" points="286.718,435.733 305.615,435.733 "></polyline>
<polyline clip-path="url(#clip040)" style="stroke:#000000; stroke-linecap:round; stroke-linejoin:round; stroke-width:4; stroke-opacity:1; fill:none" points="286.718,240.824 305.615,240.824 "></polyline>
<path clip-path="url(#clip040)" d="M144.422 1410.73 L174.098 1410.73 L174.098 1414.67 L144.422 1414.67 L144.422 1410.73 Z" fill="#000000" fill-rule="nonzero" fill-opacity="1"></path><path clip-path="url(#clip040)" d="M194.19 1396.08 Q190.579 1396.08 188.75 1399.64 Q186.945 1403.18 186.945 1410.31 Q186.945 1417.42 188.75 1420.99 Q190.579 1424.53 194.19 1424.53 Q197.825 1424.53 199.63 1420.99 Q201.459 1417.42 201.459 1410.31 Q201.459 1403.18 199.63 1399.64 Q197.825 1396.08 194.19 1396.08 M194.19 1392.37 Q200 1392.37 203.056 1396.98 Q206.135 1401.56 206.135 1410.31 Q206.135 1419.04 203.056 1423.65 Q200 1428.23 194.19 1428.23 Q188.38 1428.23 185.301 1423.65 Q182.246 1419.04 182.246 1410.31 Q182.246 1401.56 185.301 1396.98 Q188.38 1392.37 194.19 1392.37 Z" fill="#000000" fill-rule="nonzero" fill-opacity="1"></path><path clip-path="url(#clip040)" d="M214.352 1421.68 L219.236 1421.68 L219.236 1427.56 L214.352 1427.56 L214.352 1421.68 Z" fill="#000000" fill-rule="nonzero" fill-opacity="1"></path><path clip-path="url(#clip040)" d="M243.588 1408.93 Q246.945 1409.64 248.82 1411.91 Q250.718 1414.18 250.718 1417.51 Q250.718 1422.63 247.199 1425.43 Q243.681 1428.23 237.199 1428.23 Q235.023 1428.23 232.709 1427.79 Q230.417 1427.37 227.963 1426.52 L227.963 1422 Q229.908 1423.14 232.222 1423.72 Q234.537 1424.3 237.06 1424.3 Q241.459 1424.3 243.75 1422.56 Q246.065 1420.82 246.065 1417.51 Q246.065 1414.46 243.912 1412.74 Q241.783 1411.01 237.963 1411.01 L233.935 1411.01 L233.935 1407.17 L238.148 1407.17 Q241.597 1407.17 243.426 1405.8 Q245.255 1404.41 245.255 1401.82 Q245.255 1399.16 243.357 1397.74 Q241.482 1396.31 237.963 1396.31 Q236.042 1396.31 233.843 1396.73 Q231.644 1397.14 229.005 1398.02 L229.005 1393.86 Q231.667 1393.12 233.982 1392.74 Q236.32 1392.37 238.38 1392.37 Q243.704 1392.37 246.806 1394.81 Q249.908 1397.21 249.908 1401.33 Q249.908 1404.2 248.264 1406.19 Q246.621 1408.16 243.588 1408.93 Z" fill="#000000" fill-rule="nonzero" fill-opacity="1"></path><path clip-path="url(#clip040)" d="M145.371 1215.82 L175.047 1215.82 L175.047 1219.76 L145.371 1219.76 L145.371 1215.82 Z" fill="#000000" fill-rule="nonzero" fill-opacity="1"></path><path clip-path="url(#clip040)" d="M195.139 1201.17 Q191.528 1201.17 189.7 1204.73 Q187.894 1208.28 187.894 1215.4 Q187.894 1222.51 189.7 1226.08 Q191.528 1229.62 195.139 1229.62 Q198.774 1229.62 200.579 1226.08 Q202.408 1222.51 202.408 1215.4 Q202.408 1208.28 200.579 1204.73 Q198.774 1201.17 195.139 1201.17 M195.139 1197.47 Q200.95 1197.47 204.005 1202.07 Q207.084 1206.66 207.084 1215.4 Q207.084 1224.13 204.005 1228.74 Q200.95 1233.32 195.139 1233.32 Q189.329 1233.32 186.251 1228.74 Q183.195 1224.13 183.195 1215.4 Q183.195 1206.66 186.251 1202.07 Q189.329 1197.47 195.139 1197.47 Z" fill="#000000" fill-rule="nonzero" fill-opacity="1"></path><path clip-path="url(#clip040)" d="M215.301 1226.77 L220.186 1226.77 L220.186 1232.65 L215.301 1232.65 L215.301 1226.77 Z" fill="#000000" fill-rule="nonzero" fill-opacity="1"></path><path clip-path="url(#clip040)" d="M234.398 1228.72 L250.718 1228.72 L250.718 1232.65 L228.773 1232.65 L228.773 1228.72 Q231.435 1225.96 236.019 1221.33 Q240.625 1216.68 241.806 1215.34 Q244.051 1212.81 244.931 1211.08 Q245.834 1209.32 245.834 1207.63 Q245.834 1204.87 243.889 1203.14 Q241.968 1201.4 238.866 1201.4 Q236.667 1201.4 234.213 1202.16 Q231.783 1202.93 229.005 1204.48 L229.005 1199.76 Q231.829 1198.62 234.283 1198.04 Q236.736 1197.47 238.773 1197.47 Q244.144 1197.47 247.338 1200.15 Q250.533 1202.84 250.533 1207.33 Q250.533 1209.46 249.722 1211.38 Q248.935 1213.28 246.829 1215.87 Q246.25 1216.54 243.148 1219.76 Q240.047 1222.95 234.398 1228.72 Z" fill="#000000" fill-rule="nonzero" fill-opacity="1"></path><path clip-path="url(#clip040)" d="M145.001 1020.91 L174.677 1020.91 L174.677 1024.85 L145.001 1024.85 L145.001 1020.91 Z" fill="#000000" fill-rule="nonzero" fill-opacity="1"></path><path clip-path="url(#clip040)" d="M194.769 1006.26 Q191.158 1006.26 189.329 1009.82 Q187.524 1013.37 187.524 1020.5 Q187.524 1027.6 189.329 1031.17 Q191.158 1034.71 194.769 1034.71 Q198.403 1034.71 200.209 1031.17 Q202.037 1027.6 202.037 1020.5 Q202.037 1013.37 200.209 1009.82 Q198.403 1006.26 194.769 1006.26 M194.769 1002.56 Q200.579 1002.56 203.635 1007.16 Q206.713 1011.75 206.713 1020.5 Q206.713 1029.22 203.635 1033.83 Q200.579 1038.41 194.769 1038.41 Q188.959 1038.41 185.88 1033.83 Q182.825 1029.22 182.825 1020.5 Q182.825 1011.75 185.88 1007.16 Q188.959 1002.56 194.769 1002.56 Z" fill="#000000" fill-rule="nonzero" fill-opacity="1"></path><path clip-path="url(#clip040)" d="M214.931 1031.86 L219.815 1031.86 L219.815 1037.74 L214.931 1037.74 L214.931 1031.86 Z" fill="#000000" fill-rule="nonzero" fill-opacity="1"></path><path clip-path="url(#clip040)" d="M230.81 1033.81 L238.449 1033.81 L238.449 1007.44 L230.139 1009.11 L230.139 1004.85 L238.403 1003.18 L243.079 1003.18 L243.079 1033.81 L250.718 1033.81 L250.718 1037.74 L230.81 1037.74 L230.81 1033.81 Z" fill="#000000" fill-rule="nonzero" fill-opacity="1"></path><path clip-path="url(#clip040)" d="M193.542 811.35 Q189.931 811.35 188.102 814.915 Q186.297 818.457 186.297 825.586 Q186.297 832.693 188.102 836.258 Q189.931 839.799 193.542 839.799 Q197.176 839.799 198.982 836.258 Q200.811 832.693 200.811 825.586 Q200.811 818.457 198.982 814.915 Q197.176 811.35 193.542 811.35 M193.542 807.647 Q199.352 807.647 202.408 812.253 Q205.487 816.836 205.487 825.586 Q205.487 834.313 202.408 838.92 Q199.352 843.503 193.542 843.503 Q187.732 843.503 184.653 838.92 Q181.598 834.313 181.598 825.586 Q181.598 816.836 184.653 812.253 Q187.732 807.647 193.542 807.647 Z" fill="#000000" fill-rule="nonzero" fill-opacity="1"></path><path clip-path="url(#clip040)" d="M213.704 836.952 L218.588 836.952 L218.588 842.832 L213.704 842.832 L213.704 836.952 Z" fill="#000000" fill-rule="nonzero" fill-opacity="1"></path><path clip-path="url(#clip040)" d="M238.773 811.35 Q235.162 811.35 233.334 814.915 Q231.528 818.457 231.528 825.586 Q231.528 832.693 233.334 836.258 Q235.162 839.799 238.773 839.799 Q242.408 839.799 244.213 836.258 Q246.042 832.693 246.042 825.586 Q246.042 818.457 244.213 814.915 Q242.408 811.35 238.773 811.35 M238.773 807.647 Q244.584 807.647 247.639 812.253 Q250.718 816.836 250.718 825.586 Q250.718 834.313 247.639 838.92 Q244.584 843.503 238.773 843.503 Q232.963 843.503 229.885 838.92 Q226.829 834.313 226.829 825.586 Q226.829 816.836 229.885 812.253 Q232.963 807.647 238.773 807.647 Z" fill="#000000" fill-rule="nonzero" fill-opacity="1"></path><path clip-path="url(#clip040)" d="M194.769 616.441 Q191.158 616.441 189.329 620.006 Q187.524 623.548 187.524 630.677 Q187.524 637.784 189.329 641.348 Q191.158 644.89 194.769 644.89 Q198.403 644.89 200.209 641.348 Q202.037 637.784 202.037 630.677 Q202.037 623.548 200.209 620.006 Q198.403 616.441 194.769 616.441 M194.769 612.737 Q200.579 612.737 203.635 617.344 Q206.713 621.927 206.713 630.677 Q206.713 639.404 203.635 644.01 Q200.579 648.594 194.769 648.594 Q188.959 648.594 185.88 644.01 Q182.825 639.404 182.825 630.677 Q182.825 621.927 185.88 617.344 Q188.959 612.737 194.769 612.737 Z" fill="#000000" fill-rule="nonzero" fill-opacity="1"></path><path clip-path="url(#clip040)" d="M214.931 642.043 L219.815 642.043 L219.815 647.922 L214.931 647.922 L214.931 642.043 Z" fill="#000000" fill-rule="nonzero" fill-opacity="1"></path><path clip-path="url(#clip040)" d="M230.81 643.987 L238.449 643.987 L238.449 617.622 L230.139 619.288 L230.139 615.029 L238.403 613.362 L243.079 613.362 L243.079 643.987 L250.718 643.987 L250.718 647.922 L230.81 647.922 L230.81 643.987 Z" fill="#000000" fill-rule="nonzero" fill-opacity="1"></path><path clip-path="url(#clip040)" d="M195.139 421.532 Q191.528 421.532 189.7 425.097 Q187.894 428.638 187.894 435.768 Q187.894 442.874 189.7 446.439 Q191.528 449.981 195.139 449.981 Q198.774 449.981 200.579 446.439 Q202.408 442.874 202.408 435.768 Q202.408 428.638 200.579 425.097 Q198.774 421.532 195.139 421.532 M195.139 417.828 Q200.95 417.828 204.005 422.435 Q207.084 427.018 207.084 435.768 Q207.084 444.495 204.005 449.101 Q200.95 453.684 195.139 453.684 Q189.329 453.684 186.251 449.101 Q183.195 444.495 183.195 435.768 Q183.195 427.018 186.251 422.435 Q189.329 417.828 195.139 417.828 Z" fill="#000000" fill-rule="nonzero" fill-opacity="1"></path><path clip-path="url(#clip040)" d="M215.301 447.134 L220.186 447.134 L220.186 453.013 L215.301 453.013 L215.301 447.134 Z" fill="#000000" fill-rule="nonzero" fill-opacity="1"></path><path clip-path="url(#clip040)" d="M234.398 449.078 L250.718 449.078 L250.718 453.013 L228.773 453.013 L228.773 449.078 Q231.435 446.323 236.019 441.694 Q240.625 437.041 241.806 435.698 Q244.051 433.175 244.931 431.439 Q245.834 429.68 245.834 427.99 Q245.834 425.236 243.889 423.499 Q241.968 421.763 238.866 421.763 Q236.667 421.763 234.213 422.527 Q231.783 423.291 229.005 424.842 L229.005 420.12 Q231.829 418.986 234.283 418.407 Q236.736 417.828 238.773 417.828 Q244.144 417.828 247.338 420.513 Q250.533 423.199 250.533 427.689 Q250.533 429.819 249.722 431.74 Q248.935 433.638 246.829 436.231 Q246.25 436.902 243.148 440.12 Q240.047 443.314 234.398 449.078 Z" fill="#000000" fill-rule="nonzero" fill-opacity="1"></path><path clip-path="url(#clip040)" d="M194.19 226.623 Q190.579 226.623 188.75 230.187 Q186.945 233.729 186.945 240.859 Q186.945 247.965 188.75 251.53 Q190.579 255.072 194.19 255.072 Q197.825 255.072 199.63 251.53 Q201.459 247.965 201.459 240.859 Q201.459 233.729 199.63 230.187 Q197.825 226.623 194.19 226.623 M194.19 222.919 Q200 222.919 203.056 227.525 Q206.135 232.109 206.135 240.859 Q206.135 249.585 203.056 254.192 Q200 258.775 194.19 258.775 Q188.38 258.775 185.301 254.192 Q182.246 249.585 182.246 240.859 Q182.246 232.109 185.301 227.525 Q188.38 222.919 194.19 222.919 Z" fill="#000000" fill-rule="nonzero" fill-opacity="1"></path><path clip-path="url(#clip040)" d="M214.352 252.224 L219.236 252.224 L219.236 258.104 L214.352 258.104 L214.352 252.224 Z" fill="#000000" fill-rule="nonzero" fill-opacity="1"></path><path clip-path="url(#clip040)" d="M243.588 239.47 Q246.945 240.187 248.82 242.456 Q250.718 244.724 250.718 248.058 Q250.718 253.173 247.199 255.974 Q243.681 258.775 237.199 258.775 Q235.023 258.775 232.709 258.335 Q230.417 257.919 227.963 257.062 L227.963 252.548 Q229.908 253.683 232.222 254.261 Q234.537 254.84 237.06 254.84 Q241.459 254.84 243.75 253.104 Q246.065 251.368 246.065 248.058 Q246.065 245.002 243.912 243.289 Q241.783 241.553 237.963 241.553 L233.935 241.553 L233.935 237.711 L238.148 237.711 Q241.597 237.711 243.426 236.345 Q245.255 234.956 245.255 232.363 Q245.255 229.701 243.357 228.289 Q241.482 226.854 237.963 226.854 Q236.042 226.854 233.843 227.271 Q231.644 227.687 229.005 228.567 L229.005 224.4 Q231.667 223.66 233.982 223.289 Q236.32 222.919 238.38 222.919 Q243.704 222.919 246.806 225.349 Q249.908 227.757 249.908 231.877 Q249.908 234.748 248.264 236.738 Q246.621 238.706 243.588 239.47 Z" fill="#000000" fill-rule="nonzero" fill-opacity="1"></path><path clip-path="url(#clip040)" d="M97.4762 799.489 Q103.842 801.972 105.783 804.327 Q107.725 806.682 107.725 810.629 L107.725 815.308 L102.823 815.308 L102.823 811.87 Q102.823 809.451 101.678 808.115 Q100.532 806.778 96.2667 805.155 L93.5931 804.104 L58.5181 818.523 L58.5181 812.316 L86.3999 801.176 L58.5181 790.036 L58.5181 783.829 L97.4762 799.489 Z" fill="#000000" fill-rule="nonzero" fill-opacity="1"></path><path clip-path="url(#clip040)" d="M46.646 765.337 L46.646 759.926 L100.213 776.477 L100.213 781.888 L46.646 765.337 Z" fill="#000000" fill-rule="nonzero" fill-opacity="1"></path><path clip-path="url(#clip040)" d="M59.8867 728.129 L65.3612 728.129 Q63.9926 730.612 63.3242 733.127 Q62.624 735.609 62.624 738.155 Q62.624 743.853 66.2524 747.004 Q69.849 750.155 76.3739 750.155 Q82.8987 750.155 86.5272 747.004 Q90.1238 743.853 90.1238 738.155 Q90.1238 735.609 89.4554 733.127 Q88.7552 730.612 87.3866 728.129 L92.7974 728.129 Q93.9432 730.58 94.5161 733.222 Q95.0891 735.832 95.0891 738.792 Q95.0891 746.845 90.0283 751.587 Q84.9676 756.33 76.3739 756.33 Q67.6529 756.33 62.6558 751.555 Q57.6587 746.749 57.6587 738.41 Q57.6587 735.705 58.2316 733.127 Q58.7727 730.548 59.8867 728.129 Z" fill="#000000" fill-rule="nonzero" fill-opacity="1"></path><path clip-path="url(#clip040)" d="M975.916 20.1573 L964.817 50.2555 L987.056 50.2555 L975.916 20.1573 M971.298 12.096 L980.575 12.096 L1003.62 72.576 L995.118 72.576 L989.608 57.061 L962.346 57.061 L956.837 72.576 L948.208 72.576 L971.298 12.096 Z" fill="#000000" fill-rule="nonzero" fill-opacity="1"></path><path clip-path="url(#clip040)" d="M1012.13 27.2059 L1019.59 27.2059 L1019.59 72.576 L1012.13 72.576 L1012.13 27.2059 M1012.13 9.54393 L1019.59 9.54393 L1019.59 18.9825 L1012.13 18.9825 L1012.13 9.54393 Z" fill="#000000" fill-rule="nonzero" fill-opacity="1"></path><path clip-path="url(#clip040)" d="M1061.47 34.1734 Q1060.22 33.4443 1058.72 33.1202 Q1057.26 32.7556 1055.48 32.7556 Q1049.16 32.7556 1045.75 36.8875 Q1042.39 40.9789 1042.39 48.6757 L1042.39 72.576 L1034.9 72.576 L1034.9 27.2059 L1042.39 27.2059 L1042.39 34.2544 Q1044.74 30.1225 1048.51 28.1376 Q1052.28 26.1121 1057.66 26.1121 Q1058.43 26.1121 1059.36 26.2337 Q1060.3 26.3147 1061.43 26.5172 L1061.47 34.1734 Z" fill="#000000" fill-rule="nonzero" fill-opacity="1"></path><path clip-path="url(#clip040)" d="M1092.26 9.54393 L1092.26 15.7418 L1085.13 15.7418 Q1081.12 15.7418 1079.54 17.3622 Q1078 18.9825 1078 23.1955 L1078 27.2059 L1090.27 27.2059 L1090.27 32.9987 L1078 32.9987 L1078 72.576 L1070.5 72.576 L1070.5 32.9987 L1063.38 32.9987 L1063.38 27.2059 L1070.5 27.2059 L1070.5 24.0462 Q1070.5 16.471 1074.03 13.0277 Q1077.55 9.54393 1085.21 9.54393 L1092.26 9.54393 Z" fill="#000000" fill-rule="nonzero" fill-opacity="1"></path><path clip-path="url(#clip040)" d="M1116.08 32.4315 Q1110.08 32.4315 1106.6 37.1306 Q1103.11 41.7891 1103.11 49.9314 Q1103.11 58.0738 1106.56 62.7728 Q1110.04 67.4314 1116.08 67.4314 Q1122.03 67.4314 1125.52 62.7323 Q1129 58.0333 1129 49.9314 Q1129 41.8701 1125.52 37.1711 Q1122.03 32.4315 1116.08 32.4315 M1116.08 26.1121 Q1125.8 26.1121 1131.35 32.4315 Q1136.9 38.7509 1136.9 49.9314 Q1136.9 61.0714 1131.35 67.4314 Q1125.8 73.7508 1116.08 73.7508 Q1106.31 73.7508 1100.77 67.4314 Q1095.26 61.0714 1095.26 49.9314 Q1095.26 38.7509 1100.77 32.4315 Q1106.31 26.1121 1116.08 26.1121 Z" fill="#000000" fill-rule="nonzero" fill-opacity="1"></path><path clip-path="url(#clip040)" d="M1149.25 27.2059 L1156.71 27.2059 L1156.71 72.576 L1149.25 72.576 L1149.25 27.2059 M1149.25 9.54393 L1156.71 9.54393 L1156.71 18.9825 L1149.25 18.9825 L1149.25 9.54393 Z" fill="#000000" fill-rule="nonzero" fill-opacity="1"></path><path clip-path="url(#clip040)" d="M1172.3 9.54393 L1179.76 9.54393 L1179.76 72.576 L1172.3 72.576 L1172.3 9.54393 Z" fill="#000000" fill-rule="nonzero" fill-opacity="1"></path><path clip-path="url(#clip040)" d="M1254.38 28.9478 L1254.38 35.9153 Q1251.22 34.1734 1248.02 33.3227 Q1244.86 32.4315 1241.62 32.4315 Q1234.36 32.4315 1230.35 37.0496 Q1226.34 41.6271 1226.34 49.9314 Q1226.34 58.2358 1230.35 62.8538 Q1234.36 67.4314 1241.62 67.4314 Q1244.86 67.4314 1248.02 66.5807 Q1251.22 65.6895 1254.38 63.9476 L1254.38 70.8341 Q1251.26 72.2924 1247.89 73.0216 Q1244.57 73.7508 1240.8 73.7508 Q1230.56 73.7508 1224.52 67.3098 Q1218.48 60.8689 1218.48 49.9314 Q1218.48 38.832 1224.56 32.472 Q1230.68 26.1121 1241.29 26.1121 Q1244.73 26.1121 1248.02 26.8413 Q1251.3 27.5299 1254.38 28.9478 Z" fill="#000000" fill-rule="nonzero" fill-opacity="1"></path><path clip-path="url(#clip040)" d="M1284.92 32.4315 Q1278.92 32.4315 1275.44 37.1306 Q1271.96 41.7891 1271.96 49.9314 Q1271.96 58.0738 1275.4 62.7728 Q1278.88 67.4314 1284.92 67.4314 Q1290.87 67.4314 1294.36 62.7323 Q1297.84 58.0333 1297.84 49.9314 Q1297.84 41.8701 1294.36 37.1711 Q1290.87 32.4315 1284.92 32.4315 M1284.92 26.1121 Q1294.64 26.1121 1300.19 32.4315 Q1305.74 38.7509 1305.74 49.9314 Q1305.74 61.0714 1300.19 67.4314 Q1294.64 73.7508 1284.92 73.7508 Q1275.16 73.7508 1269.61 67.4314 Q1264.1 61.0714 1264.1 49.9314 Q1264.1 38.7509 1269.61 32.4315 Q1275.16 26.1121 1284.92 26.1121 Z" fill="#000000" fill-rule="nonzero" fill-opacity="1"></path><path clip-path="url(#clip040)" d="M1353.42 35.9153 Q1356.22 30.8922 1360.1 28.5022 Q1363.99 26.1121 1369.26 26.1121 Q1376.35 26.1121 1380.2 31.0947 Q1384.04 36.0368 1384.04 45.1919 L1384.04 72.576 L1376.55 72.576 L1376.55 45.4349 Q1376.55 38.913 1374.24 35.7533 Q1371.93 32.5936 1367.19 32.5936 Q1361.4 32.5936 1358.04 36.4419 Q1354.68 40.2903 1354.68 46.9338 L1354.68 72.576 L1347.18 72.576 L1347.18 45.4349 Q1347.18 38.8725 1344.87 35.7533 Q1342.56 32.5936 1337.74 32.5936 Q1332.03 32.5936 1328.67 36.4824 Q1325.31 40.3308 1325.31 46.9338 L1325.31 72.576 L1317.81 72.576 L1317.81 27.2059 L1325.31 27.2059 L1325.31 34.2544 Q1327.86 30.082 1331.42 28.0971 Q1334.99 26.1121 1339.89 26.1121 Q1344.83 26.1121 1348.28 28.6237 Q1351.76 31.1352 1353.42 35.9153 Z" fill="#000000" fill-rule="nonzero" fill-opacity="1"></path><path clip-path="url(#clip040)" d="M1406.12 65.7705 L1406.12 89.8329 L1398.63 89.8329 L1398.63 27.2059 L1406.12 27.2059 L1406.12 34.0924 Q1408.47 30.0415 1412.04 28.0971 Q1415.64 26.1121 1420.62 26.1121 Q1428.89 26.1121 1434.03 32.6746 Q1439.22 39.2371 1439.22 49.9314 Q1439.22 60.6258 1434.03 67.1883 Q1428.89 73.7508 1420.62 73.7508 Q1415.64 73.7508 1412.04 71.8063 Q1408.47 69.8214 1406.12 65.7705 M1431.48 49.9314 Q1431.48 41.7081 1428.08 37.0496 Q1424.72 32.3505 1418.8 32.3505 Q1412.89 32.3505 1409.48 37.0496 Q1406.12 41.7081 1406.12 49.9314 Q1406.12 58.1548 1409.48 62.8538 Q1412.89 67.5124 1418.8 67.5124 Q1424.72 67.5124 1428.08 62.8538 Q1431.48 58.1548 1431.48 49.9314 Z" fill="#000000" fill-rule="nonzero" fill-opacity="1"></path><path clip-path="url(#clip040)" d="M1472.19 49.7694 Q1463.16 49.7694 1459.68 51.8354 Q1456.19 53.9013 1456.19 58.8839 Q1456.19 62.8538 1458.78 65.2034 Q1461.42 67.5124 1465.91 67.5124 Q1472.11 67.5124 1475.84 63.1374 Q1479.61 58.7219 1479.61 51.4303 L1479.61 49.7694 L1472.19 49.7694 M1487.06 46.6907 L1487.06 72.576 L1479.61 72.576 L1479.61 65.6895 Q1477.05 69.8214 1473.25 71.8063 Q1469.44 73.7508 1463.93 73.7508 Q1456.96 73.7508 1452.83 69.8619 Q1448.74 65.9325 1448.74 59.3701 Q1448.74 51.7138 1453.84 47.825 Q1458.99 43.9361 1469.15 43.9361 L1479.61 43.9361 L1479.61 43.2069 Q1479.61 38.0623 1476.2 35.2672 Q1472.84 32.4315 1466.72 32.4315 Q1462.84 32.4315 1459.15 33.3632 Q1455.46 34.295 1452.06 36.1584 L1452.06 29.2718 Q1456.15 27.692 1460 26.9223 Q1463.85 26.1121 1467.49 26.1121 Q1477.34 26.1121 1482.2 31.2163 Q1487.06 36.3204 1487.06 46.6907 Z" fill="#000000" fill-rule="nonzero" fill-opacity="1"></path><path clip-path="url(#clip040)" d="M1528.7 34.1734 Q1527.45 33.4443 1525.95 33.1202 Q1524.49 32.7556 1522.71 32.7556 Q1516.39 32.7556 1512.99 36.8875 Q1509.62 40.9789 1509.62 48.6757 L1509.62 72.576 L1502.13 72.576 L1502.13 27.2059 L1509.62 27.2059 L1509.62 34.2544 Q1511.97 30.1225 1515.74 28.1376 Q1519.51 26.1121 1524.89 26.1121 Q1525.66 26.1121 1526.6 26.2337 Q1527.53 26.3147 1528.66 26.5172 L1528.7 34.1734 Z" fill="#000000" fill-rule="nonzero" fill-opacity="1"></path><path clip-path="url(#clip040)" d="M1536.52 27.2059 L1543.97 27.2059 L1543.97 72.576 L1536.52 72.576 L1536.52 27.2059 M1536.52 9.54393 L1543.97 9.54393 L1543.97 18.9825 L1536.52 18.9825 L1536.52 9.54393 Z" fill="#000000" fill-rule="nonzero" fill-opacity="1"></path><path clip-path="url(#clip040)" d="M1588.49 28.5427 L1588.49 35.5912 Q1585.33 33.9709 1581.93 33.1607 Q1578.53 32.3505 1574.88 32.3505 Q1569.33 32.3505 1566.54 34.0519 Q1563.78 35.7533 1563.78 39.156 Q1563.78 41.7486 1565.77 43.2475 Q1567.75 44.7058 1573.75 46.0426 L1576.3 46.6097 Q1584.24 48.3111 1587.56 51.4303 Q1590.92 54.509 1590.92 60.0587 Q1590.92 66.3781 1585.9 70.0644 Q1580.92 73.7508 1572.17 73.7508 Q1568.52 73.7508 1564.55 73.0216 Q1560.62 72.3329 1556.25 70.9151 L1556.25 63.2184 Q1560.38 65.3654 1564.39 66.4591 Q1568.4 67.5124 1572.33 67.5124 Q1577.6 67.5124 1580.43 65.73 Q1583.27 63.9071 1583.27 60.6258 Q1583.27 57.5877 1581.2 55.9673 Q1579.18 54.3469 1572.25 52.8481 L1569.66 52.2405 Q1562.73 50.7821 1559.65 47.7845 Q1556.57 44.7463 1556.57 39.4801 Q1556.57 33.0797 1561.11 29.5959 Q1565.65 26.1121 1573.99 26.1121 Q1578.12 26.1121 1581.77 26.7198 Q1585.42 27.3274 1588.49 28.5427 Z" fill="#000000" fill-rule="nonzero" fill-opacity="1"></path><path clip-path="url(#clip040)" d="M1620.37 32.4315 Q1614.38 32.4315 1610.9 37.1306 Q1607.41 41.7891 1607.41 49.9314 Q1607.41 58.0738 1610.86 62.7728 Q1614.34 67.4314 1620.37 67.4314 Q1626.33 67.4314 1629.81 62.7323 Q1633.3 58.0333 1633.3 49.9314 Q1633.3 41.8701 1629.81 37.1711 Q1626.33 32.4315 1620.37 32.4315 M1620.37 26.1121 Q1630.1 26.1121 1635.65 32.4315 Q1641.2 38.7509 1641.2 49.9314 Q1641.2 61.0714 1635.65 67.4314 Q1630.1 73.7508 1620.37 73.7508 Q1610.61 73.7508 1605.06 67.4314 Q1599.55 61.0714 1599.55 49.9314 Q1599.55 38.7509 1605.06 32.4315 Q1610.61 26.1121 1620.37 26.1121 Z" fill="#000000" fill-rule="nonzero" fill-opacity="1"></path><path clip-path="url(#clip040)" d="M1691.27 45.1919 L1691.27 72.576 L1683.81 72.576 L1683.81 45.4349 Q1683.81 38.994 1681.3 35.7938 Q1678.79 32.5936 1673.77 32.5936 Q1667.73 32.5936 1664.25 36.4419 Q1660.76 40.2903 1660.76 46.9338 L1660.76 72.576 L1653.27 72.576 L1653.27 27.2059 L1660.76 27.2059 L1660.76 34.2544 Q1663.44 30.163 1667.04 28.1376 Q1670.69 26.1121 1675.43 26.1121 Q1683.24 26.1121 1687.26 30.9732 Q1691.27 35.7938 1691.27 45.1919 Z" fill="#000000" fill-rule="nonzero" fill-opacity="1"></path><polyline clip-path="url(#clip042)" style="stroke:#009af9; stroke-linecap:round; stroke-linejoin:round; stroke-width:4; stroke-opacity:1; fill:none" points="2294.28,825.552 2292.28,825.334 2286.28,824.682 2276.31,823.604 2262.41,822.114 2244.64,820.228 2223.06,817.967 2197.77,815.358 2168.88,812.428 2136.49,809.208 2100.75,805.73 2061.8,802.027 2019.8,798.135 1974.93,794.088 1927.36,789.921 1877.29,785.671 1824.93,781.373 1770.5,777.064 1714.22,772.781 1656.31,768.561 1597.02,764.444 1536.59,760.468 1475.27,756.676 1413.32,753.11 1350.97,749.812 1288.5,746.827 1226.16,744.198 1164.2,741.968 1102.88,740.18 1042.45,738.871 983.163,738.079 925.257,737.833 868.972,738.161 814.539,739.083 762.183,740.61 712.117,742.749 664.548,745.498 619.672,748.847 577.672,752.78 538.722,757.273 502.981,762.298 470.596,767.82 441.701,773.804 416.414,780.211 394.838,787.002 377.063,794.14 363.162,801.592 353.192,809.326 347.193,817.319 345.191,825.552 347.114,833.622 352.875,841.462 362.452,849.056 375.808,856.378 392.888,863.403 413.627,870.098 437.941,876.427 465.735,882.356 496.9,887.847 531.312,892.867 568.836,897.382 609.323,901.365 652.614,904.792 698.538,907.646 746.913,909.916 797.549,911.598 850.246,912.696 904.795,913.219 960.982,913.184 1018.59,912.613 1077.38,911.534 1137.13,909.979 1197.59,907.983 1258.54,905.585 1319.74,902.826 1380.93,899.745 1441.88,896.384 1502.35,892.784 1562.1,888.985 1620.89,885.028 1678.49,880.949 1734.68,876.786 1789.23,872.575 1841.92,868.352 1892.56,864.151 1940.94,860.006 1986.86,855.951 2030.15,852.019 2070.64,848.244 2108.16,844.659 2142.57,841.296 2173.74,838.186 2201.53,835.36 2225.85,832.846 2246.59,830.67 2263.67,828.856 2277.02,827.423 2286.6,826.387 2292.36,825.761 2294.28,825.552 "></polyline>
<polyline clip-path="url(#clip042)" style="stroke:#e26f46; stroke-linecap:round; stroke-linejoin:round; stroke-width:4; stroke-opacity:1; fill:none" points="2294.28,825.552 2292.28,824.983 2286.28,823.286 2276.31,820.48 2262.41,816.612 2244.64,811.763 2223.06,806.036 2197.77,799.549 2168.88,792.423 2136.49,784.762 2100.75,776.655 2061.8,768.153 2019.8,759.292 1974.93,750.119 1927.36,740.694 1877.29,731.088 1824.93,721.384 1770.5,711.672 1714.22,702.05 1656.31,692.622 1597.02,683.494 1536.59,674.772 1475.27,666.567 1413.32,658.989 1350.97,652.15 1288.5,646.167 1226.16,641.16 1164.2,637.264 1102.88,634.639 1042.45,633.433 983.163,633.733 925.257,635.573 868.972,638.931 814.539,643.73 762.183,649.87 712.117,657.261 664.548,665.809 619.672,675.42 577.672,685.993 538.722,697.419 502.981,709.579 470.596,722.339 441.701,735.543 416.414,749.017 394.838,762.568 377.063,776.003 363.162,789.147 353.192,801.882 347.193,813.908 345.191,825.552 347.114,833.077 352.875,840.435 362.452,847.707 375.808,854.671 392.888,861.176 413.627,867.014 437.941,872.007 465.735,876.082 496.9,879.213 531.312,881.421 568.836,882.765 609.323,883.331 652.614,883.22 698.538,882.529 746.913,881.342 797.549,879.723 850.246,877.742 904.795,875.467 960.982,872.971 1018.59,870.317 1077.38,867.566 1137.13,864.772 1197.59,861.977 1258.54,859.217 1319.74,856.518 1380.93,853.9 1441.88,851.373 1502.35,848.946 1562.1,846.622 1620.89,844.404 1678.49,842.293 1734.68,840.293 1789.23,838.409 1841.92,836.648 1892.56,835.017 1940.94,833.526 1986.86,832.184 2030.15,830.993 2070.64,829.955 2108.16,829.064 2142.57,828.304 2173.74,827.663 2201.53,827.129 2225.85,826.692 2246.59,826.341 2263.67,826.065 2277.02,825.852 2286.6,825.695 2292.36,825.592 2294.28,825.552 "></polyline>
<path clip-path="url(#clip040)" d="M1832.75 322.316 L2283.89 322.316 L2283.89 166.796 L1832.75 166.796  Z" fill="#ffffff" fill-rule="evenodd" fill-opacity="1"></path>
<polyline clip-path="url(#clip040)" style="stroke:#000000; stroke-linecap:round; stroke-linejoin:round; stroke-width:4; stroke-opacity:1; fill:none" points="1832.75,322.316 2283.89,322.316 2283.89,166.796 1832.75,166.796 1832.75,322.316 "></polyline>
<polyline clip-path="url(#clip040)" style="stroke:#009af9; stroke-linecap:round; stroke-linejoin:round; stroke-width:4; stroke-opacity:1; fill:none" points="1855.7,218.636 1993.44,218.636 "></polyline>
<path clip-path="url(#clip040)" d="M2038.64 202.49 L2038.64 207.05 Q2035.98 205.777 2033.62 205.152 Q2031.26 204.527 2029.06 204.527 Q2025.24 204.527 2023.16 206.008 Q2021.1 207.49 2021.1 210.221 Q2021.1 212.513 2022.46 213.694 Q2023.85 214.851 2027.69 215.569 L2030.52 216.147 Q2035.75 217.143 2038.22 219.666 Q2040.72 222.166 2040.72 226.379 Q2040.72 231.402 2037.35 233.994 Q2033.99 236.587 2027.48 236.587 Q2025.03 236.587 2022.25 236.031 Q2019.5 235.476 2016.54 234.388 L2016.54 229.573 Q2019.38 231.17 2022.11 231.981 Q2024.85 232.791 2027.48 232.791 Q2031.49 232.791 2033.66 231.217 Q2035.84 229.643 2035.84 226.726 Q2035.84 224.18 2034.27 222.744 Q2032.72 221.309 2029.15 220.592 L2026.3 220.036 Q2021.07 218.995 2018.73 216.772 Q2016.4 214.55 2016.4 210.592 Q2016.4 206.008 2019.61 203.37 Q2022.85 200.731 2028.53 200.731 Q2030.96 200.731 2033.48 201.171 Q2036 201.61 2038.64 202.49 Z" fill="#000000" fill-rule="nonzero" fill-opacity="1"></path><path clip-path="url(#clip040)" d="M2052.04 202.629 L2052.04 209.99 L2060.82 209.99 L2060.82 213.3 L2052.04 213.3 L2052.04 227.374 Q2052.04 230.545 2052.9 231.448 Q2053.78 232.351 2056.44 232.351 L2060.82 232.351 L2060.82 235.916 L2056.44 235.916 Q2051.51 235.916 2049.64 234.087 Q2047.76 232.235 2047.76 227.374 L2047.76 213.3 L2044.64 213.3 L2044.64 209.99 L2047.76 209.99 L2047.76 202.629 L2052.04 202.629 Z" fill="#000000" fill-rule="nonzero" fill-opacity="1"></path><path clip-path="url(#clip040)" d="M2078.2 222.883 Q2073.04 222.883 2071.05 224.064 Q2069.06 225.244 2069.06 228.092 Q2069.06 230.36 2070.54 231.703 Q2072.04 233.022 2074.61 233.022 Q2078.16 233.022 2080.28 230.522 Q2082.44 227.999 2082.44 223.832 L2082.44 222.883 L2078.2 222.883 M2086.7 221.124 L2086.7 235.916 L2082.44 235.916 L2082.44 231.981 Q2080.98 234.342 2078.8 235.476 Q2076.63 236.587 2073.48 236.587 Q2069.5 236.587 2067.14 234.365 Q2064.8 232.119 2064.8 228.369 Q2064.8 223.994 2067.72 221.772 Q2070.66 219.55 2076.47 219.55 L2082.44 219.55 L2082.44 219.133 Q2082.44 216.194 2080.49 214.596 Q2078.57 212.976 2075.08 212.976 Q2072.85 212.976 2070.75 213.508 Q2068.64 214.041 2066.7 215.106 L2066.7 211.17 Q2069.03 210.268 2071.23 209.828 Q2073.43 209.365 2075.52 209.365 Q2081.14 209.365 2083.92 212.282 Q2086.7 215.198 2086.7 221.124 Z" fill="#000000" fill-rule="nonzero" fill-opacity="1"></path><path clip-path="url(#clip040)" d="M2110.49 213.971 Q2109.78 213.555 2108.92 213.37 Q2108.09 213.161 2107.07 213.161 Q2103.46 213.161 2101.51 215.522 Q2099.59 217.86 2099.59 222.258 L2099.59 235.916 L2095.31 235.916 L2095.31 209.99 L2099.59 209.99 L2099.59 214.018 Q2100.93 211.657 2103.09 210.522 Q2105.24 209.365 2108.32 209.365 Q2108.76 209.365 2109.29 209.434 Q2109.82 209.481 2110.47 209.596 L2110.49 213.971 Z" fill="#000000" fill-rule="nonzero" fill-opacity="1"></path><path clip-path="url(#clip040)" d="M2119.17 202.629 L2119.17 209.99 L2127.95 209.99 L2127.95 213.3 L2119.17 213.3 L2119.17 227.374 Q2119.17 230.545 2120.03 231.448 Q2120.91 232.351 2123.57 232.351 L2127.95 232.351 L2127.95 235.916 L2123.57 235.916 Q2118.64 235.916 2116.77 234.087 Q2114.89 232.235 2114.89 227.374 L2114.89 213.3 L2111.77 213.3 L2111.77 209.99 L2114.89 209.99 L2114.89 202.629 L2119.17 202.629 Z" fill="#000000" fill-rule="nonzero" fill-opacity="1"></path><path clip-path="url(#clip040)" d="M2133.55 209.99 L2137.81 209.99 L2137.81 235.916 L2133.55 235.916 L2133.55 209.99 M2133.55 199.897 L2137.81 199.897 L2137.81 205.291 L2133.55 205.291 L2133.55 199.897 Z" fill="#000000" fill-rule="nonzero" fill-opacity="1"></path><path clip-path="url(#clip040)" d="M2168.27 220.268 L2168.27 235.916 L2164.01 235.916 L2164.01 220.407 Q2164.01 216.726 2162.58 214.897 Q2161.14 213.069 2158.27 213.069 Q2154.82 213.069 2152.83 215.268 Q2150.84 217.467 2150.84 221.263 L2150.84 235.916 L2146.56 235.916 L2146.56 209.99 L2150.84 209.99 L2150.84 214.018 Q2152.37 211.68 2154.43 210.522 Q2156.51 209.365 2159.22 209.365 Q2163.69 209.365 2165.98 212.143 Q2168.27 214.897 2168.27 220.268 Z" fill="#000000" fill-rule="nonzero" fill-opacity="1"></path><path clip-path="url(#clip040)" d="M2193.83 222.652 Q2193.83 218.022 2191.9 215.476 Q2190.01 212.93 2186.56 212.93 Q2183.13 212.93 2181.21 215.476 Q2179.31 218.022 2179.31 222.652 Q2179.31 227.258 2181.21 229.805 Q2183.13 232.351 2186.56 232.351 Q2190.01 232.351 2191.9 229.805 Q2193.83 227.258 2193.83 222.652 M2198.09 232.698 Q2198.09 239.318 2195.15 242.536 Q2192.21 245.777 2186.14 245.777 Q2183.9 245.777 2181.9 245.43 Q2179.91 245.105 2178.04 244.411 L2178.04 240.268 Q2179.91 241.286 2181.74 241.772 Q2183.57 242.258 2185.47 242.258 Q2189.66 242.258 2191.74 240.059 Q2193.83 237.883 2193.83 233.462 L2193.83 231.356 Q2192.51 233.647 2190.45 234.781 Q2188.39 235.916 2185.52 235.916 Q2180.75 235.916 2177.83 232.281 Q2174.91 228.647 2174.91 222.652 Q2174.91 216.633 2177.83 212.999 Q2180.75 209.365 2185.52 209.365 Q2188.39 209.365 2190.45 210.499 Q2192.51 211.633 2193.83 213.925 L2193.83 209.99 L2198.09 209.99 L2198.09 232.698 Z" fill="#000000" fill-rule="nonzero" fill-opacity="1"></path><polyline clip-path="url(#clip040)" style="stroke:#e26f46; stroke-linecap:round; stroke-linejoin:round; stroke-width:4; stroke-opacity:1; fill:none" points="1855.7,270.476 1993.44,270.476 "></polyline>
<path clip-path="url(#clip040)" d="M2041.95 282.825 L2041.95 273.543 L2034.31 273.543 L2034.31 269.7 L2046.58 269.7 L2046.58 284.538 Q2043.87 286.459 2040.61 287.455 Q2037.35 288.427 2033.64 288.427 Q2025.54 288.427 2020.96 283.705 Q2016.4 278.959 2016.4 270.51 Q2016.4 262.038 2020.96 257.316 Q2025.54 252.571 2033.64 252.571 Q2037.02 252.571 2040.05 253.404 Q2043.11 254.237 2045.68 255.858 L2045.68 260.835 Q2043.09 258.636 2040.17 257.524 Q2037.25 256.413 2034.04 256.413 Q2027.69 256.413 2024.5 259.955 Q2021.33 263.497 2021.33 270.51 Q2021.33 277.501 2024.5 281.043 Q2027.69 284.584 2034.04 284.584 Q2036.51 284.584 2038.46 284.168 Q2040.4 283.728 2041.95 282.825 Z" fill="#000000" fill-rule="nonzero" fill-opacity="1"></path><path clip-path="url(#clip040)" d="M2077.11 273.728 L2077.11 275.811 L2057.53 275.811 Q2057.81 280.209 2060.17 282.524 Q2062.55 284.816 2066.79 284.816 Q2069.24 284.816 2071.53 284.214 Q2073.85 283.612 2076.12 282.409 L2076.12 286.436 Q2073.83 287.408 2071.42 287.918 Q2069.01 288.427 2066.53 288.427 Q2060.33 288.427 2056.7 284.816 Q2053.09 281.205 2053.09 275.047 Q2053.09 268.682 2056.51 264.955 Q2059.96 261.205 2065.79 261.205 Q2071.03 261.205 2074.06 264.585 Q2077.11 267.941 2077.11 273.728 M2072.85 272.478 Q2072.81 268.983 2070.89 266.899 Q2068.99 264.816 2065.84 264.816 Q2062.28 264.816 2060.12 266.83 Q2057.99 268.844 2057.67 272.501 L2072.85 272.478 Z" fill="#000000" fill-rule="nonzero" fill-opacity="1"></path><path clip-path="url(#clip040)" d="M2105.66 272.108 L2105.66 287.756 L2101.4 287.756 L2101.4 272.247 Q2101.4 268.566 2099.96 266.737 Q2098.53 264.909 2095.66 264.909 Q2092.21 264.909 2090.22 267.108 Q2088.22 269.307 2088.22 273.103 L2088.22 287.756 L2083.94 287.756 L2083.94 261.83 L2088.22 261.83 L2088.22 265.858 Q2089.75 263.52 2091.81 262.362 Q2093.9 261.205 2096.6 261.205 Q2101.07 261.205 2103.36 263.983 Q2105.66 266.737 2105.66 272.108 Z" fill="#000000" fill-rule="nonzero" fill-opacity="1"></path><path clip-path="url(#clip040)" d="M2136.33 273.728 L2136.33 275.811 L2116.74 275.811 Q2117.02 280.209 2119.38 282.524 Q2121.77 284.816 2126 284.816 Q2128.46 284.816 2130.75 284.214 Q2133.06 283.612 2135.33 282.409 L2135.33 286.436 Q2133.04 287.408 2130.63 287.918 Q2128.22 288.427 2125.75 288.427 Q2119.54 288.427 2115.91 284.816 Q2112.3 281.205 2112.3 275.047 Q2112.3 268.682 2115.72 264.955 Q2119.17 261.205 2125.01 261.205 Q2130.24 261.205 2133.27 264.585 Q2136.33 267.941 2136.33 273.728 M2132.07 272.478 Q2132.02 268.983 2130.1 266.899 Q2128.2 264.816 2125.05 264.816 Q2121.49 264.816 2119.34 266.83 Q2117.21 268.844 2116.88 272.501 L2132.07 272.478 Z" fill="#000000" fill-rule="nonzero" fill-opacity="1"></path><path clip-path="url(#clip040)" d="M2158.34 265.811 Q2157.62 265.395 2156.77 265.21 Q2155.93 265.001 2154.91 265.001 Q2151.3 265.001 2149.36 267.362 Q2147.44 269.7 2147.44 274.098 L2147.44 287.756 L2143.15 287.756 L2143.15 261.83 L2147.44 261.83 L2147.44 265.858 Q2148.78 263.497 2150.93 262.362 Q2153.09 261.205 2156.16 261.205 Q2156.6 261.205 2157.14 261.274 Q2157.67 261.321 2158.32 261.436 L2158.34 265.811 Z" fill="#000000" fill-rule="nonzero" fill-opacity="1"></path><path clip-path="url(#clip040)" d="M2174.59 274.723 Q2169.43 274.723 2167.44 275.904 Q2165.45 277.084 2165.45 279.932 Q2165.45 282.2 2166.93 283.543 Q2168.43 284.862 2171 284.862 Q2174.54 284.862 2176.67 282.362 Q2178.83 279.839 2178.83 275.672 L2178.83 274.723 L2174.59 274.723 M2183.09 272.964 L2183.09 287.756 L2178.83 287.756 L2178.83 283.821 Q2177.37 286.182 2175.19 287.316 Q2173.02 288.427 2169.87 288.427 Q2165.89 288.427 2163.53 286.205 Q2161.19 283.959 2161.19 280.209 Q2161.19 275.834 2164.1 273.612 Q2167.04 271.39 2172.85 271.39 L2178.83 271.39 L2178.83 270.973 Q2178.83 268.034 2176.88 266.436 Q2174.96 264.816 2171.46 264.816 Q2169.24 264.816 2167.14 265.348 Q2165.03 265.881 2163.09 266.946 L2163.09 263.01 Q2165.42 262.108 2167.62 261.668 Q2169.82 261.205 2171.9 261.205 Q2177.53 261.205 2180.31 264.122 Q2183.09 267.038 2183.09 272.964 Z" fill="#000000" fill-rule="nonzero" fill-opacity="1"></path><path clip-path="url(#clip040)" d="M2196.07 254.469 L2196.07 261.83 L2204.84 261.83 L2204.84 265.14 L2196.07 265.14 L2196.07 279.214 Q2196.07 282.385 2196.93 283.288 Q2197.81 284.191 2200.47 284.191 L2204.84 284.191 L2204.84 287.756 L2200.47 287.756 Q2195.54 287.756 2193.66 285.927 Q2191.79 284.075 2191.79 279.214 L2191.79 265.14 L2188.66 265.14 L2188.66 261.83 L2191.79 261.83 L2191.79 254.469 L2196.07 254.469 Z" fill="#000000" fill-rule="nonzero" fill-opacity="1"></path><path clip-path="url(#clip040)" d="M2232.62 273.728 L2232.62 275.811 L2213.04 275.811 Q2213.32 280.209 2215.68 282.524 Q2218.06 284.816 2222.3 284.816 Q2224.75 284.816 2227.04 284.214 Q2229.36 283.612 2231.63 282.409 L2231.63 286.436 Q2229.33 287.408 2226.93 287.918 Q2224.52 288.427 2222.04 288.427 Q2215.84 288.427 2212.21 284.816 Q2208.59 281.205 2208.59 275.047 Q2208.59 268.682 2212.02 264.955 Q2215.47 261.205 2221.3 261.205 Q2226.53 261.205 2229.57 264.585 Q2232.62 267.941 2232.62 273.728 M2228.36 272.478 Q2228.32 268.983 2226.4 266.899 Q2224.5 264.816 2221.35 264.816 Q2217.78 264.816 2215.63 266.83 Q2213.5 268.844 2213.18 272.501 L2228.36 272.478 Z" fill="#000000" fill-rule="nonzero" fill-opacity="1"></path><path clip-path="url(#clip040)" d="M2256.67 265.765 L2256.67 251.737 L2260.93 251.737 L2260.93 287.756 L2256.67 287.756 L2256.67 283.867 Q2255.33 286.182 2253.27 287.316 Q2251.23 288.427 2248.36 288.427 Q2243.66 288.427 2240.7 284.677 Q2237.76 280.927 2237.76 274.816 Q2237.76 268.705 2240.7 264.955 Q2243.66 261.205 2248.36 261.205 Q2251.23 261.205 2253.27 262.339 Q2255.33 263.45 2256.67 265.765 M2242.16 274.816 Q2242.16 279.515 2244.08 282.2 Q2246.02 284.862 2249.4 284.862 Q2252.78 284.862 2254.73 282.2 Q2256.67 279.515 2256.67 274.816 Q2256.67 270.117 2254.73 267.455 Q2252.78 264.77 2249.4 264.77 Q2246.02 264.77 2244.08 267.455 Q2242.16 270.117 2242.16 274.816 Z" fill="#000000" fill-rule="nonzero" fill-opacity="1"></path></svg>