<svg xmlns="http://www.w3.org/2000/svg" xmlns:xlink="http://www.w3.org/1999/xlink" width="600" height="400" viewBox="0 0 2400 1600">
<defs>
  <clipPath id="clip410">
    <rect x="0" y="0" width="2400" height="1600"></rect>
  </clipPath>
</defs>
<path clip-path="url(#clip410)" d="M0 1600 L2400 1600 L2400 0 L0 0  Z" fill="#ffffff" fill-rule="evenodd" fill-opacity="1"></path>
<defs>
  <clipPath id="clip411">
    <rect x="480" y="0" width="1681" height="1600"></rect>
  </clipPath>
</defs>
<path clip-path="url(#clip410)" d="M285.769 1423.18 L2352.76 1423.18 L2352.76 123.472 L285.769 123.472  Z" fill="#ffffff" fill-rule="evenodd" fill-opacity="1"></path>
<defs>
  <clipPath id="clip412">
    <rect x="285" y="123" width="2068" height="1301"></rect>
  </clipPath>
</defs>
<polyline clip-path="url(#clip412)" style="stroke:#000000; stroke-linecap:round; stroke-linejoin:round; stroke-width:2; stroke-opacity:0.1; fill:none" points="344.268,1423.18 344.268,123.472 "></polyline>
<polyline clip-path="url(#clip412)" style="stroke:#000000; stroke-linecap:round; stroke-linejoin:round; stroke-width:2; stroke-opacity:0.1; fill:none" points="831.765,1423.18 831.765,123.472 "></polyline>
<polyline clip-path="url(#clip412)" style="stroke:#000000; stroke-linecap:round; stroke-linejoin:round; stroke-width:2; stroke-opacity:0.1; fill:none" points="1319.26,1423.18 1319.26,123.472 "></polyline>
<polyline clip-path="url(#clip412)" style="stroke:#000000; stroke-linecap:round; stroke-linejoin:round; stroke-width:2; stroke-opacity:0.1; fill:none" points="1806.76,1423.18 1806.76,123.472 "></polyline>
<polyline clip-path="url(#clip412)" style="stroke:#000000; stroke-linecap:round; stroke-linejoin:round; stroke-width:2; stroke-opacity:0.1; fill:none" points="2294.26,1423.18 2294.26,123.472 "></polyline>
<polyline clip-path="url(#clip410)" style="stroke:#000000; stroke-linecap:round; stroke-linejoin:round; stroke-width:4; stroke-opacity:1; fill:none" points="285.769,1423.18 2352.76,1423.18 "></polyline>
<polyline clip-path="url(#clip410)" style="stroke:#000000; stroke-linecap:round; stroke-linejoin:round; stroke-width:4; stroke-opacity:1; fill:none" points="344.268,1423.18 344.268,1404.28 "></polyline>
<polyline clip-path="url(#clip410)" style="stroke:#000000; stroke-linecap:round; stroke-linejoin:round; stroke-width:4; stroke-opacity:1; fill:none" points="831.765,1423.18 831.765,1404.28 "></polyline>
<polyline clip-path="url(#clip410)" style="stroke:#000000; stroke-linecap:round; stroke-linejoin:round; stroke-width:4; stroke-opacity:1; fill:none" points="1319.26,1423.18 1319.26,1404.28 "></polyline>
<polyline clip-path="url(#clip410)" style="stroke:#000000; stroke-linecap:round; stroke-linejoin:round; stroke-width:4; stroke-opacity:1; fill:none" points="1806.76,1423.18 1806.76,1404.28 "></polyline>
<polyline clip-path="url(#clip410)" style="stroke:#000000; stroke-linecap:round; stroke-linejoin:round; stroke-width:4; stroke-opacity:1; fill:none" points="2294.26,1423.18 2294.26,1404.28 "></polyline>
<path clip-path="url(#clip410)" d="M306.572 1454.1 Q302.961 1454.1 301.132 1457.66 Q299.326 1461.2 299.326 1468.33 Q299.326 1475.44 301.132 1479.01 Q302.961 1482.55 306.572 1482.55 Q310.206 1482.55 312.012 1479.01 Q313.84 1475.44 313.84 1468.33 Q313.84 1461.2 312.012 1457.66 Q310.206 1454.1 306.572 1454.1 M306.572 1450.39 Q312.382 1450.39 315.437 1455 Q318.516 1459.58 318.516 1468.33 Q318.516 1477.06 315.437 1481.67 Q312.382 1486.25 306.572 1486.25 Q300.762 1486.25 297.683 1481.67 Q294.627 1477.06 294.627 1468.33 Q294.627 1459.58 297.683 1455 Q300.762 1450.39 306.572 1450.39 Z" fill="#000000" fill-rule="nonzero" fill-opacity="1"></path><path clip-path="url(#clip410)" d="M326.734 1479.7 L331.618 1479.7 L331.618 1485.58 L326.734 1485.58 L326.734 1479.7 Z" fill="#000000" fill-rule="nonzero" fill-opacity="1"></path><path clip-path="url(#clip410)" d="M351.803 1454.1 Q348.192 1454.1 346.363 1457.66 Q344.558 1461.2 344.558 1468.33 Q344.558 1475.44 346.363 1479.01 Q348.192 1482.55 351.803 1482.55 Q355.437 1482.55 357.243 1479.01 Q359.071 1475.44 359.071 1468.33 Q359.071 1461.2 357.243 1457.66 Q355.437 1454.1 351.803 1454.1 M351.803 1450.39 Q357.613 1450.39 360.669 1455 Q363.747 1459.58 363.747 1468.33 Q363.747 1477.06 360.669 1481.67 Q357.613 1486.25 351.803 1486.25 Q345.993 1486.25 342.914 1481.67 Q339.859 1477.06 339.859 1468.33 Q339.859 1459.58 342.914 1455 Q345.993 1450.39 351.803 1450.39 Z" fill="#000000" fill-rule="nonzero" fill-opacity="1"></path><path clip-path="url(#clip410)" d="M381.965 1454.1 Q378.354 1454.1 376.525 1457.66 Q374.72 1461.2 374.72 1468.33 Q374.72 1475.44 376.525 1479.01 Q378.354 1482.55 381.965 1482.55 Q385.599 1482.55 387.405 1479.01 Q389.233 1475.44 389.233 1468.33 Q389.233 1461.2 387.405 1457.66 Q385.599 1454.1 381.965 1454.1 M381.965 1450.39 Q387.775 1450.39 390.831 1455 Q393.909 1459.58 393.909 1468.33 Q393.909 1477.06 390.831 1481.67 Q387.775 1486.25 381.965 1486.25 Q376.155 1486.25 373.076 1481.67 Q370.021 1477.06 370.021 1468.33 Q370.021 1459.58 373.076 1455 Q376.155 1450.39 381.965 1450.39 Z" fill="#000000" fill-rule="nonzero" fill-opacity="1"></path><path clip-path="url(#clip410)" d="M794.566 1454.1 Q790.955 1454.1 789.127 1457.66 Q787.321 1461.2 787.321 1468.33 Q787.321 1475.44 789.127 1479.01 Q790.955 1482.55 794.566 1482.55 Q798.201 1482.55 800.006 1479.01 Q801.835 1475.44 801.835 1468.33 Q801.835 1461.2 800.006 1457.66 Q798.201 1454.1 794.566 1454.1 M794.566 1450.39 Q800.377 1450.39 803.432 1455 Q806.511 1459.58 806.511 1468.33 Q806.511 1477.06 803.432 1481.67 Q800.377 1486.25 794.566 1486.25 Q788.756 1486.25 785.678 1481.67 Q782.622 1477.06 782.622 1468.33 Q782.622 1459.58 785.678 1455 Q788.756 1450.39 794.566 1450.39 Z" fill="#000000" fill-rule="nonzero" fill-opacity="1"></path><path clip-path="url(#clip410)" d="M814.728 1479.7 L819.613 1479.7 L819.613 1485.58 L814.728 1485.58 L814.728 1479.7 Z" fill="#000000" fill-rule="nonzero" fill-opacity="1"></path><path clip-path="url(#clip410)" d="M833.825 1481.64 L850.145 1481.64 L850.145 1485.58 L828.201 1485.58 L828.201 1481.64 Q830.863 1478.89 835.446 1474.26 Q840.052 1469.61 841.233 1468.27 Q843.478 1465.74 844.358 1464.01 Q845.261 1462.25 845.261 1460.56 Q845.261 1457.8 843.316 1456.07 Q841.395 1454.33 838.293 1454.33 Q836.094 1454.33 833.64 1455.09 Q831.21 1455.86 828.432 1457.41 L828.432 1452.69 Q831.256 1451.55 833.71 1450.97 Q836.163 1450.39 838.2 1450.39 Q843.571 1450.39 846.765 1453.08 Q849.96 1455.77 849.96 1460.26 Q849.96 1462.39 849.149 1464.31 Q848.362 1466.2 846.256 1468.8 Q845.677 1469.47 842.575 1472.69 Q839.474 1475.88 833.825 1481.64 Z" fill="#000000" fill-rule="nonzero" fill-opacity="1"></path><path clip-path="url(#clip410)" d="M860.006 1451.02 L878.362 1451.02 L878.362 1454.96 L864.288 1454.96 L864.288 1463.43 Q865.307 1463.08 866.325 1462.92 Q867.344 1462.73 868.362 1462.73 Q874.149 1462.73 877.529 1465.9 Q880.909 1469.08 880.909 1474.49 Q880.909 1480.07 877.436 1483.17 Q873.964 1486.25 867.645 1486.25 Q865.469 1486.25 863.2 1485.88 Q860.955 1485.51 858.548 1484.77 L858.548 1480.07 Q860.631 1481.2 862.853 1481.76 Q865.075 1482.32 867.552 1482.32 Q871.557 1482.32 873.895 1480.21 Q876.233 1478.1 876.233 1474.49 Q876.233 1470.88 873.895 1468.77 Q871.557 1466.67 867.552 1466.67 Q865.677 1466.67 863.802 1467.08 Q861.95 1467.5 860.006 1468.38 L860.006 1451.02 Z" fill="#000000" fill-rule="nonzero" fill-opacity="1"></path><path clip-path="url(#clip410)" d="M1281.57 1454.1 Q1277.95 1454.1 1276.13 1457.66 Q1274.32 1461.2 1274.32 1468.33 Q1274.32 1475.44 1276.13 1479.01 Q1277.95 1482.55 1281.57 1482.55 Q1285.2 1482.55 1287.01 1479.01 Q1288.83 1475.44 1288.83 1468.33 Q1288.83 1461.2 1287.01 1457.66 Q1285.2 1454.1 1281.57 1454.1 M1281.57 1450.39 Q1287.38 1450.39 1290.43 1455 Q1293.51 1459.58 1293.51 1468.33 Q1293.51 1477.06 1290.43 1481.67 Q1287.38 1486.25 1281.57 1486.25 Q1275.76 1486.25 1272.68 1481.67 Q1269.62 1477.06 1269.62 1468.33 Q1269.62 1459.58 1272.68 1455 Q1275.76 1450.39 1281.57 1450.39 Z" fill="#000000" fill-rule="nonzero" fill-opacity="1"></path><path clip-path="url(#clip410)" d="M1301.73 1479.7 L1306.61 1479.7 L1306.61 1485.58 L1301.73 1485.58 L1301.73 1479.7 Z" fill="#000000" fill-rule="nonzero" fill-opacity="1"></path><path clip-path="url(#clip410)" d="M1316.84 1451.02 L1335.2 1451.02 L1335.2 1454.96 L1321.13 1454.96 L1321.13 1463.43 Q1322.14 1463.08 1323.16 1462.92 Q1324.18 1462.73 1325.2 1462.73 Q1330.99 1462.73 1334.37 1465.9 Q1337.75 1469.08 1337.75 1474.49 Q1337.75 1480.07 1334.27 1483.17 Q1330.8 1486.25 1324.48 1486.25 Q1322.31 1486.25 1320.04 1485.88 Q1317.79 1485.51 1315.39 1484.77 L1315.39 1480.07 Q1317.47 1481.2 1319.69 1481.76 Q1321.91 1482.32 1324.39 1482.32 Q1328.39 1482.32 1330.73 1480.21 Q1333.07 1478.1 1333.07 1474.49 Q1333.07 1470.88 1330.73 1468.77 Q1328.39 1466.67 1324.39 1466.67 Q1322.51 1466.67 1320.64 1467.08 Q1318.79 1467.5 1316.84 1468.38 L1316.84 1451.02 Z" fill="#000000" fill-rule="nonzero" fill-opacity="1"></path><path clip-path="url(#clip410)" d="M1356.96 1454.1 Q1353.35 1454.1 1351.52 1457.66 Q1349.71 1461.2 1349.71 1468.33 Q1349.71 1475.44 1351.52 1479.01 Q1353.35 1482.55 1356.96 1482.55 Q1360.59 1482.55 1362.4 1479.01 Q1364.23 1475.44 1364.23 1468.33 Q1364.23 1461.2 1362.4 1457.66 Q1360.59 1454.1 1356.96 1454.1 M1356.96 1450.39 Q1362.77 1450.39 1365.82 1455 Q1368.9 1459.58 1368.9 1468.33 Q1368.9 1477.06 1365.82 1481.67 Q1362.77 1486.25 1356.96 1486.25 Q1351.15 1486.25 1348.07 1481.67 Q1345.01 1477.06 1345.01 1468.33 Q1345.01 1459.58 1348.07 1455 Q1351.15 1450.39 1356.96 1450.39 Z" fill="#000000" fill-rule="nonzero" fill-opacity="1"></path><path clip-path="url(#clip410)" d="M1769.56 1454.1 Q1765.95 1454.1 1764.12 1457.66 Q1762.32 1461.2 1762.32 1468.33 Q1762.32 1475.44 1764.12 1479.01 Q1765.95 1482.55 1769.56 1482.55 Q1773.19 1482.55 1775 1479.01 Q1776.83 1475.44 1776.83 1468.33 Q1776.83 1461.2 1775 1457.66 Q1773.19 1454.1 1769.56 1454.1 M1769.56 1450.39 Q1775.37 1450.39 1778.43 1455 Q1781.5 1459.58 1781.5 1468.33 Q1781.5 1477.06 1778.43 1481.67 Q1775.37 1486.25 1769.56 1486.25 Q1763.75 1486.25 1760.67 1481.67 Q1757.62 1477.06 1757.62 1468.33 Q1757.62 1459.58 1760.67 1455 Q1763.75 1450.39 1769.56 1450.39 Z" fill="#000000" fill-rule="nonzero" fill-opacity="1"></path><path clip-path="url(#clip410)" d="M1789.72 1479.7 L1794.61 1479.7 L1794.61 1485.58 L1789.72 1485.58 L1789.72 1479.7 Z" fill="#000000" fill-rule="nonzero" fill-opacity="1"></path><path clip-path="url(#clip410)" d="M1803.61 1451.02 L1825.83 1451.02 L1825.83 1453.01 L1813.29 1485.58 L1808.4 1485.58 L1820.21 1454.96 L1803.61 1454.96 L1803.61 1451.02 Z" fill="#000000" fill-rule="nonzero" fill-opacity="1"></path><path clip-path="url(#clip410)" d="M1835 1451.02 L1853.36 1451.02 L1853.36 1454.96 L1839.28 1454.96 L1839.28 1463.43 Q1840.3 1463.08 1841.32 1462.92 Q1842.34 1462.73 1843.36 1462.73 Q1849.14 1462.73 1852.52 1465.9 Q1855.9 1469.08 1855.9 1474.49 Q1855.9 1480.07 1852.43 1483.17 Q1848.96 1486.25 1842.64 1486.25 Q1840.46 1486.25 1838.19 1485.88 Q1835.95 1485.51 1833.54 1484.77 L1833.54 1480.07 Q1835.62 1481.2 1837.85 1481.76 Q1840.07 1482.32 1842.55 1482.32 Q1846.55 1482.32 1848.89 1480.21 Q1851.23 1478.1 1851.23 1474.49 Q1851.23 1470.88 1848.89 1468.77 Q1846.55 1466.67 1842.55 1466.67 Q1840.67 1466.67 1838.8 1467.08 Q1836.94 1467.5 1835 1468.38 L1835 1451.02 Z" fill="#000000" fill-rule="nonzero" fill-opacity="1"></path><path clip-path="url(#clip410)" d="M2246.33 1481.64 L2253.97 1481.64 L2253.97 1455.28 L2245.66 1456.95 L2245.66 1452.69 L2253.92 1451.02 L2258.6 1451.02 L2258.6 1481.64 L2266.24 1481.64 L2266.24 1485.58 L2246.33 1485.58 L2246.33 1481.64 Z" fill="#000000" fill-rule="nonzero" fill-opacity="1"></path><path clip-path="url(#clip410)" d="M2275.68 1479.7 L2280.56 1479.7 L2280.56 1485.58 L2275.68 1485.58 L2275.68 1479.7 Z" fill="#000000" fill-rule="nonzero" fill-opacity="1"></path><path clip-path="url(#clip410)" d="M2300.75 1454.1 Q2297.14 1454.1 2295.31 1457.66 Q2293.5 1461.2 2293.5 1468.33 Q2293.5 1475.44 2295.31 1479.01 Q2297.14 1482.55 2300.75 1482.55 Q2304.38 1482.55 2306.19 1479.01 Q2308.02 1475.44 2308.02 1468.33 Q2308.02 1461.2 2306.19 1457.66 Q2304.38 1454.1 2300.75 1454.1 M2300.75 1450.39 Q2306.56 1450.39 2309.61 1455 Q2312.69 1459.58 2312.69 1468.33 Q2312.69 1477.06 2309.61 1481.67 Q2306.56 1486.25 2300.75 1486.25 Q2294.94 1486.25 2291.86 1481.67 Q2288.8 1477.06 2288.8 1468.33 Q2288.8 1459.58 2291.86 1455 Q2294.94 1450.39 2300.75 1450.39 Z" fill="#000000" fill-rule="nonzero" fill-opacity="1"></path><path clip-path="url(#clip410)" d="M2330.91 1454.1 Q2327.3 1454.1 2325.47 1457.66 Q2323.67 1461.2 2323.67 1468.33 Q2323.67 1475.44 2325.47 1479.01 Q2327.3 1482.55 2330.91 1482.55 Q2334.55 1482.55 2336.35 1479.01 Q2338.18 1475.44 2338.18 1468.33 Q2338.18 1461.2 2336.35 1457.66 Q2334.55 1454.1 2330.91 1454.1 M2330.91 1450.39 Q2336.72 1450.39 2339.78 1455 Q2342.86 1459.58 2342.86 1468.33 Q2342.86 1477.06 2339.78 1481.67 Q2336.72 1486.25 2330.91 1486.25 Q2325.1 1486.25 2322.02 1481.67 Q2318.97 1477.06 2318.97 1468.33 Q2318.97 1459.58 2322.02 1455 Q2325.1 1450.39 2330.91 1450.39 Z" fill="#000000" fill-rule="nonzero" fill-opacity="1"></path><path clip-path="url(#clip410)" d="M1307.93 1532.4 L1295.04 1549.74 L1308.6 1568.04 L1301.69 1568.04 L1291.32 1554.04 L1280.94 1568.04 L1274.03 1568.04 L1287.88 1549.39 L1275.21 1532.4 L1282.12 1532.4 L1291.57 1545.1 L1301.02 1532.4 L1307.93 1532.4 Z" fill="#000000" fill-rule="nonzero" fill-opacity="1"></path><path clip-path="url(#clip410)" d="M1327.28 1520.52 L1332.69 1520.52 L1316.14 1574.09 L1310.73 1574.09 L1327.28 1520.52 Z" fill="#000000" fill-rule="nonzero" fill-opacity="1"></path><path clip-path="url(#clip410)" d="M1364.49 1533.76 L1364.49 1539.24 Q1362.01 1537.87 1359.49 1537.2 Q1357.01 1536.5 1354.46 1536.5 Q1348.77 1536.5 1345.62 1540.13 Q1342.47 1543.73 1342.47 1550.25 Q1342.47 1556.78 1345.62 1560.4 Q1348.77 1564 1354.46 1564 Q1357.01 1564 1359.49 1563.33 Q1362.01 1562.63 1364.49 1561.26 L1364.49 1566.68 Q1362.04 1567.82 1359.4 1568.39 Q1356.79 1568.97 1353.83 1568.97 Q1345.78 1568.97 1341.03 1563.91 Q1336.29 1558.85 1336.29 1550.25 Q1336.29 1541.53 1341.06 1536.53 Q1345.87 1531.54 1354.21 1531.54 Q1356.92 1531.54 1359.49 1532.11 Q1362.07 1532.65 1364.49 1533.76 Z" fill="#000000" fill-rule="nonzero" fill-opacity="1"></path><polyline clip-path="url(#clip412)" style="stroke:#000000; stroke-linecap:round; stroke-linejoin:round; stroke-width:2; stroke-opacity:0.1; fill:none" points="285.769,1422.77 2352.76,1422.77 "></polyline>
<polyline clip-path="url(#clip412)" style="stroke:#000000; stroke-linecap:round; stroke-linejoin:round; stroke-width:2; stroke-opacity:0.1; fill:none" points="285.769,1227.77 2352.76,1227.77 "></polyline>
<polyline clip-path="url(#clip412)" style="stroke:#000000; stroke-linecap:round; stroke-linejoin:round; stroke-width:2; stroke-opacity:0.1; fill:none" points="285.769,1032.78 2352.76,1032.78 "></polyline>
<polyline clip-path="url(#clip412)" style="stroke:#000000; stroke-linecap:round; stroke-linejoin:round; stroke-width:2; stroke-opacity:0.1; fill:none" points="285.769,837.776 2352.76,837.776 "></polyline>
<polyline clip-path="url(#clip412)" style="stroke:#000000; stroke-linecap:round; stroke-linejoin:round; stroke-width:2; stroke-opacity:0.1; fill:none" points="285.769,642.778 2352.76,642.778 "></polyline>
<polyline clip-path="url(#clip412)" style="stroke:#000000; stroke-linecap:round; stroke-linejoin:round; stroke-width:2; stroke-opacity:0.1; fill:none" points="285.769,447.779 2352.76,447.779 "></polyline>
<polyline clip-path="url(#clip412)" style="stroke:#000000; stroke-linecap:round; stroke-linejoin:round; stroke-width:2; stroke-opacity:0.1; fill:none" points="285.769,252.78 2352.76,252.78 "></polyline>
<polyline clip-path="url(#clip410)" style="stroke:#000000; stroke-linecap:round; stroke-linejoin:round; stroke-width:4; stroke-opacity:1; fill:none" points="285.769,1423.18 285.769,123.472 "></polyline>
<polyline clip-path="url(#clip410)" style="stroke:#000000; stroke-linecap:round; stroke-linejoin:round; stroke-width:4; stroke-opacity:1; fill:none" points="285.769,1422.77 304.666,1422.77 "></polyline>
<polyline clip-path="url(#clip410)" style="stroke:#000000; stroke-linecap:round; stroke-linejoin:round; stroke-width:4; stroke-opacity:1; fill:none" points="285.769,1227.77 304.666,1227.77 "></polyline>
<polyline clip-path="url(#clip410)" style="stroke:#000000; stroke-linecap:round; stroke-linejoin:round; stroke-width:4; stroke-opacity:1; fill:none" points="285.769,1032.78 304.666,1032.78 "></polyline>
<polyline clip-path="url(#clip410)" style="stroke:#000000; stroke-linecap:round; stroke-linejoin:round; stroke-width:4; stroke-opacity:1; fill:none" points="285.769,837.776 304.666,837.776 "></polyline>
<polyline clip-path="url(#clip410)" style="stroke:#000000; stroke-linecap:round; stroke-linejoin:round; stroke-width:4; stroke-opacity:1; fill:none" points="285.769,642.778 304.666,642.778 "></polyline>
<polyline clip-path="url(#clip410)" style="stroke:#000000; stroke-linecap:round; stroke-linejoin:round; stroke-width:4; stroke-opacity:1; fill:none" points="285.769,447.779 304.666,447.779 "></polyline>
<polyline clip-path="url(#clip410)" style="stroke:#000000; stroke-linecap:round; stroke-linejoin:round; stroke-width:4; stroke-opacity:1; fill:none" points="285.769,252.78 304.666,252.78 "></polyline>
<path clip-path="url(#clip410)" d="M143.473 1423.22 L173.149 1423.22 L173.149 1427.16 L143.473 1427.16 L143.473 1423.22 Z" fill="#000000" fill-rule="nonzero" fill-opacity="1"></path><path clip-path="url(#clip410)" d="M193.241 1408.57 Q189.63 1408.57 187.801 1412.14 Q185.996 1415.68 185.996 1422.81 Q185.996 1429.91 187.801 1433.48 Q189.63 1437.02 193.241 1437.02 Q196.875 1437.02 198.681 1433.48 Q200.51 1429.91 200.51 1422.81 Q200.51 1415.68 198.681 1412.14 Q196.875 1408.57 193.241 1408.57 M193.241 1404.87 Q199.051 1404.87 202.107 1409.47 Q205.186 1414.06 205.186 1422.81 Q205.186 1431.53 202.107 1436.14 Q199.051 1440.72 193.241 1440.72 Q187.431 1440.72 184.352 1436.14 Q181.297 1431.53 181.297 1422.81 Q181.297 1414.06 184.352 1409.47 Q187.431 1404.87 193.241 1404.87 Z" fill="#000000" fill-rule="nonzero" fill-opacity="1"></path><path clip-path="url(#clip410)" d="M213.403 1434.17 L218.287 1434.17 L218.287 1440.05 L213.403 1440.05 L213.403 1434.17 Z" fill="#000000" fill-rule="nonzero" fill-opacity="1"></path><path clip-path="url(#clip410)" d="M242.639 1421.42 Q245.996 1422.14 247.871 1424.4 Q249.769 1426.67 249.769 1430.01 Q249.769 1435.12 246.25 1437.92 Q242.732 1440.72 236.25 1440.72 Q234.074 1440.72 231.76 1440.28 Q229.468 1439.87 227.014 1439.01 L227.014 1434.5 Q228.959 1435.63 231.273 1436.21 Q233.588 1436.79 236.111 1436.79 Q240.509 1436.79 242.801 1435.05 Q245.116 1433.32 245.116 1430.01 Q245.116 1426.95 242.963 1425.24 Q240.834 1423.5 237.014 1423.5 L232.986 1423.5 L232.986 1419.66 L237.199 1419.66 Q240.648 1419.66 242.477 1418.29 Q244.306 1416.9 244.306 1414.31 Q244.306 1411.65 242.408 1410.24 Q240.533 1408.8 237.014 1408.8 Q235.093 1408.8 232.894 1409.22 Q230.695 1409.64 228.056 1410.52 L228.056 1406.35 Q230.718 1405.61 233.033 1405.24 Q235.371 1404.87 237.431 1404.87 Q242.755 1404.87 245.857 1407.3 Q248.959 1409.71 248.959 1413.83 Q248.959 1416.7 247.315 1418.69 Q245.671 1420.65 242.639 1421.42 Z" fill="#000000" fill-rule="nonzero" fill-opacity="1"></path><path clip-path="url(#clip410)" d="M144.422 1228.23 L174.098 1228.23 L174.098 1232.16 L144.422 1232.16 L144.422 1228.23 Z" fill="#000000" fill-rule="nonzero" fill-opacity="1"></path><path clip-path="url(#clip410)" d="M194.19 1213.57 Q190.579 1213.57 188.75 1217.14 Q186.945 1220.68 186.945 1227.81 Q186.945 1234.92 188.75 1238.48 Q190.579 1242.02 194.19 1242.02 Q197.825 1242.02 199.63 1238.48 Q201.459 1234.92 201.459 1227.81 Q201.459 1220.68 199.63 1217.14 Q197.825 1213.57 194.19 1213.57 M194.19 1209.87 Q200 1209.87 203.056 1214.48 Q206.135 1219.06 206.135 1227.81 Q206.135 1236.54 203.056 1241.14 Q200 1245.73 194.19 1245.73 Q188.38 1245.73 185.301 1241.14 Q182.246 1236.54 182.246 1227.81 Q182.246 1219.06 185.301 1214.48 Q188.38 1209.87 194.19 1209.87 Z" fill="#000000" fill-rule="nonzero" fill-opacity="1"></path><path clip-path="url(#clip410)" d="M214.352 1239.17 L219.236 1239.17 L219.236 1245.05 L214.352 1245.05 L214.352 1239.17 Z" fill="#000000" fill-rule="nonzero" fill-opacity="1"></path><path clip-path="url(#clip410)" d="M233.449 1241.12 L249.769 1241.12 L249.769 1245.05 L227.824 1245.05 L227.824 1241.12 Q230.486 1238.36 235.07 1233.73 Q239.676 1229.08 240.857 1227.74 Q243.102 1225.22 243.982 1223.48 Q244.884 1221.72 244.884 1220.03 Q244.884 1217.28 242.94 1215.54 Q241.019 1213.8 237.917 1213.8 Q235.718 1213.8 233.264 1214.57 Q230.834 1215.33 228.056 1216.88 L228.056 1212.16 Q230.88 1211.03 233.334 1210.45 Q235.787 1209.87 237.824 1209.87 Q243.195 1209.87 246.389 1212.55 Q249.584 1215.24 249.584 1219.73 Q249.584 1221.86 248.773 1223.78 Q247.986 1225.68 245.88 1228.27 Q245.301 1228.94 242.199 1232.16 Q239.097 1235.36 233.449 1241.12 Z" fill="#000000" fill-rule="nonzero" fill-opacity="1"></path><path clip-path="url(#clip410)" d="M144.052 1033.23 L173.727 1033.23 L173.727 1037.16 L144.052 1037.16 L144.052 1033.23 Z" fill="#000000" fill-rule="nonzero" fill-opacity="1"></path><path clip-path="url(#clip410)" d="M193.82 1018.57 Q190.209 1018.57 188.38 1022.14 Q186.575 1025.68 186.575 1032.81 Q186.575 1039.92 188.38 1043.48 Q190.209 1047.02 193.82 1047.02 Q197.454 1047.02 199.26 1043.48 Q201.088 1039.92 201.088 1032.81 Q201.088 1025.68 199.26 1022.14 Q197.454 1018.57 193.82 1018.57 M193.82 1014.87 Q199.63 1014.87 202.686 1019.48 Q205.764 1024.06 205.764 1032.81 Q205.764 1041.54 202.686 1046.14 Q199.63 1050.73 193.82 1050.73 Q188.01 1050.73 184.931 1046.14 Q181.876 1041.54 181.876 1032.81 Q181.876 1024.06 184.931 1019.48 Q188.01 1014.87 193.82 1014.87 Z" fill="#000000" fill-rule="nonzero" fill-opacity="1"></path><path clip-path="url(#clip410)" d="M213.982 1044.18 L218.866 1044.18 L218.866 1050.06 L213.982 1050.06 L213.982 1044.18 Z" fill="#000000" fill-rule="nonzero" fill-opacity="1"></path><path clip-path="url(#clip410)" d="M229.861 1046.12 L237.5 1046.12 L237.5 1019.75 L229.19 1021.42 L229.19 1017.16 L237.454 1015.5 L242.13 1015.5 L242.13 1046.12 L249.769 1046.12 L249.769 1050.06 L229.861 1050.06 L229.861 1046.12 Z" fill="#000000" fill-rule="nonzero" fill-opacity="1"></path><path clip-path="url(#clip410)" d="M192.593 823.575 Q188.982 823.575 187.153 827.14 Q185.348 830.682 185.348 837.811 Q185.348 844.918 187.153 848.482 Q188.982 852.024 192.593 852.024 Q196.227 852.024 198.033 848.482 Q199.862 844.918 199.862 837.811 Q199.862 830.682 198.033 827.14 Q196.227 823.575 192.593 823.575 M192.593 819.871 Q198.403 819.871 201.459 824.478 Q204.537 829.061 204.537 837.811 Q204.537 846.538 201.459 851.144 Q198.403 855.728 192.593 855.728 Q186.783 855.728 183.704 851.144 Q180.649 846.538 180.649 837.811 Q180.649 829.061 183.704 824.478 Q186.783 819.871 192.593 819.871 Z" fill="#000000" fill-rule="nonzero" fill-opacity="1"></path><path clip-path="url(#clip410)" d="M212.755 849.177 L217.639 849.177 L217.639 855.056 L212.755 855.056 L212.755 849.177 Z" fill="#000000" fill-rule="nonzero" fill-opacity="1"></path><path clip-path="url(#clip410)" d="M237.824 823.575 Q234.213 823.575 232.385 827.14 Q230.579 830.682 230.579 837.811 Q230.579 844.918 232.385 848.482 Q234.213 852.024 237.824 852.024 Q241.459 852.024 243.264 848.482 Q245.093 844.918 245.093 837.811 Q245.093 830.682 243.264 827.14 Q241.459 823.575 237.824 823.575 M237.824 819.871 Q243.634 819.871 246.69 824.478 Q249.769 829.061 249.769 837.811 Q249.769 846.538 246.69 851.144 Q243.634 855.728 237.824 855.728 Q232.014 855.728 228.935 851.144 Q225.88 846.538 225.88 837.811 Q225.88 829.061 228.935 824.478 Q232.014 819.871 237.824 819.871 Z" fill="#000000" fill-rule="nonzero" fill-opacity="1"></path><path clip-path="url(#clip410)" d="M193.82 628.576 Q190.209 628.576 188.38 632.141 Q186.575 635.683 186.575 642.812 Q186.575 649.919 188.38 653.484 Q190.209 657.025 193.82 657.025 Q197.454 657.025 199.26 653.484 Q201.088 649.919 201.088 642.812 Q201.088 635.683 199.26 632.141 Q197.454 628.576 193.82 628.576 M193.82 624.873 Q199.63 624.873 202.686 629.479 Q205.764 634.062 205.764 642.812 Q205.764 651.539 202.686 656.146 Q199.63 660.729 193.82 660.729 Q188.01 660.729 184.931 656.146 Q181.876 651.539 181.876 642.812 Q181.876 634.062 184.931 629.479 Q188.01 624.873 193.82 624.873 Z" fill="#000000" fill-rule="nonzero" fill-opacity="1"></path><path clip-path="url(#clip410)" d="M213.982 654.178 L218.866 654.178 L218.866 660.058 L213.982 660.058 L213.982 654.178 Z" fill="#000000" fill-rule="nonzero" fill-opacity="1"></path><path clip-path="url(#clip410)" d="M229.861 656.122 L237.5 656.122 L237.5 629.757 L229.19 631.424 L229.19 627.164 L237.454 625.498 L242.13 625.498 L242.13 656.122 L249.769 656.122 L249.769 660.058 L229.861 660.058 L229.861 656.122 Z" fill="#000000" fill-rule="nonzero" fill-opacity="1"></path><path clip-path="url(#clip410)" d="M194.19 433.578 Q190.579 433.578 188.75 437.142 Q186.945 440.684 186.945 447.814 Q186.945 454.92 188.75 458.485 Q190.579 462.026 194.19 462.026 Q197.825 462.026 199.63 458.485 Q201.459 454.92 201.459 447.814 Q201.459 440.684 199.63 437.142 Q197.825 433.578 194.19 433.578 M194.19 429.874 Q200 429.874 203.056 434.48 Q206.135 439.064 206.135 447.814 Q206.135 456.54 203.056 461.147 Q200 465.73 194.19 465.73 Q188.38 465.73 185.301 461.147 Q182.246 456.54 182.246 447.814 Q182.246 439.064 185.301 434.48 Q188.38 429.874 194.19 429.874 Z" fill="#000000" fill-rule="nonzero" fill-opacity="1"></path><path clip-path="url(#clip410)" d="M214.352 459.179 L219.236 459.179 L219.236 465.059 L214.352 465.059 L214.352 459.179 Z" fill="#000000" fill-rule="nonzero" fill-opacity="1"></path><path clip-path="url(#clip410)" d="M233.449 461.124 L249.769 461.124 L249.769 465.059 L227.824 465.059 L227.824 461.124 Q230.486 458.369 235.07 453.739 Q239.676 449.087 240.857 447.744 Q243.102 445.221 243.982 443.485 Q244.884 441.726 244.884 440.036 Q244.884 437.281 242.94 435.545 Q241.019 433.809 237.917 433.809 Q235.718 433.809 233.264 434.573 Q230.834 435.337 228.056 436.888 L228.056 432.166 Q230.88 431.031 233.334 430.453 Q235.787 429.874 237.824 429.874 Q243.195 429.874 246.389 432.559 Q249.584 435.244 249.584 439.735 Q249.584 441.865 248.773 443.786 Q247.986 445.684 245.88 448.277 Q245.301 448.948 242.199 452.165 Q239.097 455.36 233.449 461.124 Z" fill="#000000" fill-rule="nonzero" fill-opacity="1"></path><path clip-path="url(#clip410)" d="M193.241 238.579 Q189.63 238.579 187.801 242.144 Q185.996 245.685 185.996 252.815 Q185.996 259.921 187.801 263.486 Q189.63 267.028 193.241 267.028 Q196.875 267.028 198.681 263.486 Q200.51 259.921 200.51 252.815 Q200.51 245.685 198.681 242.144 Q196.875 238.579 193.241 238.579 M193.241 234.875 Q199.051 234.875 202.107 239.482 Q205.186 244.065 205.186 252.815 Q205.186 261.542 202.107 266.148 Q199.051 270.731 193.241 270.731 Q187.431 270.731 184.352 266.148 Q181.297 261.542 181.297 252.815 Q181.297 244.065 184.352 239.482 Q187.431 234.875 193.241 234.875 Z" fill="#000000" fill-rule="nonzero" fill-opacity="1"></path><path clip-path="url(#clip410)" d="M213.403 264.18 L218.287 264.18 L218.287 270.06 L213.403 270.06 L213.403 264.18 Z" fill="#000000" fill-rule="nonzero" fill-opacity="1"></path><path clip-path="url(#clip410)" d="M242.639 251.426 Q245.996 252.143 247.871 254.412 Q249.769 256.681 249.769 260.014 Q249.769 265.13 246.25 267.93 Q242.732 270.731 236.25 270.731 Q234.074 270.731 231.76 270.292 Q229.468 269.875 227.014 269.018 L227.014 264.505 Q228.959 265.639 231.273 266.217 Q233.588 266.796 236.111 266.796 Q240.509 266.796 242.801 265.06 Q245.116 263.324 245.116 260.014 Q245.116 256.958 242.963 255.245 Q240.834 253.509 237.014 253.509 L232.986 253.509 L232.986 249.667 L237.199 249.667 Q240.648 249.667 242.477 248.301 Q244.306 246.912 244.306 244.319 Q244.306 241.657 242.408 240.245 Q240.533 238.81 237.014 238.81 Q235.093 238.81 232.894 239.227 Q230.695 239.644 228.056 240.523 L228.056 236.357 Q230.718 235.616 233.033 235.245 Q235.371 234.875 237.431 234.875 Q242.755 234.875 245.857 237.306 Q248.959 239.713 248.959 243.833 Q248.959 246.704 247.315 248.694 Q245.671 250.662 242.639 251.426 Z" fill="#000000" fill-rule="nonzero" fill-opacity="1"></path><path clip-path="url(#clip410)" d="M96.5271 799.489 Q102.893 801.972 104.834 804.327 Q106.776 806.682 106.776 810.629 L106.776 815.308 L101.874 815.308 L101.874 811.87 Q101.874 809.451 100.728 808.115 Q99.5827 806.778 95.3176 805.155 L92.6441 804.104 L57.569 818.523 L57.569 812.316 L85.4508 801.176 L57.569 790.036 L57.569 783.829 L96.5271 799.489 Z" fill="#000000" fill-rule="nonzero" fill-opacity="1"></path><path clip-path="url(#clip410)" d="M45.697 765.337 L45.697 759.926 L99.2644 776.477 L99.2644 781.888 L45.697 765.337 Z" fill="#000000" fill-rule="nonzero" fill-opacity="1"></path><path clip-path="url(#clip410)" d="M58.9376 728.129 L64.4121 728.129 Q63.0435 730.612 62.3751 733.127 Q61.6749 735.609 61.6749 738.155 Q61.6749 743.853 65.3033 747.004 Q68.9 750.155 75.4248 750.155 Q81.9497 750.155 85.5781 747.004 Q89.1747 743.853 89.1747 738.155 Q89.1747 735.609 88.5063 733.127 Q87.8061 730.612 86.4375 728.129 L91.8483 728.129 Q92.9942 730.58 93.5671 733.222 Q94.14 735.832 94.14 738.792 Q94.14 746.845 89.0793 751.587 Q84.0185 756.33 75.4248 756.33 Q66.7038 756.33 61.7067 751.555 Q56.7096 746.749 56.7096 738.41 Q56.7096 735.705 57.2825 733.127 Q57.8236 730.548 58.9376 728.129 Z" fill="#000000" fill-rule="nonzero" fill-opacity="1"></path><path clip-path="url(#clip410)" d="M975.442 20.1573 L964.342 50.2555 L986.582 50.2555 L975.442 20.1573 M970.824 12.096 L980.1 12.096 L1003.15 72.576 L994.643 72.576 L989.134 57.061 L961.871 57.061 L956.362 72.576 L947.734 72.576 L970.824 12.096 Z" fill="#000000" fill-rule="nonzero" fill-opacity="1"></path><path clip-path="url(#clip410)" d="M1011.66 27.2059 L1019.11 27.2059 L1019.11 72.576 L1011.66 72.576 L1011.66 27.2059 M1011.66 9.54393 L1019.11 9.54393 L1019.11 18.9825 L1011.66 18.9825 L1011.66 9.54393 Z" fill="#000000" fill-rule="nonzero" fill-opacity="1"></path><path clip-path="url(#clip410)" d="M1061 34.1734 Q1059.74 33.4443 1058.24 33.1202 Q1056.78 32.7556 1055 32.7556 Q1048.68 32.7556 1045.28 36.8875 Q1041.92 40.9789 1041.92 48.6757 L1041.92 72.576 L1034.42 72.576 L1034.42 27.2059 L1041.92 27.2059 L1041.92 34.2544 Q1044.27 30.1225 1048.03 28.1376 Q1051.8 26.1121 1057.19 26.1121 Q1057.96 26.1121 1058.89 26.2337 Q1059.82 26.3147 1060.96 26.5172 L1061 34.1734 Z" fill="#000000" fill-rule="nonzero" fill-opacity="1"></path><path clip-path="url(#clip410)" d="M1091.78 9.54393 L1091.78 15.7418 L1084.65 15.7418 Q1080.64 15.7418 1079.06 17.3622 Q1077.52 18.9825 1077.52 23.1955 L1077.52 27.2059 L1089.8 27.2059 L1089.8 32.9987 L1077.52 32.9987 L1077.52 72.576 L1070.03 72.576 L1070.03 32.9987 L1062.9 32.9987 L1062.9 27.2059 L1070.03 27.2059 L1070.03 24.0462 Q1070.03 16.471 1073.55 13.0277 Q1077.08 9.54393 1084.74 9.54393 L1091.78 9.54393 Z" fill="#000000" fill-rule="nonzero" fill-opacity="1"></path><path clip-path="url(#clip410)" d="M1115.6 32.4315 Q1109.61 32.4315 1106.12 37.1306 Q1102.64 41.7891 1102.64 49.9314 Q1102.64 58.0738 1106.08 62.7728 Q1109.57 67.4314 1115.6 67.4314 Q1121.56 67.4314 1125.04 62.7323 Q1128.53 58.0333 1128.53 49.9314 Q1128.53 41.8701 1125.04 37.1711 Q1121.56 32.4315 1115.6 32.4315 M1115.6 26.1121 Q1125.33 26.1121 1130.87 32.4315 Q1136.42 38.7509 1136.42 49.9314 Q1136.42 61.0714 1130.87 67.4314 Q1125.33 73.7508 1115.6 73.7508 Q1105.84 73.7508 1100.29 67.4314 Q1094.78 61.0714 1094.78 49.9314 Q1094.78 38.7509 1100.29 32.4315 Q1105.84 26.1121 1115.6 26.1121 Z" fill="#000000" fill-rule="nonzero" fill-opacity="1"></path><path clip-path="url(#clip410)" d="M1148.78 27.2059 L1156.23 27.2059 L1156.23 72.576 L1148.78 72.576 L1148.78 27.2059 M1148.78 9.54393 L1156.23 9.54393 L1156.23 18.9825 L1148.78 18.9825 L1148.78 9.54393 Z" fill="#000000" fill-rule="nonzero" fill-opacity="1"></path><path clip-path="url(#clip410)" d="M1171.83 9.54393 L1179.28 9.54393 L1179.28 72.576 L1171.83 72.576 L1171.83 9.54393 Z" fill="#000000" fill-rule="nonzero" fill-opacity="1"></path><path clip-path="url(#clip410)" d="M1253.9 28.9478 L1253.9 35.9153 Q1250.74 34.1734 1247.54 33.3227 Q1244.38 32.4315 1241.14 32.4315 Q1233.89 32.4315 1229.88 37.0496 Q1225.87 41.6271 1225.87 49.9314 Q1225.87 58.2358 1229.88 62.8538 Q1233.89 67.4314 1241.14 67.4314 Q1244.38 67.4314 1247.54 66.5807 Q1250.74 65.6895 1253.9 63.9476 L1253.9 70.8341 Q1250.78 72.2924 1247.42 73.0216 Q1244.1 73.7508 1240.33 73.7508 Q1230.08 73.7508 1224.05 67.3098 Q1218.01 60.8689 1218.01 49.9314 Q1218.01 38.832 1224.09 32.472 Q1230.2 26.1121 1240.82 26.1121 Q1244.26 26.1121 1247.54 26.8413 Q1250.82 27.5299 1253.9 28.9478 Z" fill="#000000" fill-rule="nonzero" fill-opacity="1"></path><path clip-path="url(#clip410)" d="M1284.44 32.4315 Q1278.45 32.4315 1274.97 37.1306 Q1271.48 41.7891 1271.48 49.9314 Q1271.48 58.0738 1274.93 62.7728 Q1278.41 67.4314 1284.44 67.4314 Q1290.4 67.4314 1293.88 62.7323 Q1297.37 58.0333 1297.37 49.9314 Q1297.37 41.8701 1293.88 37.1711 Q1290.4 32.4315 1284.44 32.4315 M1284.44 26.1121 Q1294.17 26.1121 1299.72 32.4315 Q1305.27 38.7509 1305.27 49.9314 Q1305.27 61.0714 1299.72 67.4314 Q1294.17 73.7508 1284.44 73.7508 Q1274.68 73.7508 1269.13 67.4314 Q1263.62 61.0714 1263.62 49.9314 Q1263.62 38.7509 1269.13 32.4315 Q1274.68 26.1121 1284.44 26.1121 Z" fill="#000000" fill-rule="nonzero" fill-opacity="1"></path><path clip-path="url(#clip410)" d="M1352.95 35.9153 Q1355.74 30.8922 1359.63 28.5022 Q1363.52 26.1121 1368.78 26.1121 Q1375.87 26.1121 1379.72 31.0947 Q1383.57 36.0368 1383.57 45.1919 L1383.57 72.576 L1376.08 72.576 L1376.08 45.4349 Q1376.08 38.913 1373.77 35.7533 Q1371.46 32.5936 1366.72 32.5936 Q1360.93 32.5936 1357.56 36.4419 Q1354.2 40.2903 1354.2 46.9338 L1354.2 72.576 L1346.71 72.576 L1346.71 45.4349 Q1346.71 38.8725 1344.4 35.7533 Q1342.09 32.5936 1337.27 32.5936 Q1331.56 32.5936 1328.19 36.4824 Q1324.83 40.3308 1324.83 46.9338 L1324.83 72.576 L1317.34 72.576 L1317.34 27.2059 L1324.83 27.2059 L1324.83 34.2544 Q1327.38 30.082 1330.95 28.0971 Q1334.51 26.1121 1339.42 26.1121 Q1344.36 26.1121 1347.8 28.6237 Q1351.28 31.1352 1352.95 35.9153 Z" fill="#000000" fill-rule="nonzero" fill-opacity="1"></path><path clip-path="url(#clip410)" d="M1405.65 65.7705 L1405.65 89.8329 L1398.15 89.8329 L1398.15 27.2059 L1405.65 27.2059 L1405.65 34.0924 Q1408 30.0415 1411.56 28.0971 Q1415.17 26.1121 1420.15 26.1121 Q1428.41 26.1121 1433.56 32.6746 Q1438.74 39.2371 1438.74 49.9314 Q1438.74 60.6258 1433.56 67.1883 Q1428.41 73.7508 1420.15 73.7508 Q1415.17 73.7508 1411.56 71.8063 Q1408 69.8214 1405.65 65.7705 M1431.01 49.9314 Q1431.01 41.7081 1427.6 37.0496 Q1424.24 32.3505 1418.33 32.3505 Q1412.41 32.3505 1409.01 37.0496 Q1405.65 41.7081 1405.65 49.9314 Q1405.65 58.1548 1409.01 62.8538 Q1412.41 67.5124 1418.33 67.5124 Q1424.24 67.5124 1427.6 62.8538 Q1431.01 58.1548 1431.01 49.9314 Z" fill="#000000" fill-rule="nonzero" fill-opacity="1"></path><path clip-path="url(#clip410)" d="M1471.72 49.7694 Q1462.68 49.7694 1459.2 51.8354 Q1455.72 53.9013 1455.72 58.8839 Q1455.72 62.8538 1458.31 65.2034 Q1460.94 67.5124 1465.44 67.5124 Q1471.64 67.5124 1475.36 63.1374 Q1479.13 58.7219 1479.13 51.4303 L1479.13 49.7694 L1471.72 49.7694 M1486.58 46.6907 L1486.58 72.576 L1479.13 72.576 L1479.13 65.6895 Q1476.58 69.8214 1472.77 71.8063 Q1468.96 73.7508 1463.45 73.7508 Q1456.49 73.7508 1452.35 69.8619 Q1448.26 65.9325 1448.26 59.3701 Q1448.26 51.7138 1453.37 47.825 Q1458.51 43.9361 1468.68 43.9361 L1479.13 43.9361 L1479.13 43.2069 Q1479.13 38.0623 1475.73 35.2672 Q1472.37 32.4315 1466.25 32.4315 Q1462.36 32.4315 1458.67 33.3632 Q1454.99 34.295 1451.59 36.1584 L1451.59 29.2718 Q1455.68 27.692 1459.52 26.9223 Q1463.37 26.1121 1467.02 26.1121 Q1476.86 26.1121 1481.72 31.2163 Q1486.58 36.3204 1486.58 46.6907 Z" fill="#000000" fill-rule="nonzero" fill-opacity="1"></path><path clip-path="url(#clip410)" d="M1528.23 34.1734 Q1526.97 33.4443 1525.47 33.1202 Q1524.02 32.7556 1522.23 32.7556 Q1515.91 32.7556 1512.51 36.8875 Q1509.15 40.9789 1509.15 48.6757 L1509.15 72.576 L1501.65 72.576 L1501.65 27.2059 L1509.15 27.2059 L1509.15 34.2544 Q1511.5 30.1225 1515.27 28.1376 Q1519.03 26.1121 1524.42 26.1121 Q1525.19 26.1121 1526.12 26.2337 Q1527.05 26.3147 1528.19 26.5172 L1528.23 34.1734 Z" fill="#000000" fill-rule="nonzero" fill-opacity="1"></path><path clip-path="url(#clip410)" d="M1536.05 27.2059 L1543.5 27.2059 L1543.5 72.576 L1536.05 72.576 L1536.05 27.2059 M1536.05 9.54393 L1543.5 9.54393 L1543.5 18.9825 L1536.05 18.9825 L1536.05 9.54393 Z" fill="#000000" fill-rule="nonzero" fill-opacity="1"></path><path clip-path="url(#clip410)" d="M1588.02 28.5427 L1588.02 35.5912 Q1584.86 33.9709 1581.46 33.1607 Q1578.05 32.3505 1574.41 32.3505 Q1568.86 32.3505 1566.06 34.0519 Q1563.31 35.7533 1563.31 39.156 Q1563.31 41.7486 1565.29 43.2475 Q1567.28 44.7058 1573.27 46.0426 L1575.83 46.6097 Q1583.77 48.3111 1587.09 51.4303 Q1590.45 54.509 1590.45 60.0587 Q1590.45 66.3781 1585.43 70.0644 Q1580.44 73.7508 1571.69 73.7508 Q1568.05 73.7508 1564.08 73.0216 Q1560.15 72.3329 1555.77 70.9151 L1555.77 63.2184 Q1559.91 65.3654 1563.92 66.4591 Q1567.93 67.5124 1571.86 67.5124 Q1577.12 67.5124 1579.96 65.73 Q1582.79 63.9071 1582.79 60.6258 Q1582.79 57.5877 1580.73 55.9673 Q1578.7 54.3469 1571.78 52.8481 L1569.18 52.2405 Q1562.26 50.7821 1559.18 47.7845 Q1556.1 44.7463 1556.1 39.4801 Q1556.1 33.0797 1560.64 29.5959 Q1565.17 26.1121 1573.52 26.1121 Q1577.65 26.1121 1581.3 26.7198 Q1584.94 27.3274 1588.02 28.5427 Z" fill="#000000" fill-rule="nonzero" fill-opacity="1"></path><path clip-path="url(#clip410)" d="M1619.9 32.4315 Q1613.9 32.4315 1610.42 37.1306 Q1606.94 41.7891 1606.94 49.9314 Q1606.94 58.0738 1610.38 62.7728 Q1613.86 67.4314 1619.9 67.4314 Q1625.85 67.4314 1629.34 62.7323 Q1632.82 58.0333 1632.82 49.9314 Q1632.82 41.8701 1629.34 37.1711 Q1625.85 32.4315 1619.9 32.4315 M1619.9 26.1121 Q1629.62 26.1121 1635.17 32.4315 Q1640.72 38.7509 1640.72 49.9314 Q1640.72 61.0714 1635.17 67.4314 Q1629.62 73.7508 1619.9 73.7508 Q1610.14 73.7508 1604.59 67.4314 Q1599.08 61.0714 1599.08 49.9314 Q1599.08 38.7509 1604.59 32.4315 Q1610.14 26.1121 1619.9 26.1121 Z" fill="#000000" fill-rule="nonzero" fill-opacity="1"></path><path clip-path="url(#clip410)" d="M1690.79 45.1919 L1690.79 72.576 L1683.34 72.576 L1683.34 45.4349 Q1683.34 38.994 1680.83 35.7938 Q1678.31 32.5936 1673.29 32.5936 Q1667.26 32.5936 1663.77 36.4419 Q1660.29 40.2903 1660.29 46.9338 L1660.29 72.576 L1652.79 72.576 L1652.79 27.2059 L1660.29 27.2059 L1660.29 34.2544 Q1662.96 30.163 1666.57 28.1376 Q1670.21 26.1121 1674.95 26.1121 Q1682.77 26.1121 1686.78 30.9732 Q1690.79 35.7938 1690.79 45.1919 Z" fill="#000000" fill-rule="nonzero" fill-opacity="1"></path><polyline clip-path="url(#clip412)" style="stroke:#009af9; stroke-linecap:round; stroke-linejoin:round; stroke-width:4; stroke-opacity:1; fill:none" points="2294.26,837.776 2286.07,835.47 2261.65,828.673 2221.34,817.748 2165.77,803.262 2095.79,785.944 2012.49,766.634 1917.2,746.231 1811.48,725.653 1697.06,705.802 1575.87,687.538 1449.98,671.66 1321.55,658.89 1192.85,649.84 1065.22,645.23 940.811,646.989 823.101,655.226 714.402,669.347 616.819,688.429 532.191,711.297 462.035,736.62 407.519,763.043 369.458,789.324 348.324,814.456 344.268,837.776 356.079,857.066 382.659,872.153 423.401,883.141 477.501,890.234 543.991,893.752 621.781,894.136 709.682,891.956 806.437,887.901 910.72,882.747 1021.14,877.317 1136.41,872.406 1256.41,867.545 1377.59,862.445 1498.1,857.507 1616.07,853.022 1729.65,849.167 1837.04,846.008 1936.49,843.525 2026.38,841.641 2105.21,840.254 2171.65,839.26 2224.58,838.569 2263.06,838.116 2286.42,837.86 2294.26,837.776 "></polyline>
<polyline clip-path="url(#clip412)" style="stroke:#e26f46; stroke-linecap:round; stroke-linejoin:round; stroke-width:4; stroke-opacity:1; fill:none" points="2294.26,837.776 2285.92,834.992 2261.03,826.96 2220.04,814.568 2163.63,799.087 2092.78,781.728 2008.69,763.253 1912.8,744.245 1806.76,725.438 1692.38,707.648 1571.61,691.686 1446.52,678.284 1319.26,668.076 1192,661.62 1066.92,659.48 946.148,662.238 831.765,670.01 725.724,682.431 629.837,698.918 545.748,718.804 474.893,741.333 418.485,765.627 377.49,790.638 352.61,815.254 344.268,837.776 351.956,852.65 374.9,866.956 412.736,879.531 464.869,889.362 530.476,896.183 608.522,900.102 697.778,901.422 796.834,900.518 904.13,897.727 1017.97,893.418 1136.57,887.981 1258.04,881.804 1380.48,875.255 1501.96,868.673 1620.55,862.361 1734.39,856.586 1841.69,851.565 1940.75,847.455 2030,844.314 2108.05,842.076 2173.66,840.527 2225.79,839.445 2263.63,838.656 2286.57,838.074 2294.26,837.776 "></polyline>
<path clip-path="url(#clip410)" d="M1817.25 322.316 L2283.86 322.316 L2283.86 166.796 L1817.25 166.796  Z" fill="#ffffff" fill-rule="evenodd" fill-opacity="1"></path>
<polyline clip-path="url(#clip410)" style="stroke:#000000; stroke-linecap:round; stroke-linejoin:round; stroke-width:4; stroke-opacity:1; fill:none" points="1817.25,322.316 2283.86,322.316 2283.86,166.796 1817.25,166.796 1817.25,322.316 "></polyline>
<polyline clip-path="url(#clip410)" style="stroke:#009af9; stroke-linecap:round; stroke-linejoin:round; stroke-width:4; stroke-opacity:1; fill:none" points="1840.22,218.636 1978.02,218.636 "></polyline>
<path clip-path="url(#clip410)" d="M2000.98 201.356 L2007.28 201.356 L2022.6 230.268 L2022.6 201.356 L2027.14 201.356 L2027.14 235.916 L2020.84 235.916 L2005.52 207.004 L2005.52 235.916 L2000.98 235.916 L2000.98 201.356 Z" fill="#000000" fill-rule="nonzero" fill-opacity="1"></path><path clip-path="url(#clip410)" d="M2048 205.962 L2041.65 223.161 L2054.36 223.161 L2048 205.962 M2045.36 201.356 L2050.66 201.356 L2063.83 235.916 L2058.97 235.916 L2055.82 227.05 L2040.24 227.05 L2037.09 235.916 L2032.16 235.916 L2045.36 201.356 Z" fill="#000000" fill-rule="nonzero" fill-opacity="1"></path><path clip-path="url(#clip410)" d="M2093.92 204.018 L2093.92 208.948 Q2091.56 206.749 2088.88 205.661 Q2086.21 204.573 2083.21 204.573 Q2077.28 204.573 2074.13 208.208 Q2070.98 211.819 2070.98 218.67 Q2070.98 225.499 2074.13 229.133 Q2077.28 232.744 2083.21 232.744 Q2086.21 232.744 2088.88 231.656 Q2091.56 230.569 2093.92 228.369 L2093.92 233.254 Q2091.47 234.92 2088.71 235.754 Q2085.98 236.587 2082.93 236.587 Q2075.08 236.587 2070.57 231.795 Q2066.05 226.981 2066.05 218.67 Q2066.05 210.337 2070.57 205.546 Q2075.08 200.731 2082.93 200.731 Q2086.03 200.731 2088.76 201.564 Q2091.52 202.374 2093.92 204.018 Z" fill="#000000" fill-rule="nonzero" fill-opacity="1"></path><path clip-path="url(#clip410)" d="M2112.7 205.962 L2106.35 223.161 L2119.06 223.161 L2112.7 205.962 M2110.06 201.356 L2115.36 201.356 L2128.53 235.916 L2123.67 235.916 L2120.52 227.05 L2104.94 227.05 L2101.79 235.916 L2096.86 235.916 L2110.06 201.356 Z" fill="#000000" fill-rule="nonzero" fill-opacity="1"></path><path clip-path="url(#clip410)" d="M2130.2 221.032 L2142.67 221.032 L2142.67 224.828 L2130.2 224.828 L2130.2 221.032 Z" fill="#000000" fill-rule="nonzero" fill-opacity="1"></path><path clip-path="url(#clip410)" d="M2162.9 205.43 L2151.1 223.879 L2162.9 223.879 L2162.9 205.43 M2161.68 201.356 L2167.56 201.356 L2167.56 223.879 L2172.49 223.879 L2172.49 227.768 L2167.56 227.768 L2167.56 235.916 L2162.9 235.916 L2162.9 227.768 L2147.3 227.768 L2147.3 223.254 L2161.68 201.356 Z" fill="#000000" fill-rule="nonzero" fill-opacity="1"></path><path clip-path="url(#clip410)" d="M2193.07 205.43 L2181.26 223.879 L2193.07 223.879 L2193.07 205.43 M2191.84 201.356 L2197.72 201.356 L2197.72 223.879 L2202.65 223.879 L2202.65 227.768 L2197.72 227.768 L2197.72 235.916 L2193.07 235.916 L2193.07 227.768 L2177.46 227.768 L2177.46 223.254 L2191.84 201.356 Z" fill="#000000" fill-rule="nonzero" fill-opacity="1"></path><path clip-path="url(#clip410)" d="M2211.19 231.981 L2218.83 231.981 L2218.83 205.615 L2210.52 207.282 L2210.52 203.022 L2218.78 201.356 L2223.46 201.356 L2223.46 231.981 L2231.1 231.981 L2231.1 235.916 L2211.19 235.916 L2211.19 231.981 Z" fill="#000000" fill-rule="nonzero" fill-opacity="1"></path><path clip-path="url(#clip410)" d="M2244.57 231.981 L2260.89 231.981 L2260.89 235.916 L2238.95 235.916 L2238.95 231.981 Q2241.61 229.226 2246.19 224.596 Q2250.8 219.944 2251.98 218.601 Q2254.22 216.078 2255.1 214.342 Q2256.01 212.583 2256.01 210.893 Q2256.01 208.138 2254.06 206.402 Q2252.14 204.666 2249.04 204.666 Q2246.84 204.666 2244.39 205.43 Q2241.95 206.194 2239.18 207.745 L2239.18 203.022 Q2242 201.888 2244.45 201.309 Q2246.91 200.731 2248.95 200.731 Q2254.32 200.731 2257.51 203.416 Q2260.7 206.101 2260.7 210.592 Q2260.7 212.721 2259.89 214.643 Q2259.11 216.541 2257 219.133 Q2256.42 219.805 2253.32 223.022 Q2250.22 226.217 2244.57 231.981 Z" fill="#000000" fill-rule="nonzero" fill-opacity="1"></path><polyline clip-path="url(#clip410)" style="stroke:#e26f46; stroke-linecap:round; stroke-linejoin:round; stroke-width:4; stroke-opacity:1; fill:none" points="1840.22,270.476 1978.02,270.476 "></polyline>
<path clip-path="url(#clip410)" d="M2017 256.367 Q2011.91 256.367 2008.9 260.163 Q2005.91 263.96 2005.91 270.51 Q2005.91 277.038 2008.9 280.834 Q2011.91 284.631 2017 284.631 Q2022.09 284.631 2025.06 280.834 Q2028.04 277.038 2028.04 270.51 Q2028.04 263.96 2025.06 260.163 Q2022.09 256.367 2017 256.367 M2017 252.571 Q2024.27 252.571 2028.62 257.455 Q2032.97 262.316 2032.97 270.51 Q2032.97 278.682 2028.62 283.566 Q2024.27 288.427 2017 288.427 Q2009.71 288.427 2005.34 283.566 Q2000.98 278.705 2000.98 270.51 Q2000.98 262.316 2005.34 257.455 Q2009.71 252.571 2017 252.571 Z" fill="#000000" fill-rule="nonzero" fill-opacity="1"></path><path clip-path="url(#clip410)" d="M2044.22 283.867 L2044.22 297.617 L2039.94 297.617 L2039.94 261.83 L2044.22 261.83 L2044.22 265.765 Q2045.57 263.45 2047.6 262.339 Q2049.66 261.205 2052.51 261.205 Q2057.23 261.205 2060.17 264.955 Q2063.14 268.705 2063.14 274.816 Q2063.14 280.927 2060.17 284.677 Q2057.23 288.427 2052.51 288.427 Q2049.66 288.427 2047.6 287.316 Q2045.57 286.182 2044.22 283.867 M2058.71 274.816 Q2058.71 270.117 2056.77 267.455 Q2054.85 264.77 2051.47 264.77 Q2048.09 264.77 2046.15 267.455 Q2044.22 270.117 2044.22 274.816 Q2044.22 279.515 2046.15 282.2 Q2048.09 284.862 2051.47 284.862 Q2054.85 284.862 2056.77 282.2 Q2058.71 279.515 2058.71 274.816 Z" fill="#000000" fill-rule="nonzero" fill-opacity="1"></path><path clip-path="url(#clip410)" d="M2074.41 254.469 L2074.41 261.83 L2083.18 261.83 L2083.18 265.14 L2074.41 265.14 L2074.41 279.214 Q2074.41 282.385 2075.27 283.288 Q2076.15 284.191 2078.81 284.191 L2083.18 284.191 L2083.18 287.756 L2078.81 287.756 Q2073.88 287.756 2072 285.927 Q2070.13 284.075 2070.13 279.214 L2070.13 265.14 L2067 265.14 L2067 261.83 L2070.13 261.83 L2070.13 254.469 L2074.41 254.469 Z" fill="#000000" fill-rule="nonzero" fill-opacity="1"></path><path clip-path="url(#clip410)" d="M2088.78 261.83 L2093.04 261.83 L2093.04 287.756 L2088.78 287.756 L2088.78 261.83 M2088.78 251.737 L2093.04 251.737 L2093.04 257.131 L2088.78 257.131 L2088.78 251.737 Z" fill="#000000" fill-rule="nonzero" fill-opacity="1"></path><path clip-path="url(#clip410)" d="M2122.14 266.807 Q2123.74 263.936 2125.96 262.571 Q2128.18 261.205 2131.19 261.205 Q2135.24 261.205 2137.44 264.052 Q2139.64 266.876 2139.64 272.108 L2139.64 287.756 L2135.36 287.756 L2135.36 272.247 Q2135.36 268.52 2134.04 266.714 Q2132.72 264.909 2130.01 264.909 Q2126.7 264.909 2124.78 267.108 Q2122.86 269.307 2122.86 273.103 L2122.86 287.756 L2118.58 287.756 L2118.58 272.247 Q2118.58 268.497 2117.26 266.714 Q2115.94 264.909 2113.18 264.909 Q2109.92 264.909 2108 267.131 Q2106.08 269.33 2106.08 273.103 L2106.08 287.756 L2101.79 287.756 L2101.79 261.83 L2106.08 261.83 L2106.08 265.858 Q2107.53 263.473 2109.57 262.339 Q2111.61 261.205 2114.41 261.205 Q2117.23 261.205 2119.2 262.64 Q2121.19 264.075 2122.14 266.807 Z" fill="#000000" fill-rule="nonzero" fill-opacity="1"></path><path clip-path="url(#clip410)" d="M2148.14 261.83 L2152.4 261.83 L2152.4 287.756 L2148.14 287.756 L2148.14 261.83 M2148.14 251.737 L2152.4 251.737 L2152.4 257.131 L2148.14 257.131 L2148.14 251.737 Z" fill="#000000" fill-rule="nonzero" fill-opacity="1"></path><path clip-path="url(#clip410)" d="M2159.46 261.83 L2179.69 261.83 L2179.69 265.719 L2163.67 284.353 L2179.69 284.353 L2179.69 287.756 L2158.88 287.756 L2158.88 283.867 L2174.89 265.233 L2159.46 265.233 L2159.46 261.83 Z" fill="#000000" fill-rule="nonzero" fill-opacity="1"></path><path clip-path="url(#clip410)" d="M2208.37 273.728 L2208.37 275.811 L2188.78 275.811 Q2189.06 280.209 2191.42 282.524 Q2193.81 284.816 2198.04 284.816 Q2200.5 284.816 2202.79 284.214 Q2205.1 283.612 2207.37 282.409 L2207.37 286.436 Q2205.08 287.408 2202.67 287.918 Q2200.27 288.427 2197.79 288.427 Q2191.58 288.427 2187.95 284.816 Q2184.34 281.205 2184.34 275.047 Q2184.34 268.682 2187.77 264.955 Q2191.21 261.205 2197.05 261.205 Q2202.28 261.205 2205.31 264.585 Q2208.37 267.941 2208.37 273.728 M2204.11 272.478 Q2204.06 268.983 2202.14 266.899 Q2200.24 264.816 2197.09 264.816 Q2193.53 264.816 2191.38 266.83 Q2189.25 268.844 2188.92 272.501 L2204.11 272.478 Z" fill="#000000" fill-rule="nonzero" fill-opacity="1"></path><path clip-path="url(#clip410)" d="M2232.42 265.765 L2232.42 251.737 L2236.68 251.737 L2236.68 287.756 L2232.42 287.756 L2232.42 283.867 Q2231.08 286.182 2229.01 287.316 Q2226.98 288.427 2224.11 288.427 Q2219.41 288.427 2216.45 284.677 Q2213.51 280.927 2213.51 274.816 Q2213.51 268.705 2216.45 264.955 Q2219.41 261.205 2224.11 261.205 Q2226.98 261.205 2229.01 262.339 Q2231.08 263.45 2232.42 265.765 M2217.9 274.816 Q2217.9 279.515 2219.83 282.2 Q2221.77 284.862 2225.15 284.862 Q2228.53 284.862 2230.47 282.2 Q2232.42 279.515 2232.42 274.816 Q2232.42 270.117 2230.47 267.455 Q2228.53 264.77 2225.15 264.77 Q2221.77 264.77 2219.83 267.455 Q2217.9 270.117 2217.9 274.816 Z" fill="#000000" fill-rule="nonzero" fill-opacity="1"></path></svg>